<svg width="42" height="42" viewBox="0 0 42 42" fill="none" xmlns="http://www.w3.org/2000/svg">
<path opacity="0.4" d="M20.9629 41.208C32.2847 41.208 41.4629 32.0301 41.4629 20.7085C41.4629 9.38693 32.2847 0.208984 20.9629 0.208984C9.64105 0.208984 0.462891 9.38693 0.462891 20.7085C0.462891 32.0301 9.64105 41.208 20.9629 41.208Z" fill="#C9C9C9"/>
<path d="M20.9629 10.3154C16.7194 10.3154 13.2754 13.7593 13.2754 18.0027C13.2754 22.1642 16.5349 25.5466 20.8604 25.6696C20.9219 25.6696 21.0039 25.6696 21.0449 25.6696C21.0859 25.6696 21.1474 25.6696 21.1884 25.6696C21.2089 25.6696 21.2294 25.6696 21.2294 25.6696C25.3704 25.5261 28.6299 22.1642 28.6504 18.0027C28.6504 13.7593 25.2064 10.3154 20.9629 10.3154Z" fill="#C9C9C9"/>
</svg>
