<svg width="45" height="47" viewBox="0 0 45 47" fill="none" xmlns="http://www.w3.org/2000/svg">
<path d="M1.01172 11C1.01172 5.20101 5.71273 0.5 11.5117 0.5H33.4871C39.2861 0.5 43.9871 5.20101 43.9871 11V35.5306C43.9871 41.3296 39.2861 46.0306 33.4871 46.0306H11.5117C5.71273 46.0306 1.01172 41.3296 1.01172 35.5306V11Z" stroke="#323232"/>
<path d="M29.1958 24.0351C29.1649 20.9279 31.7297 19.4375 31.8444 19.3622C30.4029 17.2547 28.1572 16.9655 27.3579 16.9326C25.4483 16.7386 23.6299 18.0574 22.6611 18.0574C21.6943 18.0574 20.1975 16.961 18.614 16.9889C16.5308 17.0198 14.6107 18.2005 13.5387 20.0653C11.3753 23.8183 12.9852 29.3802 15.0933 32.4261C16.1239 33.9149 17.353 35.5903 18.9655 35.5289C20.5196 35.4676 21.106 34.5237 22.9847 34.5237C24.8634 34.5237 25.391 35.5289 27.0349 35.4975C28.7062 35.4671 29.7657 33.9803 30.7878 32.4855C31.971 30.7558 32.4581 29.081 32.4871 28.9962C32.4507 28.9793 29.2292 27.7452 29.1958 24.0351Z" fill="white"/>
<path d="M26.1068 14.9165C26.9619 13.8784 27.5412 12.436 27.3837 11C26.1496 11.0499 24.6558 11.8202 23.7698 12.8573C22.976 13.7777 22.282 15.2431 22.468 16.6532C23.8446 16.7599 25.2487 15.9526 26.1068 14.9165Z" fill="white"/>
</svg>
