<svg width="22" height="22" viewBox="0 0 22 22" fill="none" xmlns="http://www.w3.org/2000/svg">
<path d="M10.9977 9.42375C10.0627 9.42375 9.12775 9.25875 8.23858 8.93791C7.88108 8.80958 7.69775 8.41541 7.82608 8.05791C7.96358 7.70041 8.35775 7.51708 8.71525 7.64541C10.1911 8.17708 11.8136 8.17708 13.2894 7.64541C13.6469 7.51708 14.0411 7.70041 14.1694 8.05791C14.2977 8.41541 14.1144 8.80958 13.7569 8.93791C12.8677 9.25875 11.9327 9.42375 10.9977 9.42375Z" fill="white"/>
<path d="M17.4805 20.8548C17.013 20.8548 16.4996 20.7173 16.0046 20.4332L11.5313 17.949C11.2655 17.8023 10.743 17.8023 10.4771 17.949L6.0038 20.4332C5.0963 20.9373 4.17047 20.9923 3.46464 20.5707C2.7588 20.1582 2.35547 19.324 2.35547 18.2882V5.37232C2.35547 3.04398 4.25297 1.14648 6.5813 1.14648H15.4271C17.7555 1.14648 19.653 3.04398 19.653 5.37232V18.2882C19.653 19.324 19.2496 20.1582 18.5438 20.5707C18.223 20.7632 17.8563 20.8548 17.4805 20.8548ZM10.9996 16.464C11.4305 16.464 11.8521 16.5557 12.1913 16.7482L16.6646 19.2323C17.1321 19.4982 17.563 19.5532 17.838 19.3882C18.113 19.2232 18.2688 18.829 18.2688 18.2882V5.37232C18.2688 3.80482 16.9855 2.52148 15.418 2.52148H6.5813C5.0138 2.52148 3.73047 3.80482 3.73047 5.37232V18.2882C3.73047 18.829 3.8863 19.2323 4.1613 19.3882C4.4363 19.544 4.85797 19.4982 5.33464 19.2323L9.80797 16.7482C10.1471 16.5557 10.5688 16.464 10.9996 16.464Z" fill="white"/>
<path d="M17.4805 20.8548C17.013 20.8548 16.4996 20.7173 16.0046 20.4332L11.5313 17.949C11.2655 17.8023 10.743 17.8023 10.4771 17.949L6.0038 20.4332C5.0963 20.9373 4.17047 20.9923 3.46464 20.5707C2.7588 20.1582 2.35547 19.324 2.35547 18.2882V5.37232C2.35547 3.04398 4.25297 1.14648 6.5813 1.14648H15.4271C17.7555 1.14648 19.653 3.04398 19.653 5.37232V18.2882C19.653 19.324 19.2496 20.1582 18.5438 20.5707C18.223 20.7632 17.8563 20.8548 17.4805 20.8548ZM10.9996 16.464C11.4305 16.464 11.8521 16.5557 12.1913 16.7482L16.6646 19.2323C17.1321 19.4982 17.563 19.5532 17.838 19.3882C18.113 19.2232 18.2688 18.829 18.2688 18.2882V5.37232C18.2688 3.80482 16.9855 2.52148 15.418 2.52148H6.5813C5.0138 2.52148 3.73047 3.80482 3.73047 5.37232V18.2882C3.73047 18.829 3.8863 19.2323 4.1613 19.3882C4.4363 19.544 4.85797 19.4982 5.33464 19.2323L9.80797 16.7482C10.1471 16.5557 10.5688 16.464 10.9996 16.464Z" fill="white"/>
</svg>
