<svg width="22" height="21" viewBox="0 0 22 21" fill="none" xmlns="http://www.w3.org/2000/svg">
<path d="M19.0769 6.125H2.92308C2.55513 6.125 2.25 5.72833 2.25 5.25C2.25 4.77167 2.55513 4.375 2.92308 4.375H19.0769C19.4449 4.375 19.75 4.77167 19.75 5.25C19.75 5.72833 19.4449 6.125 19.0769 6.125Z" fill="white"/>
<path d="M19.0769 11.375H2.92308C2.55513 11.375 2.25 10.9783 2.25 10.5C2.25 10.0217 2.55513 9.625 2.92308 9.625H19.0769C19.4449 9.625 19.75 10.0217 19.75 10.5C19.75 10.9783 19.4449 11.375 19.0769 11.375Z" fill="white"/>
<path d="M19.0769 16.625H2.92308C2.55513 16.625 2.25 16.2283 2.25 15.75C2.25 15.2717 2.55513 14.875 2.92308 14.875H19.0769C19.4449 14.875 19.75 15.2717 19.75 15.75C19.75 16.2283 19.4449 16.625 19.0769 16.625Z" fill="white"/>
</svg>
