<svg width="25" height="24" viewBox="0 0 25 24" fill="none" xmlns="http://www.w3.org/2000/svg">
<path d="M8.5 5.75C8.09 5.75 7.75 5.41 7.75 5V2C7.75 1.59 8.09 1.25 8.5 1.25C8.91 1.25 9.25 1.59 9.25 2V5C9.25 5.41 8.91 5.75 8.5 5.75Z" fill="#828282"/>
<path d="M16.5 5.75C16.09 5.75 15.75 5.41 15.75 5V2C15.75 1.59 16.09 1.25 16.5 1.25C16.91 1.25 17.25 1.59 17.25 2V5C17.25 5.41 16.91 5.75 16.5 5.75Z" fill="#828282"/>
<path d="M9 14.4998C8.87 14.4998 8.74 14.4698 8.62 14.4198C8.49 14.3698 8.39 14.2998 8.29 14.2098C8.11 14.0198 8 13.7698 8 13.4998C8 13.3698 8.03 13.2398 8.08 13.1198C8.13 12.9998 8.2 12.8898 8.29 12.7898C8.39 12.6998 8.49 12.6298 8.62 12.5798C8.98 12.4298 9.43 12.5098 9.71 12.7898C9.89 12.9798 10 13.2398 10 13.4998C10 13.5598 9.99 13.6298 9.98 13.6998C9.97 13.7598 9.95 13.8198 9.92 13.8798C9.9 13.9398 9.87 13.9998 9.83 14.0598C9.8 14.1098 9.75 14.1598 9.71 14.2098C9.52 14.3898 9.26 14.4998 9 14.4998Z" fill="#828282"/>
<path d="M12.5 14.4999C12.37 14.4999 12.24 14.4699 12.12 14.4199C11.99 14.3699 11.89 14.2999 11.79 14.2099C11.61 14.0199 11.5 13.7699 11.5 13.4999C11.5 13.3699 11.53 13.2399 11.58 13.1199C11.63 12.9999 11.7 12.8899 11.79 12.7899C11.89 12.6999 11.99 12.6299 12.12 12.5799C12.48 12.4199 12.93 12.5099 13.21 12.7899C13.39 12.9799 13.5 13.2399 13.5 13.4999C13.5 13.5599 13.49 13.6299 13.48 13.6999C13.47 13.7599 13.45 13.8199 13.42 13.8799C13.4 13.9399 13.37 13.9999 13.33 14.0599C13.3 14.1099 13.25 14.1599 13.21 14.2099C13.02 14.3899 12.76 14.4999 12.5 14.4999Z" fill="#828282"/>
<path d="M16 14.4999C15.87 14.4999 15.74 14.4699 15.62 14.4199C15.49 14.3699 15.39 14.2999 15.29 14.2099C15.25 14.1599 15.21 14.1099 15.17 14.0599C15.13 13.9999 15.1 13.9399 15.08 13.8799C15.05 13.8199 15.03 13.7599 15.02 13.6999C15.01 13.6299 15 13.5599 15 13.4999C15 13.2399 15.11 12.9799 15.29 12.7899C15.39 12.6999 15.49 12.6299 15.62 12.5799C15.99 12.4199 16.43 12.5099 16.71 12.7899C16.89 12.9799 17 13.2399 17 13.4999C17 13.5599 16.99 13.6299 16.98 13.6999C16.97 13.7599 16.95 13.8199 16.92 13.8799C16.9 13.9399 16.87 13.9999 16.83 14.0599C16.8 14.1099 16.75 14.1599 16.71 14.2099C16.52 14.3899 16.26 14.4999 16 14.4999Z" fill="#828282"/>
<path d="M9 18.0002C8.87 18.0002 8.74 17.9702 8.62 17.9202C8.5 17.8702 8.39 17.8002 8.29 17.7102C8.11 17.5202 8 17.2602 8 17.0002C8 16.8702 8.03 16.7402 8.08 16.6202C8.13 16.4902 8.2 16.3802 8.29 16.2902C8.66 15.9202 9.34 15.9202 9.71 16.2902C9.89 16.4802 10 16.7402 10 17.0002C10 17.2602 9.89 17.5202 9.71 17.7102C9.52 17.8902 9.26 18.0002 9 18.0002Z" fill="#828282"/>
<path d="M12.5 18.0002C12.24 18.0002 11.98 17.8902 11.79 17.7102C11.61 17.5202 11.5 17.2602 11.5 17.0002C11.5 16.8702 11.53 16.7402 11.58 16.6202C11.63 16.4902 11.7 16.3802 11.79 16.2902C12.16 15.9202 12.84 15.9202 13.21 16.2902C13.3 16.3802 13.37 16.4902 13.42 16.6202C13.47 16.7402 13.5 16.8702 13.5 17.0002C13.5 17.2602 13.39 17.5202 13.21 17.7102C13.02 17.8902 12.76 18.0002 12.5 18.0002Z" fill="#828282"/>
<path d="M16 17.9999C15.74 17.9999 15.48 17.8899 15.29 17.7099C15.2 17.6199 15.13 17.5099 15.08 17.3799C15.03 17.2599 15 17.1299 15 16.9999C15 16.8699 15.03 16.7399 15.08 16.6199C15.13 16.4899 15.2 16.3799 15.29 16.2899C15.52 16.0599 15.87 15.9499 16.19 16.0199C16.26 16.0299 16.32 16.0499 16.38 16.0799C16.44 16.0999 16.5 16.1299 16.56 16.1699C16.61 16.1999 16.66 16.2499 16.71 16.2899C16.89 16.4799 17 16.7399 17 16.9999C17 17.2599 16.89 17.5199 16.71 17.7099C16.52 17.8899 16.26 17.9999 16 17.9999Z" fill="#828282"/>
<path d="M21 9.83984H4C3.59 9.83984 3.25 9.49984 3.25 9.08984C3.25 8.67984 3.59 8.33984 4 8.33984H21C21.41 8.33984 21.75 8.67984 21.75 9.08984C21.75 9.49984 21.41 9.83984 21 9.83984Z" fill="#828282"/>
<path d="M16.5 22.75H8.5C4.85 22.75 2.75 20.65 2.75 17V8.5C2.75 4.85 4.85 2.75 8.5 2.75H16.5C20.15 2.75 22.25 4.85 22.25 8.5V17C22.25 20.65 20.15 22.75 16.5 22.75ZM8.5 4.25C5.64 4.25 4.25 5.64 4.25 8.5V17C4.25 19.86 5.64 21.25 8.5 21.25H16.5C19.36 21.25 20.75 19.86 20.75 17V8.5C20.75 5.64 19.36 4.25 16.5 4.25H8.5Z" fill="#828282"/>
</svg>
