<svg width="24" height="24" viewBox="0 0 24 24" fill="none" xmlns="http://www.w3.org/2000/svg">
<rect x="0.5" y="0.5" width="23" height="23" rx="2.5" stroke="#5C5C5C"/>
<rect width="24" height="24" rx="3" fill="#F66329"/>
<path d="M19.9375 7.25C19.9375 7.52187 19.8337 7.79387 19.6262 8.00105L11.1262 16.5011C10.9195 16.7096 10.6473 16.8125 10.375 16.8125C10.1027 16.8125 9.83113 16.7087 9.62395 16.5012L5.37395 12.2512C5.16643 12.0445 5.0625 11.7723 5.0625 11.5C5.0625 10.893 5.55889 10.4375 6.125 10.4375C6.39687 10.4375 6.66887 10.5413 6.87605 10.7488L10.375 14.2492L18.1246 6.49961C18.3305 6.29143 18.6027 6.1875 18.875 6.1875C19.4428 6.1875 19.9375 6.64238 19.9375 7.25Z" fill="white"/>
</svg>
