<svg width="18" height="18" viewBox="0 0 18 18" fill="none" xmlns="http://www.w3.org/2000/svg">
<path d="M10.0511 13.0646H8.16859C6.93859 13.0646 5.94109 12.0296 5.94109 10.7546C5.94109 10.4471 6.19609 10.1921 6.50359 10.1921C6.81109 10.1921 7.06609 10.4471 7.06609 10.7546C7.06609 11.4071 7.56109 11.9396 8.16859 11.9396H10.0511C10.5386 11.9396 10.9436 11.5046 10.9436 10.9796C10.9436 10.3271 10.7111 10.1996 10.3286 10.0646L7.30609 8.99957C6.72109 8.79707 5.93359 8.36207 5.93359 7.01957C5.93359 5.86457 6.84109 4.93457 7.95109 4.93457H9.83359C11.0636 4.93457 12.0611 5.96957 12.0611 7.24457C12.0611 7.55207 11.8061 7.80707 11.4986 7.80707C11.1911 7.80707 10.9361 7.55207 10.9361 7.24457C10.9361 6.59207 10.4411 6.05957 9.83359 6.05957H7.95109C7.46359 6.05957 7.05859 6.49457 7.05859 7.01957C7.05859 7.67207 7.29109 7.79957 7.67359 7.93457L10.6961 8.99957C11.2811 9.20207 12.0686 9.63707 12.0686 10.9796C12.0611 12.1271 11.1611 13.0646 10.0511 13.0646Z" fill="#1B1B1B"/>
<path d="M9 14.0615C8.6925 14.0615 8.4375 13.8065 8.4375 13.499V4.49902C8.4375 4.19152 8.6925 3.93652 9 3.93652C9.3075 3.93652 9.5625 4.19152 9.5625 4.49902V13.499C9.5625 13.8065 9.3075 14.0615 9 14.0615Z" fill="#1B1B1B"/>
<path d="M9 17.0625C4.5525 17.0625 0.9375 13.4475 0.9375 9C0.9375 4.5525 4.5525 0.9375 9 0.9375C13.4475 0.9375 17.0625 4.5525 17.0625 9C17.0625 13.4475 13.4475 17.0625 9 17.0625ZM9 2.0625C5.175 2.0625 2.0625 5.175 2.0625 9C2.0625 12.825 5.175 15.9375 9 15.9375C12.825 15.9375 15.9375 12.825 15.9375 9C15.9375 5.175 12.825 2.0625 9 2.0625Z" fill="#323232"/>
</svg>
