<svg width="34" height="33" viewBox="0 0 34 33" fill="none" xmlns="http://www.w3.org/2000/svg">
<path d="M23.9023 15.9941C27.0874 15.9941 28.5014 16.8369 29.1777 17.8721C29.8926 18.9664 29.9092 20.4266 29.9092 22V23.375C29.8954 25.9178 29.2465 27.7379 28.0557 28.9258C26.8645 30.1139 25.0437 30.7559 22.5 30.7559H11.5C7.62766 30.7559 5.86977 29.7316 5.02148 28.4336C4.13463 27.0763 4.11914 25.2717 4.11914 23.375V22C4.11914 20.4266 4.1348 18.9664 4.84961 17.8721C5.52596 16.8369 6.9399 15.9941 10.125 15.9941C10.9 15.9941 11.3918 16.0886 11.7764 16.2373C12.1635 16.387 12.4765 16.6032 12.8984 16.916C12.9088 16.9248 12.9171 16.9333 12.9248 16.9395C12.9342 16.947 12.9432 16.9544 12.9492 16.959C12.9506 16.9601 12.952 16.961 12.9531 16.9619L12.9541 16.9629L12.9746 16.9844L14.377 18.4688V18.4697C15.7232 19.8942 18.1056 19.938 19.5166 18.6025L19.6504 18.4697V18.4688L21.043 16.9951L21.124 16.9199L21.126 16.918C21.5483 16.5978 21.862 16.3807 22.249 16.2324C22.633 16.0854 23.1253 15.9942 23.9023 15.9941ZM23.875 17.0059C23.3685 17.0059 22.9959 17.0356 22.6602 17.1514C22.3234 17.2675 22.0634 17.4587 21.7744 17.6738L21.7373 17.7012L21.7051 17.7354L20.3711 19.1514C19.4794 20.0919 18.2837 20.6084 17 20.6084C15.716 20.6084 14.5197 20.0922 13.6279 19.1514H13.6289L12.2949 17.7354L12.2627 17.7012L12.2256 17.6738L12.0127 17.5176C11.8018 17.3678 11.5924 17.2385 11.3398 17.1514C11.0041 17.0356 10.6315 17.0059 10.125 17.0059C7.89416 17.0059 6.52464 17.3417 5.79688 18.2979C5.43794 18.7695 5.28034 19.337 5.20508 19.9434C5.13041 20.5451 5.13086 21.2438 5.13086 22V23.375C5.13086 24.3071 5.13028 25.1795 5.22656 25.9434C5.32346 26.712 5.52388 27.4251 5.96387 28.0215C6.85827 29.2337 8.56475 29.7441 11.5 29.7441H22.5C24.6087 29.7441 26.2382 29.2969 27.3301 28.2051C28.4219 27.1132 28.8691 25.4837 28.8691 23.375V22C28.8691 21.2438 28.8696 20.5451 28.7949 19.9434C28.7197 19.337 28.5621 18.7695 28.2031 18.2979C27.4754 17.3417 26.1058 17.0059 23.875 17.0059Z" stroke="#F66329" stroke-width="1.05"/>
<path d="M26.625 17.5313C26.0613 17.5313 25.5938 17.0638 25.5938 16.5V8.25C25.5938 5.18375 25.5938 3.78125 21.125 3.78125H12.875C8.40625 3.78125 8.40625 5.18375 8.40625 8.25V16.5C8.40625 17.0638 7.93875 17.5313 7.375 17.5313C6.81125 17.5313 6.34375 17.0638 6.34375 16.5V8.25C6.34375 5.18375 6.34375 1.71875 12.875 1.71875H21.125C27.6562 1.71875 27.6562 5.18375 27.6562 8.25V16.5C27.6562 17.0638 27.1887 17.5313 26.625 17.5313Z" fill="#F66329"/>
</svg>
