<svg width="49" height="46" viewBox="0 0 49 46" fill="none" xmlns="http://www.w3.org/2000/svg">
<path d="M1.01172 11C1.01172 5.20101 5.71273 0.5 11.5117 0.5H37.5117C43.3107 0.5 48.0117 5.20101 48.0117 11V35C48.0117 40.799 43.3107 45.5 37.5117 45.5H11.5117C5.71273 45.5 1.01172 40.799 1.01172 35V11Z" stroke="#323232"/>
<path d="M36.5117 23C36.5117 16.3726 31.1391 11 24.5117 11C17.8843 11 12.5117 16.3726 12.5117 23C12.5117 28.9895 16.9 33.954 22.6367 34.8542V26.4687H19.5898V23H22.6367V20.3562C22.6367 17.3487 24.4282 15.6875 27.1693 15.6875C28.4822 15.6875 29.8555 15.9219 29.8555 15.9219V18.875H28.3423C26.8516 18.875 26.3867 19.8 26.3867 20.749V23H29.7148L29.1828 26.4687H26.3867V34.8542C32.1235 33.954 36.5117 28.9895 36.5117 23Z" fill="#1877F2"/>
<path d="M29.1828 26.4688L29.7148 23H26.3867V20.749C26.3867 19.8 26.8516 18.875 28.3423 18.875H29.8555V15.9219C29.8555 15.9219 28.4822 15.6875 27.1693 15.6875C24.4282 15.6875 22.6367 17.3488 22.6367 20.3563V23H19.5898V26.4688H22.6367V34.8542C23.2476 34.9501 23.8738 35 24.5117 35C25.1496 35 25.7758 34.9501 26.3867 34.8542V26.4688H29.1828Z" fill="white"/>
</svg>
