<svg width="19" height="19" viewBox="0 0 19 19" fill="none" xmlns="http://www.w3.org/2000/svg">
<g clip-path="url(#clip0_8937_6599)">
<g clip-path="url(#clip1_8937_6599)">
<path d="M9.57812 0.147461C9.57812 0.147461 10.2025 2.38375 10.2025 4.19809C10.2025 5.93649 9.06344 7.34577 7.32531 7.34577C5.57875 7.34577 4.2625 5.93649 4.2625 4.19809L4.28781 3.8943C2.58344 5.91961 1.5625 8.54409 1.5625 11.3964C1.5625 15.1264 4.58312 18.1475 8.3125 18.1475C12.0419 18.1475 15.0625 15.1264 15.0625 11.3964C15.0625 6.84788 12.8772 2.78881 9.57812 0.147461ZM8.06781 15.6158C6.56594 15.6158 5.35094 14.4344 5.35094 12.966C5.35094 11.5989 6.23688 10.6369 7.72188 10.3331C9.21531 10.0293 10.7594 9.31202 11.62 8.1559C11.9491 9.24451 12.1178 10.3922 12.1178 11.5652C12.1178 13.8015 10.3038 15.6158 8.06781 15.6158Z" fill="#FFA844"/>
</g>
</g>
<defs>
<clipPath id="clip0_8937_6599">
<rect width="18" height="18" fill="white" transform="translate(0.25 0.147461)"/>
</clipPath>
<clipPath id="clip1_8937_6599">
<rect width="18" height="18" fill="white" transform="translate(0.25 0.147461)"/>
</clipPath>
</defs>
</svg>
