<svg width="18" height="19" viewBox="0 0 18 19" fill="none" xmlns="http://www.w3.org/2000/svg">
<path d="M5.5625 0.75C6.13542 0.802083 6.44792 1.11458 6.5 1.6875C6.44792 2.26042 6.13542 2.57292 5.5625 2.625H2.125V6.0625C2.07292 6.63542 1.76042 6.94792 1.1875 7C0.614583 6.94792 0.302083 6.63542 0.25 6.0625V1.6875C0.302083 1.11458 0.614583 0.802083 1.1875 0.75H5.5625ZM16.8125 0.75C17.3854 0.802083 17.6979 1.11458 17.75 1.6875V6.0625C17.6979 6.63542 17.3854 6.94792 16.8125 7C16.2396 6.94792 15.9271 6.63542 15.875 6.0625V2.625H12.4375C11.8646 2.57292 11.5521 2.26042 11.5 1.6875C11.5521 1.11458 11.8646 0.802083 12.4375 0.75H16.8125ZM5.5625 16.375C6.13542 16.4271 6.44792 16.7396 6.5 17.3125C6.44792 17.8854 6.13542 18.1979 5.5625 18.25H1.1875C0.614583 18.1979 0.302083 17.8854 0.25 17.3125V12.9375C0.302083 12.3646 0.614583 12.0521 1.1875 12C1.76042 12.0521 2.07292 12.3646 2.125 12.9375V16.375H5.5625ZM16.8125 12C17.3854 12.0521 17.6979 12.3646 17.75 12.9375V17.3125C17.6979 17.8854 17.3854 18.1979 16.8125 18.25H12.4375C11.8646 18.1979 11.5521 17.8854 11.5 17.3125C11.5521 16.7396 11.8646 16.4271 12.4375 16.375H15.875V12.9375C15.9271 12.3646 16.2396 12.0521 16.8125 12Z" fill="white"/>
</svg>
