<svg width="49" height="46" viewBox="0 0 49 46" fill="none" xmlns="http://www.w3.org/2000/svg">
<path d="M1.01172 11C1.01172 5.20101 5.71273 0.5 11.5117 0.5H37.5117C43.3107 0.5 48.0117 5.20101 48.0117 11V35C48.0117 40.799 43.3107 45.5 37.5117 45.5H11.5117C5.71273 45.5 1.01172 40.799 1.01172 35V11Z" stroke="#323232"/>
<path fill-rule="evenodd" clip-rule="evenodd" d="M17.6836 23.0001C17.6836 22.2206 17.813 21.4733 18.0442 20.7724L13.9998 17.6841C13.2116 19.2844 12.7676 21.0878 12.7676 23.0001C12.7676 24.9109 13.2112 26.713 13.9981 28.3123L18.0403 25.218C17.8113 24.5203 17.6836 23.7758 17.6836 23.0001Z" fill="#FBBC05"/>
<path fill-rule="evenodd" clip-rule="evenodd" d="M24.7848 15.9091C26.4781 15.9091 28.0076 16.5091 29.2092 17.4909L32.705 14C30.5748 12.1454 27.8437 11 24.7848 11C20.0358 11 15.9543 13.7157 14 17.684L18.0442 20.7723C18.9761 17.9437 21.6324 15.9091 24.7848 15.9091Z" fill="#EA4335"/>
<path fill-rule="evenodd" clip-rule="evenodd" d="M24.7848 30.0907C21.6326 30.0907 18.9763 28.0562 18.0444 25.2275L14 28.3153C15.9543 32.2841 20.0358 34.9999 24.7848 34.9999C27.7158 34.9999 30.5142 33.959 32.6144 32.009L28.7756 29.0413C27.6924 29.7236 26.3283 30.0907 24.7848 30.0907Z" fill="#34A853"/>
<path fill-rule="evenodd" clip-rule="evenodd" d="M36.2558 23.0001C36.2558 22.291 36.1465 21.5273 35.9827 20.8184H24.7852V25.4547H31.2307C30.9083 27.0355 30.0312 28.2507 28.7759 29.0415L32.6148 32.0093C34.8209 29.9618 36.2558 26.9115 36.2558 23.0001Z" fill="#4285F4"/>
</svg>
