<svg width="13" height="13" viewBox="0 0 13 13" fill="none" xmlns="http://www.w3.org/2000/svg">
<g clip-path="url(#clip0_8251_14898)">
<path d="M8.74922 7.5C7.99922 7.5 7.39922 7.7 6.94922 7.95C7.64922 8.55 7.94922 9.25 7.99922 9.3L8.04922 9.4V10.5H12.0492V9.5C11.9992 9.5 11.1992 7.5 8.74922 7.5Z" fill="#DCDCDC"/>
<path d="M8.75 6.5C9.7165 6.5 10.5 5.7165 10.5 4.75C10.5 3.7835 9.7165 3 8.75 3C7.7835 3 7 3.7835 7 4.75C7 5.7165 7.7835 6.5 8.75 6.5Z" fill="#DCDCDC"/>
<path d="M2.5 4.75C2.5 3.8 3.3 3 4.25 3C5.2 3 6 3.8 6 4.75C6 5.7 5.2 6.5 4.25 6.5C3.3 6.5 2.5 5.7 2.5 4.75ZM4.25 7.5C1.8 7.5 1 9.5 1 9.5V10.5H7.5V9.5C7.5 9.5 6.7 7.5 4.25 7.5Z" fill="#DCDCDC"/>
</g>
<defs>
<clipPath id="clip0_8251_14898">
<rect width="12" height="12" fill="white" transform="translate(0.5 0.5)"/>
</clipPath>
</defs>
</svg>
