<svg width="23" height="22" viewBox="0 0 23 22" fill="none" xmlns="http://www.w3.org/2000/svg">
<path d="M16.8082 20.8542H6.19315C3.68148 20.8542 1.64648 18.81 1.64648 16.2983V9.50584C1.64648 8.25917 2.41648 6.69167 3.40648 5.92167L8.34732 2.07167C9.83232 0.916668 12.2065 0.861668 13.7465 1.94333L19.4115 5.9125C20.5023 6.67334 21.3548 8.305 21.3548 9.63417V16.3075C21.3548 18.81 19.3198 20.8542 16.8082 20.8542ZM9.19065 3.15334L4.24982 7.00333C3.59898 7.51667 3.02148 8.68084 3.02148 9.50584V16.2983C3.02148 18.0492 4.44232 19.4792 6.19315 19.4792H16.8082C18.559 19.4792 19.9798 18.0583 19.9798 16.3075V9.63417C19.9798 8.75417 19.3473 7.535 18.6231 7.04L12.9582 3.07083C11.9132 2.3375 10.1898 2.37417 9.19065 3.15334Z" fill="#1A1A1A"/>
<path d="M11.5 17.1875C11.1242 17.1875 10.8125 16.8758 10.8125 16.5V13.75C10.8125 13.3742 11.1242 13.0625 11.5 13.0625C11.8758 13.0625 12.1875 13.3742 12.1875 13.75V16.5C12.1875 16.8758 11.8758 17.1875 11.5 17.1875Z" fill="#1A1A1A"/>
</svg>
