<svg width="25" height="24" viewBox="0 0 25 24" fill="none" xmlns="http://www.w3.org/2000/svg">
<path d="M2.99023 17.3701V17.37V10.4835C3.02476 9.85921 3.18475 9.24826 3.46069 8.68713C3.73685 8.12556 4.12342 7.6255 4.59726 7.21685L9.59024 3.32013C10.3017 2.809 11.151 2.5244 12.0269 2.50366C12.9033 2.48291 13.7654 2.72723 14.5005 3.20453L20.2434 7.22254C20.7639 7.62808 21.1912 8.1409 21.496 8.72622C21.8009 9.31154 21.9763 9.95558 22.0102 10.6146V17.3818C22.0102 17.3819 22.0102 17.3819 22.0102 17.382C22.0097 18.4745 21.5755 19.5222 20.8029 20.2947C20.0304 21.0672 18.9828 21.5015 17.8902 21.502C17.8902 21.502 17.8901 21.502 17.89 21.502L7.11142 21.502C7.11116 21.502 7.11091 21.502 7.11065 21.502C6.01687 21.4992 4.96883 21.0627 4.19639 20.2883C3.42377 19.5137 2.99 18.4642 2.99023 17.3701ZM13.3841 18.8859C13.6185 18.6515 13.7502 18.3335 13.7502 18.002V15.002C13.7502 14.6705 13.6185 14.3526 13.3841 14.1181C13.1497 13.8837 12.8318 13.752 12.5002 13.752C12.1687 13.752 11.8508 13.8837 11.6164 14.1181C11.3819 14.3526 11.2502 14.6705 11.2502 15.002V18.002C11.2502 18.3335 11.3819 18.6515 11.6164 18.8859C11.8508 19.1203 12.1687 19.252 12.5002 19.252C12.8318 19.252 13.1497 19.1203 13.3841 18.8859Z" fill="#7B29FF" stroke="#7B29FF"/>
</svg>
