<svg width="24" height="24" viewBox="0 0 24 24" fill="none" xmlns="http://www.w3.org/2000/svg">
<path d="M12 22C13.9778 22 15.9112 21.4135 17.5557 20.3147C19.2002 19.2159 20.4819 17.6541 21.2388 15.8268C21.9957 13.9996 22.1937 11.9889 21.8078 10.0491C21.422 8.10929 20.4696 6.32746 19.0711 4.92893C17.6725 3.53041 15.8907 2.578 13.9509 2.19215C12.0111 1.80629 10.0004 2.00433 8.17316 2.7612C6.3459 3.51808 4.78411 4.79981 3.6853 6.4443C2.58649 8.08879 2 10.0222 2 12C2.00423 14.6509 3.05915 17.1919 4.9336 19.0664C6.80805 20.9408 9.34913 21.9958 12 22ZM12.75 16C12.75 16.1989 13.5 16 13.5 16.5C13.3593 16.6407 12.6622 16.75 12 16.75C11.8011 16.75 11.6103 16.671 11.4697 16.5303C11.329 16.3897 11.25 16.1989 11.25 16L11.25 11C11.25 10.8011 11.329 10.6103 11.4697 10.4697C11.6103 10.329 11.8011 10.25 12 10.25C12.1989 10.25 12.3897 10.329 12.5303 10.4697C12.671 10.6103 12.75 10.8011 12.75 11L12.75 16ZM11.08 7.62C11.1283 7.49762 11.1996 7.38561 11.29 7.29C11.3873 7.20175 11.4989 7.13073 11.62 7.08C11.7397 7.02728 11.8692 7.00005 12 7.00005C12.1308 7.00005 12.2602 7.02728 12.38 7.08C12.5011 7.13073 12.6127 7.20175 12.71 7.29C12.8004 7.38561 12.8717 7.49762 12.92 7.62C12.9728 7.73973 13 7.86915 13 8C13 8.13085 12.9728 8.26027 12.92 8.38C12.8751 8.5041 12.8034 8.6168 12.7101 8.71012C12.6168 8.80343 12.5041 8.87509 12.38 8.92C12.1365 9.02002 11.8635 9.02002 11.62 8.92C11.4959 8.87509 11.3832 8.80343 11.2899 8.71012C11.1966 8.6168 11.1249 8.5041 11.08 8.38C11.0272 8.26027 10.9999 8.13085 10.9999 8C10.9999 7.86915 11.0272 7.73973 11.08 7.62Z" fill="#27272A"/>
</svg>
