<svg width="18" height="19" viewBox="0 0 18 19" fill="none" xmlns="http://www.w3.org/2000/svg">
<path d="M9 17.2783C4.5525 17.2783 0.9375 13.6633 0.9375 9.21582C0.9375 4.76832 4.5525 1.15332 9 1.15332C13.4475 1.15332 17.0625 4.76832 17.0625 9.21582C17.0625 13.6633 13.4475 17.2783 9 17.2783ZM9 2.27832C5.175 2.27832 2.0625 5.39082 2.0625 9.21582C2.0625 13.0408 5.175 16.1533 9 16.1533C12.825 16.1533 15.9375 13.0408 15.9375 9.21582C15.9375 5.39082 12.825 2.27832 9 2.27832Z" fill="#FF3257"/>
<path d="M9 10.5283C8.6925 10.5283 8.4375 10.2733 8.4375 9.96582V6.21582C8.4375 5.90832 8.6925 5.65332 9 5.65332C9.3075 5.65332 9.5625 5.90832 9.5625 6.21582V9.96582C9.5625 10.2733 9.3075 10.5283 9 10.5283Z" fill="#FF3257"/>
<path d="M9 12.966C8.9025 12.966 8.805 12.9435 8.715 12.906C8.625 12.8685 8.5425 12.816 8.4675 12.7485C8.4 12.6735 8.3475 12.5985 8.31 12.501C8.2725 12.411 8.25 12.3135 8.25 12.216C8.25 12.1185 8.2725 12.021 8.31 11.931C8.3475 11.841 8.4 11.7585 8.4675 11.6835C8.5425 11.616 8.625 11.5635 8.715 11.526C8.895 11.451 9.105 11.451 9.285 11.526C9.375 11.5635 9.4575 11.616 9.5325 11.6835C9.6 11.7585 9.6525 11.841 9.69 11.931C9.7275 12.021 9.75 12.1185 9.75 12.216C9.75 12.3135 9.7275 12.411 9.69 12.501C9.6525 12.5985 9.6 12.6735 9.5325 12.7485C9.4575 12.816 9.375 12.8685 9.285 12.906C9.195 12.9435 9.0975 12.966 9 12.966Z" fill="#FF3257"/>
</svg>
