<svg width="22" height="21" viewBox="0 0 22 21" fill="none" xmlns="http://www.w3.org/2000/svg">
<path d="M17.4173 5.25016H13.2098L15.3182 3.24641C15.4036 3.16483 15.4714 3.06797 15.5177 2.96138C15.5639 2.85479 15.5877 2.74054 15.5877 2.62516C15.5877 2.50979 15.5639 2.39554 15.5177 2.28894C15.4714 2.18235 15.4036 2.0855 15.3182 2.00391C15.2327 1.92233 15.1312 1.85761 15.0195 1.81346C14.9079 1.76931 14.7882 1.74658 14.6673 1.74658C14.4232 1.74658 14.1891 1.83915 14.0165 2.00391L11.0007 4.89141L7.98482 2.00391C7.89935 1.92233 7.79788 1.85761 7.68621 1.81346C7.57454 1.76931 7.45486 1.74658 7.33398 1.74658C7.21311 1.74658 7.09343 1.76931 6.98176 1.81346C6.87009 1.85761 6.76862 1.92233 6.68315 2.00391C6.59768 2.0855 6.52989 2.18235 6.48363 2.28894C6.43737 2.39554 6.41357 2.50979 6.41357 2.62516C6.41357 2.74054 6.43737 2.85479 6.48363 2.96138C6.52989 3.06797 6.59768 3.16483 6.68315 3.24641L8.79148 5.25016H4.58398C3.85464 5.25016 3.15517 5.52672 2.63944 6.01901C2.12372 6.51129 1.83398 7.17897 1.83398 7.87516V16.6252C1.83398 17.3214 2.12372 17.989 2.63944 18.4813C3.15517 18.9736 3.85464 19.2502 4.58398 19.2502H17.4173C18.1467 19.2502 18.8461 18.9736 19.3619 18.4813C19.8776 17.989 20.1673 17.3214 20.1673 16.6252V7.87516C20.1673 7.17897 19.8776 6.51129 19.3619 6.01901C18.8461 5.52672 18.1467 5.25016 17.4173 5.25016ZM14.6673 14.0002C14.6673 14.4643 14.4742 14.9094 14.1303 15.2376C13.7865 15.5658 13.3202 15.7502 12.834 15.7502H5.50065C5.01442 15.7502 4.54811 15.5658 4.20429 15.2376C3.86047 14.9094 3.66732 14.4643 3.66732 14.0002V8.75016C3.66732 8.28603 3.86047 7.84091 4.20429 7.51273C4.54811 7.18454 5.01442 7.00016 5.50065 7.00016H12.834C13.3202 7.00016 13.7865 7.18454 14.1303 7.51273C14.4742 7.84091 14.6673 8.28603 14.6673 8.75016V14.0002ZM17.4173 16.6252C17.236 16.6252 17.0588 16.5738 16.908 16.4777C16.7573 16.3816 16.6398 16.2449 16.5704 16.085C16.501 15.9251 16.4829 15.7492 16.5183 15.5795C16.5536 15.4097 16.6409 15.2538 16.7691 15.1314C16.8973 15.0091 17.0607 14.9257 17.2385 14.892C17.4163 14.8582 17.6006 14.8755 17.7681 14.9418C17.9356 15.008 18.0788 15.1201 18.1795 15.264C18.2802 15.4079 18.334 15.5771 18.334 15.7502C18.334 15.9822 18.2374 16.2048 18.0655 16.3689C17.8936 16.533 17.6604 16.6252 17.4173 16.6252ZM17.4173 13.1252C17.236 13.1252 17.0588 13.0738 16.908 12.9777C16.7573 12.8816 16.6398 12.7449 16.5704 12.585C16.501 12.4251 16.4829 12.2492 16.5183 12.0795C16.5536 11.9097 16.6409 11.7538 16.7691 11.6314C16.8973 11.5091 17.0607 11.4257 17.2385 11.392C17.4163 11.3582 17.6006 11.3755 17.7681 11.4418C17.9356 11.508 18.0788 11.6201 18.1795 11.764C18.2802 11.9079 18.334 12.0771 18.334 12.2502C18.334 12.4822 18.2374 12.7048 18.0655 12.8689C17.8936 13.033 17.6604 13.1252 17.4173 13.1252ZM17.4173 9.62516C17.236 9.62516 17.0588 9.57384 16.908 9.4777C16.7573 9.38155 16.6398 9.2449 16.5704 9.08501C16.501 8.92512 16.4829 8.74919 16.5183 8.57946C16.5536 8.40972 16.6409 8.25382 16.7691 8.13144C16.8973 8.00907 17.0607 7.92574 17.2385 7.89197C17.4163 7.85821 17.6006 7.87554 17.7681 7.94177C17.9356 8.00799 18.0788 8.12014 18.1795 8.26404C18.2802 8.40793 18.334 8.5771 18.334 8.75016C18.334 8.98223 18.2374 9.20479 18.0655 9.36888C17.8936 9.53297 17.6604 9.62516 17.4173 9.62516Z" fill="white"/>
</svg>
