<svg width="13" height="13" viewBox="0 0 13 13" fill="none" xmlns="http://www.w3.org/2000/svg">
<mask id="path-1-inside-1_8251_14909" fill="white">
<path d="M9.5 5.82308C9.295 5.82308 9.125 5.63891 9.125 5.41683V4.3335C9.125 2.62725 8.68 1.48975 6.5 1.48975C4.32 1.48975 3.875 2.62725 3.875 4.3335V5.41683C3.875 5.63891 3.705 5.82308 3.5 5.82308C3.295 5.82308 3.125 5.63891 3.125 5.41683V4.3335C3.125 2.76266 3.475 0.677246 6.5 0.677246C9.525 0.677246 9.875 2.76266 9.875 4.3335V5.41683C9.875 5.63891 9.705 5.82308 9.5 5.82308Z"/>
</mask>
<path d="M9.5 5.82308C9.295 5.82308 9.125 5.63891 9.125 5.41683V4.3335C9.125 2.62725 8.68 1.48975 6.5 1.48975C4.32 1.48975 3.875 2.62725 3.875 4.3335V5.41683C3.875 5.63891 3.705 5.82308 3.5 5.82308C3.295 5.82308 3.125 5.63891 3.125 5.41683V4.3335C3.125 2.76266 3.475 0.677246 6.5 0.677246C9.525 0.677246 9.875 2.76266 9.875 4.3335V5.41683C9.875 5.63891 9.705 5.82308 9.5 5.82308Z" fill="white"/>
<path d="M9.5 4.82308C9.92114 4.82308 10.125 5.1635 10.125 5.41683H8.125C8.125 6.11433 8.66886 6.82308 9.5 6.82308V4.82308ZM10.125 5.41683V4.3335H8.125V5.41683H10.125ZM10.125 4.3335C10.125 3.44494 10.0216 2.43879 9.4219 1.66113C8.7737 0.820519 7.75179 0.489746 6.5 0.489746V2.48975C7.42821 2.48975 7.7188 2.72772 7.8381 2.88242C8.00593 3.10008 8.125 3.5158 8.125 4.3335H10.125ZM6.5 0.489746C5.24821 0.489746 4.2263 0.820519 3.5781 1.66113C2.97843 2.43879 2.875 3.44494 2.875 4.3335H4.875C4.875 3.5158 4.99407 3.10008 5.1619 2.88242C5.2812 2.72772 5.57179 2.48975 6.5 2.48975V0.489746ZM2.875 4.3335V5.41683H4.875V4.3335H2.875ZM2.875 5.41683C2.875 5.1635 3.07886 4.82308 3.5 4.82308V6.82308C4.33114 6.82308 4.875 6.11433 4.875 5.41683H2.875ZM3.5 4.82308C3.92114 4.82308 4.125 5.1635 4.125 5.41683H2.125C2.125 6.11433 2.66886 6.82308 3.5 6.82308V4.82308ZM4.125 5.41683V4.3335H2.125V5.41683H4.125ZM4.125 4.3335C4.125 3.58309 4.21821 2.92118 4.51704 2.46057C4.75896 2.08767 5.24709 1.67725 6.5 1.67725V-0.322754C4.72791 -0.322754 3.52854 0.309527 2.83921 1.37205C2.20679 2.34685 2.125 3.51307 2.125 4.3335H4.125ZM6.5 1.67725C7.75291 1.67725 8.24104 2.08767 8.48296 2.46057C8.78179 2.92118 8.875 3.58309 8.875 4.3335H10.875C10.875 3.51307 10.7932 2.34685 10.1608 1.37205C9.47146 0.309527 8.27209 -0.322754 6.5 -0.322754V1.67725ZM8.875 4.3335V5.41683H10.875V4.3335H8.875ZM8.875 5.41683C8.875 5.1635 9.07886 4.82308 9.5 4.82308V6.82308C10.3311 6.82308 10.875 6.11433 10.875 5.41683H8.875Z" fill="#DCDCDC" mask="url(#path-1-inside-1_8251_14909)"/>
<mask id="path-3-inside-2_8251_14909" fill="white">
<path d="M6.5 10.4271C5.605 10.4271 4.875 9.63625 4.875 8.66667C4.875 7.69708 5.605 6.90625 6.5 6.90625C7.395 6.90625 8.125 7.69708 8.125 8.66667C8.125 9.63625 7.395 10.4271 6.5 10.4271ZM6.5 7.71875C6.02 7.71875 5.625 8.14667 5.625 8.66667C5.625 9.18667 6.02 9.61458 6.5 9.61458C6.98 9.61458 7.375 9.18667 7.375 8.66667C7.375 8.14667 6.98 7.71875 6.5 7.71875Z"/>
</mask>
<path d="M6.5 10.4271C5.605 10.4271 4.875 9.63625 4.875 8.66667C4.875 7.69708 5.605 6.90625 6.5 6.90625C7.395 6.90625 8.125 7.69708 8.125 8.66667C8.125 9.63625 7.395 10.4271 6.5 10.4271ZM6.5 7.71875C6.02 7.71875 5.625 8.14667 5.625 8.66667C5.625 9.18667 6.02 9.61458 6.5 9.61458C6.98 9.61458 7.375 9.18667 7.375 8.66667C7.375 8.14667 6.98 7.71875 6.5 7.71875Z" fill="white"/>
<path d="M6.5 9.42708C6.23114 9.42708 5.875 9.16084 5.875 8.66667H3.875C3.875 10.1117 4.97886 11.4271 6.5 11.4271V9.42708ZM5.875 8.66667C5.875 8.1725 6.23114 7.90625 6.5 7.90625V5.90625C4.97886 5.90625 3.875 7.22167 3.875 8.66667H5.875ZM6.5 7.90625C6.76886 7.90625 7.125 8.1725 7.125 8.66667H9.125C9.125 7.22167 8.02114 5.90625 6.5 5.90625V7.90625ZM7.125 8.66667C7.125 9.16084 6.76886 9.42708 6.5 9.42708V11.4271C8.02114 11.4271 9.125 10.1117 9.125 8.66667H7.125ZM6.5 6.71875C5.39386 6.71875 4.625 7.67125 4.625 8.66667H6.625C6.625 8.66085 6.62716 8.66531 6.6173 8.67599C6.60663 8.68755 6.56712 8.71875 6.5 8.71875V6.71875ZM4.625 8.66667C4.625 9.66208 5.39386 10.6146 6.5 10.6146V8.61458C6.56712 8.61458 6.60663 8.64578 6.6173 8.65734C6.62716 8.66803 6.625 8.67249 6.625 8.66667H4.625ZM6.5 10.6146C7.60614 10.6146 8.375 9.66208 8.375 8.66667H6.375C6.375 8.67249 6.37284 8.66803 6.3827 8.65734C6.39337 8.64578 6.43288 8.61458 6.5 8.61458V10.6146ZM8.375 8.66667C8.375 7.67125 7.60614 6.71875 6.5 6.71875V8.71875C6.43288 8.71875 6.39337 8.68755 6.3827 8.67599C6.37284 8.66531 6.375 8.66085 6.375 8.66667H8.375Z" fill="#DCDCDC" mask="url(#path-3-inside-2_8251_14909)"/>
<mask id="path-5-inside-3_8251_14909" fill="white">
<path d="M9 12.3228H4C1.795 12.3228 1.125 11.5969 1.125 9.20817V8.12484C1.125 5.73609 1.795 5.01025 4 5.01025H9C11.205 5.01025 11.875 5.73609 11.875 8.12484V9.20817C11.875 11.5969 11.205 12.3228 9 12.3228ZM4 5.82275C2.21 5.82275 1.875 6.19109 1.875 8.12484V9.20817C1.875 11.1419 2.21 11.5103 4 11.5103H9C10.79 11.5103 11.125 11.1419 11.125 9.20817V8.12484C11.125 6.19109 10.79 5.82275 9 5.82275H4Z"/>
</mask>
<path d="M9 12.3228H4C1.795 12.3228 1.125 11.5969 1.125 9.20817V8.12484C1.125 5.73609 1.795 5.01025 4 5.01025H9C11.205 5.01025 11.875 5.73609 11.875 8.12484V9.20817C11.875 11.5969 11.205 12.3228 9 12.3228ZM4 5.82275C2.21 5.82275 1.875 6.19109 1.875 8.12484V9.20817C1.875 11.1419 2.21 11.5103 4 11.5103H9C10.79 11.5103 11.125 11.1419 11.125 9.20817V8.12484C11.125 6.19109 10.79 5.82275 9 5.82275H4Z" fill="white"/>
<path d="M9 11.3228H4V13.3228H9V11.3228ZM4 11.3228C2.94611 11.3228 2.61035 11.1345 2.47043 10.983C2.30681 10.8057 2.125 10.3799 2.125 9.20817H0.125C0.125 10.4252 0.278193 11.5567 1.00082 12.3395C1.74715 13.148 2.84889 13.3228 4 13.3228V11.3228ZM2.125 9.20817V8.12484H0.125V9.20817H2.125ZM2.125 8.12484C2.125 6.95312 2.30681 6.5273 2.47043 6.35004C2.61035 6.19846 2.94611 6.01025 4 6.01025V4.01025C2.84889 4.01025 1.74715 4.18496 1.00082 4.99348C0.278193 5.77633 0.125 6.90781 0.125 8.12484H2.125ZM4 6.01025H9V4.01025H4V6.01025ZM9 6.01025C10.0539 6.01025 10.3897 6.19846 10.5296 6.35004C10.6932 6.5273 10.875 6.95312 10.875 8.12484H12.875C12.875 6.90781 12.7218 5.77633 11.9992 4.99348C11.2528 4.18496 10.1511 4.01025 9 4.01025V6.01025ZM10.875 8.12484V9.20817H12.875V8.12484H10.875ZM10.875 9.20817C10.875 10.3799 10.6932 10.8057 10.5296 10.983C10.3897 11.1345 10.0539 11.3228 9 11.3228V13.3228C10.1511 13.3228 11.2528 13.148 11.9992 12.3395C12.7218 11.5567 12.875 10.4252 12.875 9.20817H10.875ZM4 4.82275C3.53316 4.82275 3.08555 4.8452 2.68988 4.93569C2.27809 5.02986 1.86223 5.21128 1.53076 5.5711C1.2062 5.92342 1.05296 6.34935 0.973568 6.75913C0.895443 7.16237 0.875 7.62564 0.875 8.12484H2.875C2.875 7.65716 2.89643 7.34923 2.93706 7.13954C2.97641 6.9364 3.0188 6.90766 3.00174 6.92618C2.97777 6.95219 2.98128 6.92068 3.13574 6.88536C3.30632 6.84635 3.57184 6.82275 4 6.82275V4.82275ZM0.875 8.12484V9.20817H2.875V8.12484H0.875ZM0.875 9.20817C0.875 9.70737 0.895443 10.1706 0.973568 10.5739C1.05296 10.9837 1.2062 11.4096 1.53076 11.7619C1.86223 12.1217 2.27809 12.3032 2.68988 12.3973C3.08555 12.4878 3.53316 12.5103 4 12.5103V10.5103C3.57184 10.5103 3.30632 10.4867 3.13574 10.4477C2.98128 10.4123 2.97777 10.3808 3.00174 10.4068C3.0188 10.4253 2.97641 10.3966 2.93706 10.1935C2.89643 9.98378 2.875 9.67585 2.875 9.20817H0.875ZM4 12.5103H9V10.5103H4V12.5103ZM9 12.5103C9.46684 12.5103 9.91445 12.4878 10.3101 12.3973C10.7219 12.3032 11.1378 12.1217 11.4692 11.7619C11.7938 11.4096 11.947 10.9837 12.0264 10.5739C12.1046 10.1706 12.125 9.70737 12.125 9.20817H10.125C10.125 9.67585 10.1036 9.98378 10.0629 10.1935C10.0236 10.3966 9.9812 10.4253 9.99826 10.4068C10.0222 10.3808 10.0187 10.4123 9.86426 10.4477C9.69368 10.4867 9.42816 10.5103 9 10.5103V12.5103ZM12.125 9.20817V8.12484H10.125V9.20817H12.125ZM12.125 8.12484C12.125 7.62564 12.1046 7.16237 12.0264 6.75913C11.947 6.34935 11.7938 5.92342 11.4692 5.5711C11.1378 5.21128 10.7219 5.02986 10.3101 4.93569C9.91445 4.8452 9.46684 4.82275 9 4.82275V6.82275C9.42816 6.82275 9.69368 6.84635 9.86426 6.88536C10.0187 6.92068 10.0222 6.95219 9.99826 6.92618C9.9812 6.90766 10.0236 6.9364 10.0629 7.13954C10.1036 7.34923 10.125 7.65716 10.125 8.12484H12.125ZM9 4.82275H4V6.82275H9V4.82275Z" fill="#DCDCDC" mask="url(#path-5-inside-3_8251_14909)"/>
</svg>
