<svg width="33" height="33" viewBox="0 0 33 33" fill="none" xmlns="http://www.w3.org/2000/svg">
<path d="M20.7764 2.97852H20.9551C24.2615 2.97857 26.4794 3.68838 27.8818 5.09082C29.2842 6.49331 29.9932 8.71114 29.9932 12.0176V20.9824C29.9932 24.2888 29.2841 26.5067 27.8818 27.9092C26.4794 29.3116 24.2615 30.0214 20.9551 30.0215H20.7764C17.7893 30.0215 15.6882 29.4301 14.2783 28.2793C12.9693 27.2106 12.1673 25.5854 11.8701 23.2461L11.8174 22.7686L11.8164 22.7666L11.8174 22.6807C11.8351 22.5108 11.9535 22.3639 12.123 22.3125L12.2119 22.2949H12.2148C12.4043 22.2762 12.6045 22.4125 12.667 22.6055L12.6846 22.6904C12.8913 24.9245 13.5344 26.5985 14.9111 27.6855C16.2661 28.7555 18.2138 29.1592 20.79 29.1592H20.9688C23.8081 29.1591 25.9101 28.663 27.2793 27.2939C28.6486 25.9247 29.1445 23.8221 29.1445 20.9824V12.0176C29.1445 9.178 28.6485 7.07631 27.2793 5.70703C25.9101 4.33779 23.8083 3.84183 20.9688 3.8418H20.79C18.1998 3.8418 16.2428 4.25168 14.8867 5.3418C13.5143 6.44529 12.8806 8.14203 12.6865 10.4053C12.6536 10.674 12.438 10.8368 12.2119 10.8154L12.2041 10.8145H12.1973C11.9678 10.798 11.7864 10.5928 11.8047 10.3428L11.8037 10.3418C12.0302 7.70649 12.8457 5.90645 14.2441 4.74902C15.6568 3.57987 17.7694 2.97852 20.7764 2.97852Z" stroke="#F66329" stroke-width="1.2"/>
<path d="M20.625 17.5312H4.97754C4.41379 17.5312 3.94629 17.0638 3.94629 16.5C3.94629 15.9363 4.41379 15.4688 4.97754 15.4688H20.625C21.1888 15.4688 21.6563 15.9363 21.6563 16.5C21.6563 17.0638 21.1888 17.5312 20.625 17.5312Z" fill="#F66329"/>
<path d="M8.04422 22.1373C7.78297 22.1373 7.52172 22.041 7.31547 21.8348L2.70922 17.2285C2.31047 16.8298 2.31047 16.1698 2.70922 15.771L7.31547 11.1648C7.71422 10.766 8.37422 10.766 8.77297 11.1648C9.17172 11.5635 9.17172 12.2235 8.77297 12.6223L4.89547 16.4998L8.77297 20.3773C9.17172 20.776 9.17172 21.436 8.77297 21.8348C8.58047 22.041 8.30547 22.1373 8.04422 22.1373Z" fill="#F66329"/>
</svg>
