<svg width="34" height="33" viewBox="0 0 34 33" fill="none" xmlns="http://www.w3.org/2000/svg">
<path d="M13.2178 2.25781H24.9053C26.8006 2.25781 28.3814 2.91947 29.4873 4.02539C30.5932 5.13131 31.2549 6.71206 31.2549 8.60742V15.6201C31.2548 17.3799 30.6987 18.9102 29.7061 19.9971L29.502 20.208L29.4951 20.2148C28.5977 21.1247 27.3362 21.7255 25.8721 21.9053L25.4111 21.9619V23.9521C25.4111 24.5755 25.072 25.1366 24.5332 25.4336C24.2704 25.5516 23.9933 25.6133 23.7363 25.6133C23.412 25.6132 23.0871 25.52 22.8037 25.3311L22.5283 25.7441L22.8037 25.3301L22.8008 25.3281L21.4834 24.4639H21.4844C21.2968 24.3388 21.213 24.1045 21.2705 23.9062L21.2695 23.9053C21.3843 23.5248 21.4287 23.1009 21.4287 22.6602V17.0635C21.4287 15.8321 21.0414 14.7778 20.2939 14.0303C19.5464 13.2828 18.492 12.8946 17.2607 12.8945H7.92383C7.74128 12.8945 7.5752 12.9098 7.43164 12.9229L7.31934 12.918C7.24615 12.9075 7.17622 12.883 7.11133 12.8447L7.01855 12.7773C6.92528 12.6957 6.86816 12.5712 6.86816 12.416V8.60742C6.86816 6.71206 7.52982 5.13131 8.63574 4.02539C9.74167 2.91947 11.3224 2.25781 13.2178 2.25781ZM13.2314 3.25586C11.6526 3.25587 10.3071 3.76611 9.35547 4.71777C8.40385 5.66944 7.89355 7.01488 7.89355 8.59375V11.8691H17.2744C18.8256 11.8692 20.1141 12.4102 21.0137 13.3096C21.9133 14.2092 22.455 15.4983 22.4551 17.0498V22.6465C22.4415 22.9572 22.4277 23.2269 22.3916 23.4795L22.3408 23.833L22.6514 24.0098L23.5459 24.5186L23.7891 24.6572L24.04 24.5322C24.1965 24.454 24.303 24.331 24.3604 24.1973C24.4132 24.074 24.4131 23.9668 24.4131 23.9385V21.4502C24.4131 21.1764 24.6452 20.9434 24.9189 20.9434C26.4711 20.9434 27.8418 20.4542 28.7998 19.4805L28.7988 19.4795C29.7827 18.5075 30.2568 17.1539 30.2568 15.6064V8.59375C30.2568 7.01484 29.7466 5.66945 28.7949 4.71777C27.8432 3.7661 26.4979 3.25586 24.9189 3.25586H13.2314Z" stroke="#F66329" stroke-width="1.05"/>
<path d="M8.84626 31.2812C8.54376 31.2812 8.22751 31.2125 7.93876 31.0613C7.29251 30.7175 6.89374 30.0575 6.89374 29.315V28.27C5.68374 28.0775 4.61125 27.5687 3.81376 26.7712C2.76876 25.7262 2.21875 24.2962 2.21875 22.6462V17.05C2.21875 13.9425 4.25374 11.66 7.27874 11.3713C7.49874 11.3575 7.70499 11.3438 7.92499 11.3438H17.2613C20.6163 11.3438 22.9675 13.695 22.9675 17.05V22.6462C22.9675 23.2512 22.8987 23.815 22.7475 24.3238C22.1287 26.7988 20.025 28.3525 17.2613 28.3525H13.8375L9.94624 30.9375C9.61624 31.1712 9.23126 31.2812 8.84626 31.2812ZM7.92499 13.4062C7.75999 13.4062 7.60875 13.42 7.4575 13.4338C5.4775 13.6125 4.28125 14.9738 4.28125 17.05V22.6462C4.28125 23.7462 4.625 24.6675 5.27125 25.3137C5.90375 25.9462 6.82499 26.29 7.92499 26.29C8.48874 26.29 8.95624 26.7575 8.95624 27.3212V29.1225L12.9438 26.4688C13.1088 26.3588 13.315 26.29 13.5213 26.29H17.2613C19.0763 26.29 20.355 25.3825 20.7537 23.7875C20.85 23.4437 20.905 23.0587 20.905 22.6462V17.05C20.905 14.8088 19.5025 13.4062 17.2613 13.4062H7.92499Z" fill="#F66329"/>
</svg>
