<svg width="24" height="24" viewBox="0 0 24 24" fill="none" xmlns="http://www.w3.org/2000/svg">
<path d="M4 10H8C9.1 10 10 9.1 10 8V4C10 3.4 9.6 3 9 3C8.4 3 8 3.4 8 4V8H4C3.4 8 3 8.4 3 9C3 9.6 3.4 10 4 10Z" fill="white"/>
<path d="M16 10H20C20.6 10 21 9.6 21 9C21 8.4 20.6 8 20 8H16V4C16 3.4 15.6 3 15 3C14.4 3 14 3.4 14 4V8C14 9.1 14.9 10 16 10Z" fill="white"/>
<path d="M15 21C15.6 21 16 20.6 16 20V16H20C20.6 16 21 15.6 21 15C21 14.4 20.6 14 20 14H16C14.9 14 14 14.9 14 16V20C14 20.6 14.4 21 15 21Z" fill="white"/>
<path d="M4 16H8V20C8 20.6 8.4 21 9 21C9.6 21 10 20.6 10 20V16C10 14.9 9.1 14 8 14H4C3.4 14 3 14.4 3 15C3 15.6 3.4 16 4 16Z" fill="white"/>
</svg>
