<svg width="34" height="33" viewBox="0 0 34 33" fill="none" xmlns="http://www.w3.org/2000/svg">
<path d="M7.375 13.2441C9.17505 13.2441 10.6309 14.6999 10.6309 16.5C10.6309 18.3001 9.17505 19.7559 7.375 19.7559C5.57495 19.7559 4.11914 18.3001 4.11914 16.5C4.11914 14.6999 5.57495 13.2441 7.375 13.2441ZM7.375 14.2559C6.1363 14.2559 5.13086 15.2613 5.13086 16.5C5.13086 17.7387 6.1363 18.7441 7.375 18.7441C8.6137 18.7441 9.61914 17.7387 9.61914 16.5C9.61914 15.2613 8.6137 14.2559 7.375 14.2559Z" stroke="#F66329" stroke-width="1.05"/>
<path d="M26.625 20.2812C24.535 20.2812 22.8438 18.59 22.8438 16.5C22.8438 14.41 24.535 12.7188 26.625 12.7188C28.715 12.7188 30.4063 14.41 30.4063 16.5C30.4063 18.59 28.715 20.2812 26.625 20.2812ZM26.625 14.7812C25.6763 14.7812 24.9063 15.5512 24.9063 16.5C24.9063 17.4487 25.6763 18.2187 26.625 18.2187C27.5738 18.2187 28.3438 17.4487 28.3438 16.5C28.3438 15.5512 27.5738 14.7812 26.625 14.7812Z" fill="#F66329"/>
<path d="M17 20.2812C14.91 20.2812 13.2188 18.59 13.2188 16.5C13.2188 14.41 14.91 12.7188 17 12.7188C19.09 12.7188 20.7812 14.41 20.7812 16.5C20.7812 18.59 19.09 20.2812 17 20.2812ZM17 14.7812C16.0512 14.7812 15.2812 15.5512 15.2812 16.5C15.2812 17.4487 16.0512 18.2187 17 18.2187C17.9487 18.2187 18.7187 17.4487 18.7187 16.5C18.7187 15.5512 17.9487 14.7812 17 14.7812Z" fill="#F66329"/>
</svg>
