<svg width="22" height="22" viewBox="0 0 22 22" fill="none" xmlns="http://www.w3.org/2000/svg">
<path d="M18.4865 3.51349L18.4887 3.51563C19.1167 4.13648 19.3623 5.02153 19.1449 5.88392L19.1446 5.88505L17.0009 14.4688L17.0007 14.4694C16.6892 15.7233 15.7172 16.6884 14.4692 17.0004L5.88553 19.1441L5.87699 19.1463L5.86852 19.1487C5.68124 19.2022 5.47792 19.2248 5.26899 19.2248C4.62345 19.2248 3.99415 18.9669 3.51255 18.4933C2.88268 17.8625 2.63851 16.9766 2.85557 16.1156L2.85585 16.1145L4.99957 7.53084C4.99958 7.5308 4.99959 7.53075 4.9996 7.53071C5.31165 6.28271 6.27674 5.31083 7.5306 4.99926L7.53132 4.99908L16.1063 2.85533L16.1073 2.85508C16.9689 2.63786 17.8556 2.88256 18.4865 3.51349ZM17.5102 14.596L19.654 6.01225L14.5965 17.5098C16.0315 17.151 17.1515 16.0398 17.5102 14.596ZM7.08024 10.9998C7.08024 13.1622 8.83779 14.9198 11.0002 14.9198C13.1627 14.9198 14.9202 13.1622 14.9202 10.9998C14.9202 8.83731 13.1627 7.07975 11.0002 7.07975C8.83779 7.07975 7.08024 8.83731 7.08024 10.9998Z" stroke="#F66329" stroke-width="1.05"/>
<ellipse cx="11" cy="11" rx="4" ry="3.5" fill="#F66329"/>
</svg>
