<svg width="26" height="27" viewBox="0 0 26 27" fill="none" xmlns="http://www.w3.org/2000/svg">
<path d="M12.9998 12.1017C11.8948 12.1017 10.7898 11.9067 9.73899 11.5275C9.31649 11.3759 9.09982 10.91 9.25149 10.4875C9.41399 10.065 9.87982 9.84836 10.3023 10C12.0465 10.6284 13.964 10.6284 15.7082 10C16.1307 9.84836 16.5965 10.065 16.7482 10.4875C16.8998 10.91 16.6832 11.3759 16.2607 11.5275C15.2098 11.9067 14.1048 12.1017 12.9998 12.1017Z" fill="white"/>
<path d="M20.6582 25.6105C20.1057 25.6105 19.499 25.448 18.914 25.1122L13.6274 22.1763C13.3132 22.003 12.6957 22.003 12.3815 22.1763L7.09487 25.1122C6.02237 25.708 4.9282 25.773 4.09404 25.2747C3.25987 24.7872 2.7832 23.8013 2.7832 22.5772V7.31301C2.7832 4.56135 5.0257 2.31885 7.77737 2.31885H18.2315C20.9832 2.31885 23.2257 4.56135 23.2257 7.31301V22.5772C23.2257 23.8013 22.749 24.7872 21.9149 25.2747C21.5357 25.5022 21.1024 25.6105 20.6582 25.6105ZM12.999 20.4213C13.5082 20.4213 14.0065 20.5297 14.4074 20.7572L19.694 23.693C20.2465 24.0072 20.7557 24.0722 21.0807 23.8772C21.4057 23.6822 21.5899 23.2163 21.5899 22.5772V7.31301C21.5899 5.46051 20.0732 3.94385 18.2207 3.94385H7.77737C5.92487 3.94385 4.4082 5.46051 4.4082 7.31301V22.5772C4.4082 23.2163 4.59237 23.693 4.91737 23.8772C5.24237 24.0613 5.7407 24.0072 6.30404 23.693L11.5907 20.7572C11.9915 20.5297 12.4899 20.4213 12.999 20.4213Z" fill="white"/>
<path d="M20.6582 25.6105C20.1057 25.6105 19.499 25.448 18.914 25.1122L13.6274 22.1763C13.3132 22.003 12.6957 22.003 12.3815 22.1763L7.09487 25.1122C6.02237 25.708 4.9282 25.773 4.09404 25.2747C3.25987 24.7872 2.7832 23.8013 2.7832 22.5772V7.31301C2.7832 4.56135 5.0257 2.31885 7.77737 2.31885H18.2315C20.9832 2.31885 23.2257 4.56135 23.2257 7.31301V22.5772C23.2257 23.8013 22.749 24.7872 21.9149 25.2747C21.5357 25.5022 21.1024 25.6105 20.6582 25.6105ZM12.999 20.4213C13.5082 20.4213 14.0065 20.5297 14.4074 20.7572L19.694 23.693C20.2465 24.0072 20.7557 24.0722 21.0807 23.8772C21.4057 23.6822 21.5899 23.2163 21.5899 22.5772V7.31301C21.5899 5.46051 20.0732 3.94385 18.2207 3.94385H7.77737C5.92487 3.94385 4.4082 5.46051 4.4082 7.31301V22.5772C4.4082 23.2163 4.59237 23.693 4.91737 23.8772C5.24237 24.0613 5.7407 24.0072 6.30404 23.693L11.5907 20.7572C11.9915 20.5297 12.4899 20.4213 12.999 20.4213Z" fill="white"/>
</svg>
