<svg width="24" height="24" viewBox="0 0 24 24" fill="none" xmlns="http://www.w3.org/2000/svg">
<path d="M20.986 11.492C20.986 13.3693 20.4293 15.2044 19.3863 16.7654C18.3434 18.3263 16.861 19.5429 15.1266 20.2614C13.3922 20.9798 11.4838 21.1679 9.64253 20.8017C7.80129 20.4355 6.10997 19.5316 4.78245 18.2042C3.45493 16.8768 2.55083 15.1856 2.18447 13.3444C1.8181 11.5032 2.00593 9.59472 2.72421 7.86026C3.44248 6.12581 4.65894 4.64329 6.21976 3.60018C7.78058 2.55706 9.61566 2.0002 11.493 2C12.7395 1.99987 13.974 2.24529 15.1257 2.72225C16.2774 3.19921 17.3239 3.89836 18.2055 4.77979C19.087 5.66122 19.7862 6.70765 20.2633 7.85934C20.7404 9.01103 20.986 10.2454 20.986 11.492Z" stroke="#999999" stroke-width="1.5" stroke-linecap="round" stroke-linejoin="round"/>
<path d="M22 21.9997L19.5 19.7217" stroke="#999999" stroke-width="1.5" stroke-linecap="round" stroke-linejoin="round"/>
</svg>
