<svg width="33" height="33" viewBox="0 0 33 33" fill="none" xmlns="http://www.w3.org/2000/svg">
<path d="M15.125 2.31836C22.1911 2.31836 27.9316 8.05887 27.9316 15.125C27.9316 22.1911 22.1911 27.9316 15.125 27.9316C8.05887 27.9316 2.31836 22.1911 2.31836 15.125C2.31836 8.05887 8.05887 2.31836 15.125 2.31836ZM15.125 3.18164C8.53738 3.18164 3.18164 8.53738 3.18164 15.125C3.18164 21.7126 8.53738 27.0684 15.125 27.0684C21.7126 27.0684 27.0684 21.7126 27.0684 15.125C27.0684 8.53738 21.7126 3.18164 15.125 3.18164Z" stroke="#F66329" stroke-width="1.2"/>
<path d="M27.7195 31.3363C27.6095 31.3363 27.4995 31.3225 27.4033 31.3088C26.757 31.2263 25.5883 30.7863 24.9283 28.82C24.5845 27.7888 24.7083 26.7575 25.272 25.9738C25.8358 25.19 26.7845 24.75 27.8708 24.75C29.2733 24.75 30.3733 25.2863 30.8683 26.235C31.3633 27.1838 31.2258 28.3938 30.442 29.5625C29.4658 31.0338 28.407 31.3363 27.7195 31.3363ZM26.8945 28.1738C27.1283 28.8888 27.4583 29.2463 27.6783 29.2738C27.8983 29.3013 28.3108 29.04 28.737 28.4213C29.1358 27.83 29.1633 27.4038 29.067 27.2113C28.9708 27.0188 28.5858 26.8125 27.8708 26.8125C27.4445 26.8125 27.1283 26.95 26.9495 27.1838C26.7845 27.4175 26.757 27.775 26.8945 28.1738Z" fill="#F66329"/>
</svg>
