<svg width="25" height="24" viewBox="0 0 25 24" fill="none" xmlns="http://www.w3.org/2000/svg">
<path d="M11.499 1.77539C11.6191 1.77539 11.7236 1.87995 11.7236 2C11.7236 2.12005 11.6191 2.22461 11.499 2.22461C6.65907 2.22461 2.72363 6.16005 2.72363 11C2.72363 15.8399 6.65907 19.7754 11.499 19.7754C16.339 19.7754 20.2744 15.8399 20.2744 11C20.2744 10.8799 20.379 10.7754 20.499 10.7754C20.6191 10.7754 20.7236 10.8799 20.7236 11C20.7236 16.0901 16.5891 20.2246 11.499 20.2246C6.40897 20.2246 2.27441 16.0901 2.27441 11C2.27441 5.90995 6.40897 1.77539 11.499 1.77539Z" stroke="#C9C9C9" stroke-width="1.05"/>
<path d="M20.5 5.75H14.5C14.09 5.75 13.75 5.41 13.75 5C13.75 4.59 14.09 4.25 14.5 4.25H20.5C20.91 4.25 21.25 4.59 21.25 5C21.25 5.41 20.91 5.75 20.5 5.75Z" fill="#C9C9C9"/>
<path d="M17.5 8.75H14.5C14.09 8.75 13.75 8.41 13.75 8C13.75 7.59 14.09 7.25 14.5 7.25H17.5C17.91 7.25 18.25 7.59 18.25 8C18.25 8.41 17.91 8.75 17.5 8.75Z" fill="#C9C9C9"/>
<path d="M20.6591 22.79C20.5791 22.79 20.4991 22.78 20.4291 22.77C19.9591 22.71 19.1091 22.39 18.6291 20.96C18.3791 20.21 18.4691 19.46 18.8791 18.89C19.2891 18.32 19.9791 18 20.7691 18C21.7891 18 22.5891 18.39 22.9491 19.08C23.3091 19.77 23.2091 20.65 22.6391 21.5C21.9291 22.57 21.1591 22.79 20.6591 22.79ZM20.0591 20.49C20.2291 21.01 20.4691 21.27 20.6291 21.29C20.7891 21.31 21.0891 21.12 21.3991 20.67C21.6891 20.24 21.7091 19.93 21.6391 19.79C21.5691 19.65 21.2891 19.5 20.7691 19.5C20.4591 19.5 20.2291 19.6 20.0991 19.77C19.9791 19.94 19.9591 20.2 20.0591 20.49Z" fill="#C9C9C9"/>
</svg>
