<svg width="20" height="21" viewBox="0 0 20 21" fill="none" xmlns="http://www.w3.org/2000/svg">
<path d="M9.58268 18.139C4.87435 18.139 1.04102 14.3057 1.04102 9.59733C1.04102 4.889 4.87435 1.05566 9.58268 1.05566C14.291 1.05566 18.1243 4.889 18.1243 9.59733C18.1243 14.3057 14.291 18.139 9.58268 18.139ZM9.58268 2.30566C5.55768 2.30566 2.29102 5.58066 2.29102 9.59733C2.29102 13.614 5.55768 16.889 9.58268 16.889C13.6077 16.889 16.8743 13.614 16.8743 9.59733C16.8743 5.58066 13.6077 2.30566 9.58268 2.30566Z" fill="#828282"/>
<path d="M18.3326 18.9722C18.1742 18.9722 18.0159 18.9139 17.8909 18.7889L16.2242 17.1222C15.9826 16.8805 15.9826 16.4805 16.2242 16.2389C16.4659 15.9972 16.8659 15.9972 17.1076 16.2389L18.7742 17.9055C19.0159 18.1472 19.0159 18.5472 18.7742 18.7889C18.6492 18.9139 18.4909 18.9722 18.3326 18.9722Z" fill="#828282"/>
</svg>
