<svg width="18" height="19" viewBox="0 0 18 19" fill="none" xmlns="http://www.w3.org/2000/svg">
<path d="M12.748 5.01074L12.75 5.01172C14.3082 6.08992 15.3101 7.78688 15.5137 9.6582V9.65918C15.5157 9.68001 15.5097 9.6976 15.499 9.71094C15.4909 9.72105 15.4793 9.72794 15.4629 9.73242C15.4448 9.73182 15.4208 9.72041 15.4072 9.69531L15.3975 9.66602C15.1991 7.83172 14.2081 6.17036 12.6846 5.11523H12.6855C12.6571 5.09517 12.648 5.06032 12.6641 5.03027C12.6744 5.01645 12.6891 5.00711 12.707 5.00391C12.7164 5.00224 12.7246 5.0025 12.7314 5.00391L12.748 5.01074Z" fill="white" stroke="white"/>
<path d="M5.34863 5.03711L5.36719 5.05469C5.38315 5.07754 5.38244 5.10582 5.36914 5.12695L5.35254 5.14453C3.93394 6.14365 2.98684 7.67236 2.71973 9.375L2.67578 9.71777L2.6748 9.72949C2.67429 9.73544 2.67143 9.74477 2.66016 9.75488C2.64813 9.76566 2.63265 9.77142 2.61816 9.77148H2.60938C2.59421 9.76758 2.58014 9.76029 2.56934 9.74707C2.5567 9.73144 2.55145 9.71425 2.55273 9.69824C2.7406 7.82733 3.73555 6.13523 5.27637 5.04004C5.29919 5.02393 5.32744 5.02389 5.34863 5.03711Z" fill="white" stroke="white"/>
<path d="M6.16895 16.0781L6.17188 16.0791C7.82141 16.9115 9.78254 16.9778 11.4834 16.2783L11.8193 16.1289L11.8213 16.1279C11.8331 16.1222 11.848 16.1199 11.8652 16.126C11.874 16.1291 11.8814 16.1341 11.8877 16.1396L11.9033 16.1592C11.9091 16.171 11.9103 16.1859 11.9043 16.2031C11.8982 16.2204 11.8865 16.2329 11.8721 16.2402C10.9804 16.6721 10.0349 16.8877 9.04492 16.8877C8.01569 16.8877 7.03592 16.6529 6.11523 16.1934H6.11621C6.08822 16.179 6.07727 16.1537 6.0791 16.1309L6.08496 16.1094C6.09938 16.0813 6.12456 16.0703 6.14746 16.0723L6.16895 16.0781Z" fill="white" stroke="white"/>
<path d="M9.0459 1.96582C10.2322 1.96582 11.1933 2.92694 11.1934 4.11328C11.1934 5.29872 10.2257 6.26074 9.0459 6.26074C7.85956 6.26072 6.89844 5.29963 6.89844 4.11328C6.89846 2.92695 7.85957 1.96584 9.0459 1.96582ZM9.0459 2.09863C7.92977 2.09865 7.02344 3.00496 7.02344 4.12109C7.02359 5.2371 7.92987 6.14353 9.0459 6.14355C10.1619 6.14355 11.0682 5.23711 11.0684 4.12109C11.0684 3.00335 10.1529 2.09863 9.0459 2.09863Z" fill="white" stroke="white"/>
<path d="M3.62211 15.9327C2.15961 15.9327 0.974609 14.7477 0.974609 13.2852C0.974609 11.8302 2.15961 10.6377 3.62211 10.6377C5.08461 10.6377 6.26961 11.8227 6.26961 13.2852C6.26961 14.7402 5.08461 15.9327 3.62211 15.9327ZM3.62211 11.7627C2.78211 11.7627 2.09961 12.4452 2.09961 13.2852C2.09961 14.1252 2.78211 14.8077 3.62211 14.8077C4.46211 14.8077 5.14461 14.1252 5.14461 13.2852C5.14461 12.4452 4.46211 11.7627 3.62211 11.7627Z" fill="white"/>
<path d="M14.378 15.9327C12.9155 15.9327 11.7305 14.7477 11.7305 13.2852C11.7305 11.8302 12.9155 10.6377 14.378 10.6377C15.8405 10.6377 17.0255 11.8227 17.0255 13.2852C17.018 14.7402 15.833 15.9327 14.378 15.9327ZM14.378 11.7627C13.538 11.7627 12.8555 12.4452 12.8555 13.2852C12.8555 14.1252 13.538 14.8077 14.378 14.8077C15.218 14.8077 15.9005 14.1252 15.9005 13.2852C15.893 12.4452 15.218 11.7627 14.378 11.7627Z" fill="white"/>
</svg>
