<svg width="113" height="112" viewBox="0 0 113 112" fill="none" xmlns="http://www.w3.org/2000/svg">
<path d="M112.5 58.625C112.5 62.5406 111.559 66.1719 109.678 69.4969C107.797 72.8219 105.281 75.425 102.109 77.2406C102.197 77.8313 102.241 78.75 102.241 79.9969C102.241 85.925 100.25 90.9562 96.3125 95.1125C92.3531 99.2906 87.5844 101.369 82.0062 101.369C79.5125 101.369 77.1281 100.909 74.875 99.9906C73.125 103.578 70.6094 106.466 67.3063 108.675C64.025 110.906 60.4156 112 56.5 112C52.4969 112 48.8656 110.928 45.6281 108.741C42.3688 106.575 39.875 103.666 38.125 99.9906C35.8719 100.909 33.5094 101.369 30.9937 101.369C25.4156 101.369 20.625 99.2906 16.6219 95.1125C12.6187 90.9562 10.6281 85.9031 10.6281 79.9969C10.6281 79.3406 10.7156 78.4219 10.8688 77.2406C7.69688 75.4031 5.18125 72.8219 3.3 69.4969C1.44063 66.1719 0.5 62.5406 0.5 58.625C0.5 54.4688 1.55 50.6406 3.62812 47.1844C5.70625 43.7281 8.50625 41.1688 12.0062 39.5063C11.0875 37.0125 10.6281 34.4969 10.6281 32.0031C10.6281 26.0969 12.6187 21.0437 16.6219 16.8875C20.625 12.7312 25.4156 10.6312 30.9937 10.6312C33.4875 10.6312 35.8719 11.0906 38.125 12.0094C39.875 8.42188 42.3906 5.53438 45.6938 3.325C48.975 1.11562 52.5844 0 56.5 0C60.4156 0 64.025 1.11563 67.3063 3.30313C70.5875 5.5125 73.125 8.4 74.875 11.9875C77.1281 11.0687 79.4906 10.6094 82.0062 10.6094C87.5844 10.6094 92.3531 12.6875 96.3125 16.8656C100.272 21.0437 102.241 26.075 102.241 31.9812C102.241 34.7375 101.825 37.2313 100.994 39.4844C104.494 41.1469 107.294 43.7063 109.372 47.1625C111.45 50.6406 112.5 54.4688 112.5 58.625ZM54.1156 75.4906L77.2375 40.8625C77.8281 39.9438 78.0031 38.9375 77.8063 37.8656C77.5875 36.7938 77.0406 35.9406 76.1219 35.3719C75.2031 34.7812 74.1969 34.5844 73.125 34.7375C72.0312 34.9125 71.1562 35.4375 70.5 36.3563L50.1344 66.9813L40.75 57.6187C39.9188 56.7875 38.9562 56.3937 37.8844 56.4375C36.7906 56.4813 35.85 56.875 35.0187 57.6187C34.275 58.3625 33.9031 59.3031 33.9031 60.4406C33.9031 61.5562 34.275 62.4969 35.0187 63.2625L47.9031 76.1469L48.5375 76.65C49.2812 77.1531 50.0469 77.3937 50.7906 77.3937C52.2562 77.3719 53.3719 76.7594 54.1156 75.4906Z" fill="#38DF85"/>
</svg>
