<svg width="33" height="33" viewBox="0 0 33 33" fill="none" xmlns="http://www.w3.org/2000/svg">
<path d="M18.8545 6.24609C20.6466 5.12947 22.2893 4.92505 23.5703 5.50293L23.8223 5.62988C25.1362 6.35749 25.9296 7.9093 25.9297 10.1748V22.7842C25.9296 24.8937 25.2212 26.4043 24.0586 27.1846L23.8203 27.3301L23.8096 27.3369C23.2958 27.6405 22.7022 27.7861 22.0684 27.7861C21.2251 27.7861 20.2775 27.5235 19.2939 26.9775L18.8701 26.7266L18.8691 26.7256L14.8535 24.209L14.8447 24.2041L14.7119 24.1289C14.3952 23.9649 14.0364 23.8673 13.668 23.8672H11.6875C10.1173 23.8672 8.9789 23.4379 8.23242 22.6914C7.48595 21.9449 7.05664 20.8065 7.05664 19.2363V13.7363C7.05664 12.1661 7.48595 11.0277 8.23242 10.2812C8.9789 9.53478 10.1173 9.10547 11.6875 9.10547H13.6533C14.0743 9.10547 14.4826 8.97688 14.8301 8.76855L14.8311 8.76953L14.8398 8.76367L18.8555 6.24707L18.8545 6.24609ZM23.3418 6.54004C22.3162 5.96848 20.9665 6.22166 19.6582 6.97461L19.3965 7.13184L15.3828 9.64746C14.8565 9.96953 14.2643 10.1455 13.6533 10.1455H12.2129V10.1309H11.6875C10.542 10.1309 9.60032 10.3724 8.95508 11.0176C8.30985 11.6628 8.06837 12.6045 8.06836 13.75V19.25C8.06836 20.3955 8.30987 21.3372 8.95508 21.9824C9.60032 22.6277 10.542 22.8691 11.6875 22.8691H13.6533C14.1947 22.8691 14.7137 22.9957 15.1816 23.248L15.3789 23.3643L15.3828 23.3662L19.3975 25.8828L19.4004 25.8838C20.6956 26.6849 22.0629 27.0392 23.1318 26.5771L23.3418 26.4736C24.4336 25.8651 24.9316 24.4432 24.9316 22.8252V10.1885C24.9316 8.56346 24.4368 7.13643 23.3408 6.54004H23.3418Z" stroke="#F66329" stroke-width="1.05"/>
</svg>
