<svg width="22" height="22" viewBox="0 0 22 22" fill="none" xmlns="http://www.w3.org/2000/svg">
<path d="M6.41732 16.2705H4.58398C2.36565 16.2705 1.14648 15.0513 1.14648 12.833V9.16635C1.14648 6.94801 2.36565 5.72885 4.58398 5.72885H5.89482C6.10565 5.72885 6.31648 5.66468 6.49982 5.55468L9.17649 3.87718C10.5148 3.04301 11.8165 2.88718 12.8432 3.45551C13.8698 4.02385 14.429 5.20635 14.429 6.79218V7.67218C14.429 8.04801 14.1173 8.35968 13.7415 8.35968C13.3657 8.35968 13.054 8.04801 13.054 7.67218V6.79218C13.054 5.74718 12.7332 4.96801 12.174 4.66551C11.6148 4.35385 10.7898 4.49135 9.90065 5.05051L7.22398 6.71885C6.82982 6.97551 6.36232 7.10385 5.89482 7.10385H4.58398C3.13565 7.10385 2.52148 7.71801 2.52148 9.16635V12.833C2.52148 14.2813 3.13565 14.8955 4.58398 14.8955H6.41732C6.79315 14.8955 7.10482 15.2072 7.10482 15.583C7.10482 15.9588 6.79315 16.2705 6.41732 16.2705Z" fill="white"/>
<path d="M11.5066 18.8749C10.7824 18.8749 9.9849 18.6182 9.1874 18.1141C8.86657 17.9124 8.76573 17.4907 8.9674 17.1699C9.16907 16.8491 9.59073 16.7482 9.91157 16.9499C10.8007 17.4999 11.6257 17.6466 12.1849 17.3349C12.7441 17.0232 13.0649 16.2441 13.0649 15.2082V11.8716C13.0649 11.4957 13.3766 11.1841 13.7524 11.1841C14.1282 11.1841 14.4399 11.4957 14.4399 11.8716V15.2082C14.4399 16.7849 13.8716 17.9766 12.8541 18.5449C12.4416 18.7649 11.9832 18.8749 11.5066 18.8749Z" fill="white"/>
<path d="M16.5003 15.354C16.3536 15.354 16.2161 15.3081 16.0877 15.2165C15.7852 14.9873 15.7211 14.5565 15.9503 14.254C17.1053 12.714 17.3528 10.6698 16.6103 8.90064C16.4636 8.5523 16.6286 8.14897 16.9769 8.0023C17.3253 7.85563 17.7286 8.02064 17.8753 8.36897C18.8103 10.5873 18.4894 13.1631 17.0503 15.0881C16.9128 15.2623 16.7111 15.354 16.5003 15.354Z" fill="white"/>
<path d="M18.178 17.6458C18.0313 17.6458 17.8938 17.5999 17.7655 17.5083C17.463 17.2791 17.3988 16.8483 17.628 16.5458C19.5897 13.9333 20.0205 10.4316 18.7555 7.41577C18.6088 7.06744 18.7738 6.66411 19.1222 6.51744C19.4797 6.37077 19.8738 6.53577 20.0205 6.88411C21.478 10.3491 20.983 14.3641 18.728 17.3708C18.5997 17.5541 18.3888 17.6458 18.178 17.6458Z" fill="white"/>
<path d="M1.8356 20.854C1.66143 20.854 1.48727 20.7898 1.34977 20.6523C1.08393 20.3865 1.08393 19.9465 1.34977 19.6807L19.6831 1.34732C19.9489 1.08149 20.3889 1.08149 20.6548 1.34732C20.9206 1.61316 20.9206 2.05316 20.6548 2.31899L2.32143 20.6523C2.18393 20.7898 2.00977 20.854 1.8356 20.854Z" fill="white"/>
</svg>
