<svg width="25" height="24" viewBox="0 0 25 24" fill="none" xmlns="http://www.w3.org/2000/svg">
<path d="M12.5 2C10.5222 2 8.58879 2.58649 6.9443 3.6853C5.29981 4.78412 4.01809 6.3459 3.26121 8.17317C2.50433 10.0004 2.3063 12.0111 2.69215 13.9509C3.078 15.8907 4.03041 17.6725 5.42894 19.0711C6.82746 20.4696 8.60929 21.422 10.5491 21.8079C12.4889 22.1937 14.4996 21.9957 16.3268 21.2388C18.1541 20.4819 19.7159 19.2002 20.8147 17.5557C21.9135 15.9112 22.5 13.9778 22.5 12C22.4958 9.34913 21.4408 6.80805 19.5664 4.93361C17.692 3.05916 15.1509 2.00423 12.5 2ZM11.75 8C11.75 7.80109 11.829 7.61032 11.9697 7.46967C12.1103 7.32902 12.3011 7.25 12.5 7.25C12.6989 7.25 12.8897 7.32902 13.0303 7.46967C13.171 7.61032 13.25 7.80109 13.25 8V13C13.25 13.1989 13.171 13.3897 13.0303 13.5303C12.8897 13.671 12.6989 13.75 12.5 13.75C12.3011 13.75 12.1103 13.671 11.9697 13.5303C11.829 13.3897 11.75 13.1989 11.75 13V8ZM13.42 16.38C13.3717 16.5024 13.3004 16.6144 13.21 16.71C13.1127 16.7983 13.0011 16.8693 12.88 16.92C12.7603 16.9727 12.6308 17 12.5 17C12.3692 17 12.2398 16.9727 12.12 16.92C11.9989 16.8693 11.8873 16.7983 11.79 16.71C11.6996 16.6144 11.6283 16.5024 11.58 16.38C11.5272 16.2603 11.5 16.1309 11.5 16C11.5 15.8691 11.5272 15.7397 11.58 15.62C11.6249 15.4959 11.6966 15.3832 11.7899 15.2899C11.8832 15.1966 11.9959 15.1249 12.12 15.08C12.3635 14.98 12.6365 14.98 12.88 15.08C13.0041 15.1249 13.1168 15.1966 13.2101 15.2899C13.3034 15.3832 13.3751 15.4959 13.42 15.62C13.4728 15.7397 13.5001 15.8691 13.5001 16C13.5001 16.1309 13.4728 16.2603 13.42 16.38Z" fill="#FFC107"/>
</svg>
