<svg width="24" height="24" viewBox="0 0 24 24" fill="none" xmlns="http://www.w3.org/2000/svg">
<path d="M11.999 22.75C6.06902 22.75 1.24902 17.93 1.24902 12C1.24902 6.07 6.06902 1.25 11.999 1.25C17.929 1.25 22.749 6.07 22.749 12C22.749 17.93 17.929 22.75 11.999 22.75ZM11.999 2.75C6.89902 2.75 2.74902 6.9 2.74902 12C2.74902 17.1 6.89902 21.25 11.999 21.25C17.099 21.25 21.249 17.1 21.249 12C21.249 6.9 17.099 2.75 11.999 2.75Z" fill="#FF3257"/>
<path d="M16 12.75H8C7.59 12.75 7.25 12.41 7.25 12C7.25 11.59 7.59 11.25 8 11.25H16C16.41 11.25 16.75 11.59 16.75 12C16.75 12.41 16.41 12.75 16 12.75Z" fill="#FF3257"/>
</svg>
