<svg xmlns="http://www.w3.org/2000/svg" width="171.372" height="51.888" viewBox="0 0 171.372 51.888">
  <g id="Group_493" data-name="Group 493" transform="translate(-3.864 -14.152)">
    <path id="Path_32632" data-name="Path 32632" d="M3.864,55V16.36H13.8V31.871L27.269,16.36H38.088l-14.352,15.9L39.192,55H27.6L17,38.716l-3.2,3.533V55Zm49.665.331a17.118,17.118,0,0,1-5.8-.828,6.125,6.125,0,0,1-3.367-3.146,16.751,16.751,0,0,1-1.049-6.679V16.36h8.5V43.408a7.374,7.374,0,0,0,.718,3.809q.773,1.049,3.146,1.049h1.1l.883-.11v7.01q-.552.055-1.214.055-.607.055-1.38.055Q54.357,55.331,53.529,55.331ZM62.635,55V25.744h8.5V55Zm4.25-32.016a5.271,5.271,0,0,1-3.7-1.214,4.34,4.34,0,0,1-1.27-3.2,4.159,4.159,0,0,1,1.27-3.146,5.127,5.127,0,0,1,3.7-1.27,4.931,4.931,0,0,1,3.643,1.27,4.072,4.072,0,0,1,1.325,3.146,4.247,4.247,0,0,1-1.325,3.2A5.066,5.066,0,0,1,66.885,22.984Zm10.9,43.056v-40.3h7.838v3.974a11.108,11.108,0,0,1,3.422-3.2,10.3,10.3,0,0,1,5.686-1.49q6.182,0,9.384,3.643t3.2,10.874v1.1a19.956,19.956,0,0,1-1.545,8.335,11.263,11.263,0,0,1-4.361,5.023,12.611,12.611,0,0,1-6.679,1.711,10.7,10.7,0,0,1-4.747-1.1,10.261,10.261,0,0,1-3.7-3.312V66.04Zm14.9-17.333a5.174,5.174,0,0,0,4.2-2.042,9.3,9.3,0,0,0,1.711-6.017v-1.1q0-3.809-1.656-5.63a5.308,5.308,0,0,0-4.25-1.877,6.969,6.969,0,0,0-3.257.773,5.566,5.566,0,0,0-2.318,2.208,7.531,7.531,0,0,0-.828,3.7v2.76a8.668,8.668,0,0,0,.828,3.919,6,6,0,0,0,5.575,3.312Z" fill="#f66329"/>
    <path id="Path_32633" data-name="Path 32633" d="M112.295,66.04v-40.3h7.839v3.974a11.106,11.106,0,0,1,3.422-3.2,10.3,10.3,0,0,1,5.686-1.49q6.182,0,9.384,3.643t3.2,10.874v1.1a19.956,19.956,0,0,1-1.545,8.335,11.263,11.263,0,0,1-4.361,5.023,12.611,12.611,0,0,1-6.679,1.711,10.692,10.692,0,0,1-4.747-1.1,10.266,10.266,0,0,1-3.7-3.312V66.04Zm14.9-17.333a5.176,5.176,0,0,0,4.2-2.042,9.307,9.307,0,0,0,1.711-6.017v-1.1q0-3.809-1.656-5.63a5.308,5.308,0,0,0-4.251-1.877,6.966,6.966,0,0,0-3.256.773,5.567,5.567,0,0,0-2.319,2.208,7.531,7.531,0,0,0-.828,3.7v2.76a8.668,8.668,0,0,0,.828,3.919,6,6,0,0,0,5.575,3.312Zm31.091,7.01a12.793,12.793,0,0,1-6.679-1.711,11.257,11.257,0,0,1-4.361-5.023,19.939,19.939,0,0,1-1.546-8.335v-1.1A18.794,18.794,0,0,1,147.2,31.6a10.646,10.646,0,0,1,4.3-4.913,13.167,13.167,0,0,1,6.79-1.656,9.951,9.951,0,0,1,4.692,1.159,9.663,9.663,0,0,1,3.753,3.257V16.36h8.5V55H167.4V51.026a10.682,10.682,0,0,1-3.478,3.257A10.492,10.492,0,0,1,158.29,55.718Zm2.042-7.01a6.4,6.4,0,0,0,3.257-.828,6.17,6.17,0,0,0,2.263-2.484,8.213,8.213,0,0,0,.883-3.919v-2.76a7.146,7.146,0,0,0-.883-3.7,5.235,5.235,0,0,0-2.263-2.208,6.759,6.759,0,0,0-3.257-.773,5.412,5.412,0,0,0-4.25,1.877q-1.656,1.822-1.656,5.63v1.1q0,3.974,1.656,6.017A5.328,5.328,0,0,0,160.332,48.707Z" fill="#dcdcdc"/>
  </g>
</svg>
