<svg width="25" height="24" viewBox="0 0 25 24" fill="none" xmlns="http://www.w3.org/2000/svg">
<path d="M7.25968 22H17.7417C18.2578 22.0508 18.7788 21.9907 19.2698 21.8235C19.7607 21.6564 20.2103 21.3862 20.5882 21.031C20.9661 20.6758 21.2636 20.2439 21.4609 19.7642C21.6581 19.2846 21.7504 18.7683 21.7317 18.25L22.2517 9.99C22.2841 9.47766 22.2111 8.96412 22.0371 8.48114C21.8631 7.99816 21.5919 7.556 21.2402 7.18202C20.8886 6.80803 20.4639 6.51018 19.9925 6.30686C19.5211 6.10355 19.013 5.99911 18.4997 6C18.1998 5.99812 17.9061 5.91419 17.6505 5.7573C17.3949 5.60041 17.1871 5.37656 17.0497 5.11L16.3297 3.66C16.0569 3.18169 15.6688 2.77923 15.2007 2.48929C14.7326 2.19935 14.1994 2.03114 13.6497 2H11.3597C10.8082 2.02951 10.273 2.19695 9.80299 2.48697C9.33302 2.77699 8.94334 3.18032 8.66968 3.66L7.94968 5.11C7.81223 5.37656 7.60445 5.60041 7.34885 5.7573C7.09325 5.91419 6.79958 5.99812 6.49968 6C5.98649 5.99939 5.47862 6.10403 5.00747 6.30746C4.53632 6.51089 4.1119 6.80879 3.76044 7.18275C3.40898 7.5567 3.13795 7.99876 2.9641 8.48161C2.79025 8.96446 2.71727 9.47783 2.74968 9.99L3.26968 18.25C3.25009 18.7685 3.34187 19.2852 3.53881 19.7652C3.73576 20.2453 4.0333 20.6775 4.41139 21.0329C4.78949 21.3882 5.23936 21.6584 5.73068 21.8253C6.22201 21.9921 6.74338 22.0517 7.25968 22Z" stroke="#5F5F5F" stroke-width="1.5" stroke-linecap="round" stroke-linejoin="round"/>
<path d="M11 8H14" stroke="#5F5F5F" stroke-width="1.5" stroke-linecap="round" stroke-linejoin="round"/>
<path d="M12.5 18C13.1428 18 13.7711 17.8094 14.3056 17.4523C14.8401 17.0952 15.2566 16.5876 15.5026 15.9937C15.7486 15.3999 15.813 14.7464 15.6876 14.116C15.5622 13.4855 15.2526 12.9064 14.7981 12.4519C14.3436 11.9974 13.7645 11.6879 13.134 11.5624C12.5036 11.437 11.8501 11.5014 11.2563 11.7474C10.6624 11.9934 10.1548 12.4099 9.79772 12.9444C9.44061 13.4789 9.25 14.1072 9.25 14.75C9.25159 15.6115 9.59451 16.4372 10.2037 17.0463C10.8128 17.6555 11.6385 17.9984 12.5 18Z" stroke="#5F5F5F" stroke-width="1.5" stroke-linecap="round" stroke-linejoin="round"/>
</svg>
