<svg width="21" height="22" viewBox="0 0 21 22" fill="none" xmlns="http://www.w3.org/2000/svg">
<path d="M14.6094 4.50755L13.5161 4.48466C13.4899 5.10927 13.5958 5.62688 13.8433 6.02443C13.4977 5.61483 13.2969 5.0886 13.2969 4.51629C13.2969 3.20939 14.3635 2.14941 15.6638 2.14941C16.9625 2.14941 18.0298 3.21627 18.0306 4.51482C18.0238 5.62356 17.2846 6.54188 16.2678 6.80738C16.6605 6.69188 17.0206 6.46686 17.2959 6.17334C17.7114 5.73038 17.9676 5.0909 17.8069 4.38599L16.7269 4.50197C16.7211 5.06678 16.3022 5.51445 15.7675 5.5602C15.7294 5.55714 15.691 5.55536 15.655 5.55536C15.6341 5.55536 15.6048 5.55592 15.5721 5.55901C15.024 5.51087 14.6094 5.06198 14.6094 4.50755Z" fill="#F66329" stroke="#F66329" stroke-width="1.09375"/>
<path d="M15.7594 13.8696C15.4182 13.8696 15.0769 13.8433 14.7357 13.7821C14.3769 13.7208 14.1407 13.3796 14.2019 13.0208C14.2632 12.6621 14.6044 12.4258 14.9632 12.4871C16.0394 12.6708 17.1769 12.4696 17.9382 11.9621C18.3494 11.6908 18.5682 11.3496 18.5682 11.0083C18.5682 10.6671 18.4025 12.7708 18 12.4995C17.2387 11.992 15.585 13.307 14.5 13.4995C14 13.4995 14.2369 9.37208 14.1757 9.01333C14.1144 8.65458 14.3507 8.31333 14.7094 8.25208C16.1357 7.99833 17.6144 8.26958 18.6644 8.96958C19.4344 9.48583 19.8807 10.2208 19.8807 11.0083C19.8807 11.7871 19.4432 12.5308 18.6644 13.0558C17.8682 13.5808 16.8357 13.8696 15.7594 13.8696Z" fill="#F66329" stroke="#F66329" stroke-width="0.09"/>
<path d="M5.4023 6.56634L5.41508 6.55356L5.43349 6.55663L5.47957 6.55456C5.52368 6.55258 5.56748 6.549 5.61091 6.54388C5.9911 6.53209 6.42604 6.47612 6.76996 6.22025C7.23008 5.87792 7.40056 5.29306 7.35806 4.49304L6.48367 4.51625C6.48367 5.11726 6.03889 5.59114 5.54407 5.66984C5.49296 5.6712 5.43894 5.67186 5.38182 5.67191C5.35766 5.67122 5.33624 5.67124 5.31809 5.67125C5.31573 5.67125 5.31342 5.67125 5.31117 5.67125C5.31025 5.67125 5.3092 5.67125 5.30802 5.67125C5.30215 5.67124 5.29317 5.67123 5.28244 5.67138C5.23489 5.67081 5.1887 5.66975 5.14387 5.66815C4.57848 5.57852 4.15617 5.09918 4.15617 4.51625L3.28585 4.45246C3.22465 4.86771 3.24139 5.22856 3.34753 5.53453C3.45694 5.84989 3.65231 6.0801 3.89649 6.23718C4.25042 6.46487 4.69135 6.52583 5.07186 6.54162C5.11595 6.54719 5.16049 6.55138 5.20541 6.55416L5.4023 6.56634ZM5.22367 6.98375H5.22362H5.22357H5.22352H5.22347H5.22342H5.22337H5.22331H5.22326H5.22321H5.22316H5.22311H5.22306H5.22301H5.22296H5.2229H5.22285H5.2228H5.22275H5.2227H5.22265H5.2226H5.22255H5.22249H5.22244H5.22239H5.22234H5.22229H5.22224H5.22219H5.22214H5.22209H5.22203H5.22198H5.22193H5.22188H5.22183H5.22178H5.22173H5.22168H5.22163H5.22158H5.22152H5.22147H5.22142H5.22137H5.22132H5.22127H5.22122H5.22117H5.22112H5.22107H5.22102H5.22097H5.22092H5.22086H5.22081H5.22076H5.22071H5.22066H5.22061H5.22056H5.22051H5.22046H5.22041H5.22036H5.22031H5.22026H5.22021H5.22016H5.22011H5.22006H5.22001H5.21996H5.21991H5.21986H5.21981H5.21976H5.21971H5.21966H5.21961H5.21956H5.21951H5.21946H5.21941H5.21936H5.21931H5.21926H5.21921H5.21916H5.21911H5.21906H5.21901H5.21896H5.21891H5.21886H5.21881H5.21876H5.21871H5.21866H5.21861H5.21856H5.21851H5.21846H5.21841H5.21837H5.21832H5.21827H5.21822H5.21817H5.21812H5.21807H5.21802H5.21797H5.21793H5.21788H5.21783H5.21778H5.21773H5.21768H5.21763H5.21759H5.21754H5.21749H5.21744H5.21739H5.21734H5.2173H5.21725H5.2172H5.21715H5.2171H5.21706H5.21701H5.21696H5.21691H5.21686H5.21682H5.21677H5.21672H5.21667H5.21663H5.21658H5.21653H5.21649H5.21644H5.21639H5.21634H5.2163H5.21625H5.2162H5.21616H5.21611H5.21606H5.21602H5.21597H5.21592H5.21588H5.21583H5.21578H5.21574H5.21569H5.21564H5.2156H5.21555H5.21551H5.21546H5.21541H5.21537H5.21532H5.21528H5.21523H5.21519H5.21514H5.2151H5.21505H5.21501H5.21496H5.21492H5.21487H5.21482H5.21478H5.21474H5.21469H5.21465H5.2146H5.21456H5.21451H5.21447H5.21442H5.21438H5.21433H5.21429H5.21425H5.2142H5.21416H5.21412H5.21407H5.21403H5.21398H5.21394H5.2139H5.21385H5.21381H5.21377H5.21375C3.87904 6.93562 2.83424 5.8538 2.82617 4.51503C2.82683 3.14636 3.94405 2.03125 5.30242 2.03125C6.66205 2.03125 7.77867 3.14788 7.77867 4.5075C7.77867 5.83063 6.6365 6.9348 5.27735 6.98375H5.2773H5.27718H5.27707H5.27695H5.27684H5.27672H5.27661H5.27649H5.27638H5.27626H5.27615H5.27603H5.27591H5.2758H5.27568H5.27556H5.27545H5.27533H5.27521H5.2751H5.27498H5.27486H5.27474H5.27463H5.27451H5.27439H5.27427H5.27415H5.27404H5.27392H5.2738H5.27368H5.27356H5.27344H5.27332H5.2732H5.27308H5.27296H5.27285H5.27273H5.27261H5.27249H5.27237H5.27225H5.27213H5.27201H5.27188H5.27176H5.27164H5.27152H5.2714H5.27128H5.27116H5.27104H5.27092H5.2708H5.27067H5.27055H5.27043H5.27031H5.27019H5.27007H5.26994H5.26982H5.2697H5.26958H5.26945H5.26933H5.26921H5.26909H5.26896H5.26884H5.26872H5.26859H5.26847H5.26835H5.26822H5.2681H5.26798H5.26785H5.26773H5.26761H5.26748H5.26736H5.26723H5.26711H5.26699H5.26686H5.26674H5.26661H5.26649H5.26636H5.26624H5.26611H5.26599H5.26586H5.26574H5.26561H5.26549H5.26536H5.26524H5.26511H5.26499H5.26486H5.26474H5.26461H5.26449H5.26436H5.26423H5.26411H5.26398H5.26386H5.26373H5.2636H5.26348H5.26335H5.26323H5.2631H5.26297H5.26285H5.26272H5.26259H5.26247H5.26234H5.26221H5.26209H5.26196H5.26183H5.26171H5.26158H5.26145H5.26133H5.2612H5.26107H5.26094H5.26082H5.26069H5.26056H5.26044H5.26031H5.26018H5.26005H5.25993H5.2598H5.25967H5.25954H5.25942H5.25929H5.25916H5.25903H5.25891H5.25878H5.25865H5.25852H5.2584H5.25827H5.25814H5.25801H5.25788H5.25776H5.25763H5.2575H5.25737H5.25724H5.25712H5.25699H5.25686H5.25673H5.2566H5.25648H5.25635H5.25622H5.25609H5.25596H5.25584H5.25571H5.25558H5.25545H5.25532H5.2552H5.25507H5.25494H5.25481H5.25468H5.25455H5.25443H5.2543H5.25417H5.25404H5.25391H5.25379H5.25366H5.25353H5.2534H5.25327H5.25314H5.25302H5.25289H5.25276H5.25263H5.2525H5.25238H5.25225H5.25212H5.25199H5.25186H5.25174H5.25161H5.25148H5.25135H5.25122H5.2511H5.25097H5.25084H5.25071H5.25058H5.25046H5.25033H5.2502H5.25007H5.24995H5.24982H5.24969H5.24956H5.24943H5.24931H5.24918H5.24905H5.24892H5.2488H5.24867H5.24854H5.24841H5.24829H5.24816H5.24803H5.24791H5.24778H5.24765H5.24752H5.2474H5.24727H5.24714H5.24702H5.24689H5.24676H5.24664H5.24651H5.24638H5.24626H5.24613H5.246H5.24588H5.24575H5.24562H5.2455H5.24537H5.24524H5.24512H5.24499H5.24487H5.24474H5.24461H5.24449H5.24436H5.24424H5.24411H5.24399H5.24386H5.24373H5.24361H5.24348H5.24336H5.24323H5.24311H5.24298H5.24286H5.24273H5.24261H5.24248H5.24236H5.24223H5.24211H5.24198H5.24186H5.24174H5.24161H5.24149H5.24136H5.24124H5.24111H5.24099H5.24087H5.24074H5.24062H5.2405H5.24037H5.24025H5.24013H5.24H5.23988H5.23976H5.23963H5.23951H5.23939H5.23927H5.23914H5.23902H5.2389H5.23878H5.23865H5.23853H5.23841H5.23829H5.23817H5.23804H5.23792H5.2378H5.23768H5.23756H5.23744H5.23732H5.23719H5.23707H5.23695H5.23683H5.23671H5.23659H5.23647H5.23635H5.23623H5.23611H5.23599H5.23587H5.23575H5.23563H5.23551H5.23539H5.23527H5.23515H5.23504H5.23492H5.2348H5.23468H5.23456H5.23444H5.23432H5.23421H5.23409H5.23397H5.23385H5.23374H5.23362H5.2335H5.23338H5.23327H5.23315H5.23303H5.23292H5.2328H5.23268H5.23257H5.23245H5.23233H5.23222H5.2321H5.23199H5.23187H5.23176H5.23164H5.23153H5.23141H5.2313H5.23118H5.23107H5.23095H5.23084H5.23073H5.23061H5.2305H5.23038H5.23027H5.23016H5.23004H5.22993H5.22982H5.22971H5.22959H5.22948H5.22937H5.22926H5.22915H5.22903H5.22892H5.22881H5.2287H5.22859H5.22848H5.22837H5.22826H5.22815H5.22804H5.22793H5.22782H5.22771H5.2276H5.22749H5.22738H5.22727H5.22716H5.22705H5.22694H5.22684H5.22673H5.22662H5.22651H5.2264H5.2263H5.22619H5.22608H5.22598H5.22587H5.22576H5.22566H5.22555H5.22544H5.22534H5.22523H5.22513H5.22502H5.22492H5.22481H5.22471H5.2246H5.2245H5.2244H5.22429H5.22419H5.22409H5.22398H5.22388H5.22378H5.22367Z" fill="#F66329" stroke="#F66329" stroke-width="0.875"/>
<path d="M6.4312 11.3409C6.43723 11.6094 6.43915 11.8631 6.4348 12.0859C6.27847 12.0391 6.10931 12.0265 5.93762 12.0558C4.94962 12.2245 3.93087 12.0322 3.27987 11.5987C3.07161 11.4582 2.9545 11.3193 2.89523 11.2011C2.88789 11.1569 2.88121 11.1157 2.87515 11.0784L2.87304 11.0654C2.87246 11.0618 2.87187 11.0582 2.87128 11.0545C2.86158 10.9947 2.85042 10.9259 2.8405 10.8842C2.84046 10.884 2.84039 10.8838 2.84031 10.8834C2.83867 10.8763 2.8289 10.8339 2.80814 10.7891C2.8016 10.775 2.78742 10.746 2.76352 10.7133C2.7466 10.6901 2.68589 10.6095 2.57007 10.5638C2.40938 10.5005 2.24328 10.5409 2.13135 10.6328C2.04939 10.7001 2.01526 10.7782 2.00535 10.8017C1.98237 10.8561 1.9758 10.9036 1.97433 10.9142C1.97428 10.9146 1.97424 10.9149 1.9742 10.9152C1.97168 10.9331 1.97059 10.9484 1.97005 10.9575C1.96894 10.9762 1.96875 10.9944 1.96875 11.0083C1.96875 11.1639 1.9979 11.3124 2.05042 11.4525C2.06996 11.5648 2.09358 11.6918 2.12126 11.82C2.17051 12.0481 2.24061 12.3198 2.34046 12.5247C2.34329 12.5305 2.34625 12.5364 2.34935 12.5426C1.80806 12.1078 1.53125 11.5552 1.53125 11.0083C1.53125 10.4062 1.87681 9.78692 2.55315 9.33328C3.49613 8.70485 4.8568 8.44591 6.18836 8.68283L6.19137 8.68334C6.30657 8.70301 6.389 8.81372 6.36749 8.9397C6.35113 9.0355 6.35318 9.18793 6.35615 9.31812C6.35959 9.46937 6.36733 9.66231 6.37653 9.87691C6.37921 9.93938 6.38202 10.0038 6.38491 10.07C6.40198 10.4617 6.42155 10.9108 6.4312 11.3409ZM5.84597 13.3254C5.92119 13.3394 5.99575 13.3534 6.06945 13.3671C5.78705 13.4121 5.5025 13.4321 5.215 13.4321C4.41752 13.4321 3.65547 13.2614 3.01683 12.9539C3.04065 12.9499 3.06365 12.9445 3.08576 12.9378C3.84517 12.9521 4.89764 13.1484 5.84597 13.3254Z" fill="#F66329" stroke="#F66329" stroke-width="0.875"/>
<path d="M9.25 11.0442L8.39664 10.9083C8.17478 11.5872 8.4511 12.2056 8.86353 12.6191C9.26981 13.0264 9.86089 13.2963 10.4312 13.2963C10.7594 13.2963 11.0778 13.1741 11.3456 13.0164C11.6177 12.8562 11.8692 12.6409 12.0704 12.4103C12.2683 12.1835 12.4394 11.9168 12.5205 11.6455C12.6003 11.3787 12.6152 11.005 12.3264 10.7283L11.5966 10.029L11.5863 11.0397C11.5799 11.6627 11.1141 12.1604 10.5174 12.2066C10.4789 12.2033 10.4404 12.2014 10.405 12.2014C10.3838 12.2014 10.3546 12.202 10.3232 12.2055C9.71381 12.1573 9.25 11.6593 9.25 11.0442ZM11.6956 11.3157C11.6959 11.3155 11.6965 11.3176 11.6965 11.3227C11.6953 11.3185 11.6953 11.3159 11.6956 11.3157ZM10.5013 13.5204H10.5011H10.5009H10.5008H10.5006H10.5005H10.5003H10.5002H10.5H10.4999H10.4997H10.4996H10.4994H10.4993H10.4991H10.499H10.4988H10.4987H10.4985H10.4984H10.4982H10.4981H10.4979H10.4978H10.4976H10.4975H10.4973H10.4972H10.497H10.4969H10.4967H10.4966H10.4964H10.4963H10.4961H10.496H10.4958H10.4957H10.4955H10.4954H10.4952H10.4951H10.495H10.4948H10.4947H10.4945H10.4944H10.4942H10.4941H10.4939H10.4938H10.4936H10.4935H10.4934H10.4932H10.4931H10.4929H10.4928H10.4926H10.4925H10.4924H10.4922H10.4921H10.4919H10.4918H10.4916H10.4915H10.4914H10.4912H10.4911H10.4909H10.4908H10.4906H10.4905H10.4904H10.4902H10.4901H10.4899H10.4898H10.4897H10.4895H10.4894H10.4892H10.4891H10.489H10.4888H10.4887H10.4885H10.4884H10.4883H10.4881H10.488H10.4878H10.4877H10.4876H10.4874H10.4873H10.4872H10.487H10.4869H10.4867H10.4866H10.4865H10.4863H10.4862H10.4861H10.4859H10.4858H10.4856H10.4855H10.4854H10.4852H10.4851H10.485H10.4848H10.4847H10.4846H10.4844H10.4843H10.4841H10.484H10.4839H10.4837H10.4836H10.4835H10.4833H10.4832H10.4831H10.4829H10.4828H10.4827H10.4825H10.4824H10.4823H10.4821H10.482H10.4819H10.4817H10.4816H10.4815H10.4813H10.4812H10.4811H10.4809H10.4808H10.4807H10.4805H10.4804H10.4803H10.4801H10.48H10.4799H10.4797H10.4796H10.4795H10.4793H10.4792H10.4791H10.4789H10.4788H10.4787H10.4785H10.4784H10.4783H10.4781H10.478H10.4779H10.4777H10.4776H10.4775H10.4774H10.4772H10.4771H10.477H10.4768H10.4767H10.4766H10.4764H10.4763H10.4762H10.476H10.4759H10.4758H10.4757H10.4755H10.4754H10.4753H10.4751H10.475H10.4749H10.4747H10.4746H10.4745H10.4744H10.4742H10.4741H10.474H10.4738H10.4737H10.4736H10.4735H10.4733H10.4732H10.4731H10.4729H10.4728H10.4727H10.4725H10.4724H10.4723H10.4722H10.472H10.4719H10.4718H10.4716H10.4715H10.4714H10.4713H10.4711H10.471H10.4709H10.4707H10.4706H10.4705H10.4704H10.4702H10.4701H10.47H10.4698H10.4697H10.4696H10.4695H10.4693H10.4692H10.4691H10.4689H10.4688H10.4687H10.4686H10.4684H10.4683H10.4682H10.468H10.4679H10.4678H10.4677H10.4675H10.4674H10.4673H10.4671H10.467H10.4669H10.4668H10.4666H10.4665H10.4664H10.4662H10.4661H10.466H10.4659H10.4657H10.4656H10.4655H10.4654H10.4652H10.4651H10.465H10.4648H10.4647H10.4646H10.4645H10.4643H10.4642H10.4641H10.4639H10.4638H10.4637H10.4636H10.4634H10.4633H10.4632H10.463H10.4629H10.4628H10.4627H10.4625H10.4624H10.4623H10.4621H10.462H10.4619H10.4618H10.4616H10.4615H10.4614H10.4612H10.4611H10.461H10.4609H10.4607H10.4606H10.4605H10.4603H10.4602H10.4601H10.46H10.4598H10.4597H10.4596H10.4594H10.4593H10.4592H10.459H10.4589H10.4588H10.4587H10.4585H10.4584H10.4583H10.4581H10.458H10.4579H10.4578H10.4576H10.4575H10.4574H10.4572H10.4571H10.457H10.4568H10.4567H10.4566H10.4565H10.4563H10.4562H10.4561H10.4559H10.4558H10.4557H10.4555H10.4554H10.4553H10.4551H10.455H10.4549H10.4547H10.4546H10.4545H10.4544H10.4542H10.4541H10.454H10.4538H10.4537H10.4536H10.4534H10.4533H10.4532H10.453H10.4529H10.4528H10.4526H10.4525H10.4524H10.4522H10.4521H10.452H10.4518H10.4517H10.4516H10.4514H10.4513H10.4512H10.451H10.4509H10.4508H10.4506H10.4505H10.4504H10.4502H10.4501H10.45H10.4498H10.4497H10.4496H10.4494H10.4493H10.4492H10.449H10.4489H10.4488H10.4486H10.4485H10.4484H10.4482H10.4481H10.4479H10.4478H10.4477H10.4475H10.4474H10.4473H10.4471H10.447H10.4469H10.4467H10.4466H10.4464H10.4463H10.4462H10.446H10.4459H10.4458H10.4456H10.4455H10.4453H10.4452H10.4451H10.4449H10.4448H10.4447H10.4445H10.4444H10.4442H10.4441H10.444H10.4438H10.4437H10.4435H10.4434H10.4433H10.4431H10.443H10.4428H10.4427H10.4426H10.4424H10.4423H10.4421H10.442H10.4419H10.4417H10.4416H10.4414H10.4413H10.4411H10.441H10.4409H10.4407H10.4406H10.4404H10.4403H10.4401H10.44H10.4399H10.4397H10.4396H10.4394H10.4393H10.4391H10.439H10.4388H10.4387H10.4386H10.4384H10.4383H10.4381H10.438H10.4378H10.4377H10.4375H10.4374H10.4372H10.4371H10.437H10.4368H10.4367H10.4365H10.4364H10.4362H10.4361H10.4359H10.4358H10.4356H10.4355H10.4353H10.4352H10.435H10.4349H10.4347H10.4346H10.4344H10.4343H10.4341H10.434H10.4338H10.4337H10.4335H10.4334H10.4332H10.4331H10.4329H10.4328H10.4326H10.4325H10.4323H10.4322H10.432H10.4319H10.4317H10.4316H10.4314H10.4312H10.3947C8.97356 13.472 7.9375 12.3827 7.9375 11.0529C7.9375 9.68539 9.05327 8.57666 10.4138 8.57666C11.773 8.57666 12.8893 9.69263 12.89 11.0517C12.8821 12.3761 11.8731 13.4426 10.5732 13.5256C10.565 13.5244 10.5586 13.5237 10.5545 13.5232C10.5346 13.521 10.5188 13.5206 10.513 13.5205L10.5047 13.5204L10.5013 13.5204Z" fill="#F66329" stroke="#F66329" stroke-width="0.875"/>
<path d="M7.83076 19.2302L7.82902 19.229C7.15153 18.7748 6.80664 18.1639 6.80664 17.5536C6.80664 16.9476 7.14727 16.3215 7.82713 15.8708L7.82717 15.8708C8.56108 15.3841 9.52314 15.1299 10.5024 15.1299C11.4816 15.1299 12.4408 15.384 13.1698 15.8699C13.8469 16.3241 14.1916 16.9348 14.1916 17.5449C14.1916 18.151 13.851 18.7771 13.1712 19.2277L13.1702 19.2284C12.6249 19.5919 11.9506 19.83 11.2371 19.9274C11.4696 19.8355 11.7209 19.7079 11.9413 19.5933C11.9874 19.5693 12.032 19.546 12.0749 19.5236C12.2304 19.4423 12.3647 19.3721 12.4754 19.3202C12.6646 19.4308 12.8472 19.3669 12.9278 19.3216C13.0042 19.2785 13.0527 19.223 13.0742 19.1967C13.159 19.0931 13.218 18.9488 13.2503 18.8436C13.2687 18.7837 13.2859 18.7128 13.2937 18.6391C13.3002 18.5776 13.3071 18.4583 13.2573 18.3345C13.2296 18.2656 13.1785 18.1813 13.0877 18.1154C12.9939 18.0473 12.8895 18.0218 12.7967 18.0216C12.6361 18.0213 12.5075 18.0957 12.437 18.1422L12.437 18.1422L12.4334 18.1446C11.9318 18.4827 11.2267 18.6671 10.4948 18.6671C9.76281 18.6671 9.05769 18.4827 8.55618 18.1446L8.55614 18.1446C8.21299 17.9133 8.11914 17.6972 8.11914 17.5624C8.11914 17.5408 8.11891 17.5118 8.11688 17.4857C8.11634 17.4788 8.11511 17.4643 8.1123 17.4466C8.11094 17.438 8.10813 17.4218 8.10285 17.4018L8.10265 17.4011C8.09944 17.3889 8.08563 17.3366 8.04949 17.2794C8.03125 17.2506 7.98557 17.185 7.89973 17.135C7.79501 17.074 7.65977 17.0545 7.52947 17.102C7.42208 17.1412 7.36066 17.2106 7.33583 17.2421C7.30762 17.2778 7.29114 17.3103 7.28306 17.3275C7.25732 17.3824 7.24899 17.432 7.24857 17.4345L7.24855 17.4346C7.23878 17.4864 7.23703 17.5579 7.23618 17.5923C7.2336 17.6977 7.23493 17.8683 7.25089 18.0444C7.26539 18.2044 7.29652 18.4313 7.3827 18.61C7.42428 18.6962 7.51472 18.8482 7.69608 18.9258C7.77322 18.9588 7.84857 18.9713 7.91948 18.9698C8.60765 19.4083 8.96731 19.4985 9.30029 19.5541C9.31725 19.557 9.33346 19.5596 9.34904 19.5622C9.47772 19.5834 9.56362 19.5975 9.67746 19.6383C9.8046 19.6838 9.98028 19.7689 10.2534 19.9543L10.2546 19.9552C10.2641 19.9616 10.2736 19.9676 10.2831 19.9733C9.37842 19.9387 8.50484 19.6868 7.83076 19.2302ZM8.11312 17.5628C8.11313 17.5629 8.11304 17.5641 8.11283 17.5663L8.11312 17.5628Z" fill="#F66329" stroke="#F66329" stroke-width="0.875"/>
</svg>
