<svg width="22" height="22" viewBox="0 0 22 22" fill="none" xmlns="http://www.w3.org/2000/svg">
<path d="M16.2503 6.765C16.1978 6.75625 16.1366 6.75625 16.0841 6.765C14.8766 6.72125 13.9141 5.7325 13.9141 4.5075C13.9141 3.25625 14.9203 2.25 16.1716 2.25C17.4228 2.25 18.4291 3.265 18.4291 4.5075C18.4203 5.7325 17.4578 6.72125 16.2503 6.765Z" stroke="#D0D0D0" stroke-width="1.25" stroke-linecap="round" stroke-linejoin="round"/>
<path d="M15.3485 13.1351C16.5473 13.3364 17.8685 13.1264 18.796 12.5051C20.0298 11.6826 20.0298 10.3351 18.796 9.51264C17.8598 8.89139 16.521 8.68139 15.3223 8.89139" stroke="#D0D0D0" stroke-width="1.25" stroke-linecap="round" stroke-linejoin="round"/>
<path d="M5.72367 6.765C5.77617 6.75625 5.83742 6.75625 5.88992 6.765C7.09742 6.72125 8.05992 5.7325 8.05992 4.5075C8.05992 3.25625 7.05367 2.25 5.80242 2.25C4.55117 2.25 3.54492 3.265 3.54492 4.5075C3.55367 5.7325 4.51617 6.72125 5.72367 6.765Z" stroke="#D0D0D0" stroke-width="1.5" stroke-linecap="round" stroke-linejoin="round"/>
<path d="M6.62476 13.1351C5.42601 13.3364 4.10477 13.1264 3.17727 12.5051C1.94352 11.6826 1.94352 10.3351 3.17727 9.51264C4.11352 8.89139 5.45226 8.68139 6.65101 8.89139" stroke="#D0D0D0" stroke-width="1.5" stroke-linecap="round" stroke-linejoin="round"/>
<path d="M11.0003 13.3011C10.9478 13.2924 10.8866 13.2924 10.8341 13.3011C9.62656 13.2574 8.66406 12.2686 8.66406 11.0436C8.66406 9.79238 9.67031 8.78613 10.9216 8.78613C12.1728 8.78613 13.1791 9.80113 13.1791 11.0436C13.1703 12.2686 12.2078 13.2661 11.0003 13.3011Z" stroke="#D0D0D0" stroke-width="1.5" stroke-linecap="round" stroke-linejoin="round"/>
<path d="M8.45461 16.0574C7.22086 16.8799 7.22086 18.2274 8.45461 19.0499C9.85461 19.9862 12.1471 19.9862 13.5471 19.0499C14.7809 18.2274 14.7809 16.8799 13.5471 16.0574C12.1559 15.1299 9.85461 15.1299 8.45461 16.0574Z" stroke="#D0D0D0" stroke-width="1.5" stroke-linecap="round" stroke-linejoin="round"/>
</svg>
