<svg width="34" height="33" viewBox="0 0 34 33" fill="none" xmlns="http://www.w3.org/2000/svg">
<path d="M18.2373 2.24414H24.0127C26.6351 2.24417 28.4124 2.82842 29.542 3.95801C30.6716 5.0876 31.2558 6.86485 31.2559 9.4873V15.2627C31.2558 17.8851 30.6716 19.6624 29.542 20.792C28.4124 21.9216 26.6351 22.5058 24.0127 22.5059H22.5C22.2262 22.5059 21.9941 22.2738 21.9941 22V17.7373C21.9941 15.5751 21.6336 13.9637 20.585 12.915C19.5363 11.8664 17.9249 11.5059 15.7627 11.5059H11.5C11.2262 11.5059 10.9941 11.2738 10.9941 11V9.4873C10.9942 6.86485 11.5784 5.0876 12.708 3.95801C13.8376 2.82842 15.6149 2.24417 18.2373 2.24414ZM18.2373 3.25586C16.0751 3.25588 14.4637 3.61636 13.415 4.66504C12.3664 5.71372 12.0059 7.32513 12.0059 9.4873V10.4941H15.7627C18.3851 10.4942 20.1624 11.0784 21.292 12.208C22.4216 13.3376 23.0058 15.1149 23.0059 17.7373V21.4941H24.0127C26.1749 21.4941 27.7863 21.1336 28.835 20.085C29.8836 19.0363 30.2441 17.4249 30.2441 15.2627V9.4873C30.2441 7.32513 29.8836 5.71372 28.835 4.66504C27.7863 3.61636 26.1749 3.25588 24.0127 3.25586H18.2373Z" stroke="#F66329" stroke-width="1.05"/>
<path d="M15.7625 9.96875H9.9875C4.61125 9.96875 2.21875 12.3612 2.21875 17.7375V23.5125C2.21875 28.8888 4.61125 31.2812 9.9875 31.2812H15.7625C21.1388 31.2812 23.5313 28.8888 23.5313 23.5125V17.7375C23.5313 12.3612 21.1388 9.96875 15.7625 9.96875ZM9.9875 29.2188C5.725 29.2188 4.28125 27.775 4.28125 23.5125V17.7375C4.28125 13.475 5.725 12.0312 9.9875 12.0312H15.7625C20.025 12.0312 21.4688 13.475 21.4688 17.7375V23.5125C21.4688 27.775 20.025 29.2188 15.7625 29.2188H9.9875Z" fill="#F66329"/>
<path d="M11.5411 24.3375C11.2798 24.3375 11.0186 24.2413 10.8123 24.035L8.13109 21.3538C7.73234 20.955 7.73234 20.295 8.13109 19.8963C8.52984 19.4975 9.18984 19.4975 9.58859 19.8963L11.5411 21.8488L16.1611 17.2288C16.5598 16.83 17.2198 16.83 17.6186 17.2288C18.0173 17.6275 18.0173 18.2875 17.6186 18.6863L12.2561 24.035C12.0636 24.2275 11.8023 24.3375 11.5411 24.3375Z" fill="#F66329"/>
</svg>
