<svg width="24" height="24" viewBox="0 0 24 24" fill="none" xmlns="http://www.w3.org/2000/svg">
<path d="M21.7596 15.92L15.3596 4.4C15.072 3.73136 14.6068 3.15422 14.0145 2.73115C13.4222 2.30808 12.7254 2.05523 11.9996 2C11.2738 2.05523 10.577 2.30808 9.98473 2.73115C9.39244 3.15422 8.92726 3.73136 8.63963 4.4L2.23963 15.92C1.84777 16.5031 1.61809 17.18 1.57416 17.8811C1.53022 18.5823 1.67362 19.2825 1.98963 19.91C2.38283 20.4931 2.92506 20.9601 3.55993 21.2626C4.1948 21.5651 4.89911 21.6919 5.59963 21.63H18.3996C19.1001 21.6919 19.8045 21.5651 20.4393 21.2626C21.0742 20.9601 21.6164 20.4931 22.0096 19.91C22.3257 19.2826 22.4692 18.5823 22.4253 17.8811C22.3813 17.1799 22.1516 16.5031 21.7596 15.92ZM11.2496 9C11.2496 8.80109 11.3286 8.61032 11.4693 8.46967C11.6099 8.32902 11.8007 8.25 11.9996 8.25C12.1985 8.25 12.3893 8.32902 12.53 8.46967C12.6706 8.61032 12.7496 8.80109 12.7496 9V14C12.7496 14.1989 12.6706 14.3897 12.53 14.5303C12.3893 14.671 12.1985 14.75 11.9996 14.75C11.8007 14.75 11.6099 14.671 11.4693 14.5303C11.3286 14.3897 11.2496 14.1989 11.2496 14V9ZM12.7096 17.71L12.5596 17.83C12.5039 17.8679 12.4434 17.8981 12.3796 17.92C12.3201 17.9504 12.2559 17.9707 12.1896 17.98C12.1269 17.9916 12.0634 17.9983 11.9996 18C11.9326 17.9978 11.8658 17.9911 11.7996 17.98C11.737 17.9691 11.6763 17.9489 11.6196 17.92C11.5559 17.8981 11.4954 17.8679 11.4396 17.83L11.2896 17.71C11.1037 17.5204 10.9996 17.2655 10.9996 17C10.9996 16.7345 11.1037 16.4796 11.2896 16.29L11.4396 16.17C11.4954 16.1321 11.5559 16.1019 11.6196 16.08C11.6763 16.0511 11.737 16.0309 11.7996 16.02C11.9279 15.99 12.0614 15.99 12.1896 16.02C12.2559 16.0293 12.3201 16.0496 12.3796 16.08C12.4434 16.1019 12.5039 16.1321 12.5596 16.17L12.7096 16.29C12.8955 16.4796 12.9997 16.7345 12.9997 17C12.9997 17.2655 12.8955 17.5204 12.7096 17.71Z" fill="#EF4444"/>
</svg>
