<svg width="18" height="19" viewBox="0 0 18 19" fill="none" xmlns="http://www.w3.org/2000/svg">
<path d="M8.99902 6.89941C9.63751 6.89941 10.2459 7.11778 10.7373 7.52148L10.9404 7.70508C10.9526 7.71728 10.9589 7.73327 10.959 7.74902C10.959 7.76491 10.9527 7.78067 10.9404 7.79297L7.14551 11.5879C7.13708 11.5963 7.13036 11.6004 7.125 11.6025C7.11918 11.6049 7.11131 11.6064 7.10156 11.6064C7.0921 11.6064 7.08482 11.6048 7.0791 11.6025L7.05762 11.5879C6.53655 11.0666 6.25195 10.376 6.25195 9.64648C6.25219 8.13047 7.48301 6.89965 8.99902 6.89941ZM8.99902 7.02441C7.55322 7.02465 6.37719 8.20068 6.37695 9.64648C6.37695 10.1088 6.49766 10.555 6.7207 10.9453L7.04492 11.5137L10.8662 7.69238L10.2979 7.36816C9.90752 7.14512 9.46129 7.02441 8.99902 7.02441Z" fill="white" stroke="white"/>
<path d="M9.00098 3.38184C10.4373 3.38186 11.8663 3.84637 13.1484 4.73926L13.4023 4.92383C13.4258 4.94219 13.4321 4.9687 13.4268 4.99023L13.417 5.00977C13.3985 5.03411 13.3715 5.04077 13.3496 5.03516L13.3301 5.02539C12.0214 4.03589 10.522 3.50686 9.00098 3.50684C6.36541 3.50684 3.90601 5.08852 2.21973 7.73438C1.87312 8.27507 1.7188 8.9783 1.71875 9.64648C1.71875 10.2313 1.83677 10.8435 2.09863 11.3496L2.21973 11.5596C2.73186 12.3585 3.31343 13.0669 3.95508 13.667L4.23438 13.918C4.25368 13.936 4.25992 13.9627 4.25195 13.9873L4.23828 14.0117L4.23535 14.0166C4.23366 14.0187 4.22991 14.0216 4.22363 14.0244C4.21699 14.0274 4.20897 14.0292 4.20117 14.0293C4.1955 14.0293 4.18687 14.0277 4.17773 14.0244L4.15918 14.0146L4.15723 14.0137L3.87598 13.7637C3.31934 13.2498 2.80546 12.651 2.34473 11.9746L2.11914 11.6299L2.11621 11.627L1.99805 11.4229C1.73897 10.9271 1.59961 10.2986 1.59961 9.64941C1.59964 9.0003 1.73936 8.37026 1.99902 7.87109L2.11719 7.66602C3.87793 4.90944 6.39726 3.38184 9.00098 3.38184Z" fill="white" stroke="white"/>
<path d="M15.0625 6.53809L15.085 6.55762C15.2959 6.81733 15.5021 7.09217 15.6943 7.37598L15.8818 7.66211L15.8838 7.66602C16.2183 8.18677 16.4014 8.90171 16.4014 9.64355C16.4013 10.2926 16.2616 10.9227 16.002 11.4219L15.8838 11.627C14.1231 14.3835 11.6037 15.9111 9 15.9111C8.18757 15.9111 7.39006 15.7669 6.61523 15.4814L6.28516 15.3506H6.28418C6.26059 15.3407 6.24619 15.3167 6.24609 15.293L6.25098 15.2705C6.26415 15.2392 6.30133 15.2248 6.33105 15.2373V15.2363C7.18537 15.5988 8.08342 15.7861 8.99219 15.7861C11.6281 15.7861 14.0881 14.2041 15.7744 11.5576L15.7734 11.5566C16.1194 11.0161 16.2744 10.3141 16.2744 9.64648C16.2744 9.06161 16.1564 8.44945 15.8945 7.94336L15.7734 7.7334C15.5308 7.35018 15.2649 6.98284 14.9834 6.63867C14.9669 6.61836 14.961 6.57654 14.9961 6.54395C15.0106 6.53345 15.0259 6.52991 15.04 6.53125C15.0471 6.53195 15.0549 6.53405 15.0625 6.53809Z" fill="white" stroke="white"/>
<path d="M11.6455 10.1162C11.6752 10.1237 11.692 10.1435 11.6963 10.165V10.1885L11.6953 10.1924C11.4962 11.2686 10.644 12.1266 9.5791 12.3457C9.56448 12.3458 9.55136 12.3461 9.54102 12.3467C9.53274 12.3471 9.52535 12.3473 9.52051 12.3477C9.51795 12.3478 9.51603 12.3476 9.51465 12.3477C9.50298 12.3472 9.48861 12.3435 9.47559 12.333C9.46902 12.3277 9.46377 12.3218 9.45996 12.3154L9.45215 12.2959V12.2725C9.45498 12.2583 9.46354 12.2467 9.47559 12.2393L9.49609 12.2314L9.50098 12.2305C10.5289 12.0436 11.377 11.1962 11.5664 10.1689L11.5674 10.1699C11.5712 10.1502 11.5814 10.1369 11.5947 10.1279C11.6073 10.1195 11.6243 10.1141 11.6455 10.1162Z" fill="white" stroke="white"/>
<path d="M1.50008 17.709C1.35758 17.709 1.21508 17.6565 1.10258 17.544C0.885078 17.3265 0.885078 16.9665 1.10258 16.749L6.70508 11.1465C6.92258 10.929 7.28258 10.929 7.50008 11.1465C7.71758 11.364 7.71758 11.724 7.50008 11.9415L1.89758 17.544C1.78508 17.6565 1.64258 17.709 1.50008 17.709Z" fill="white"/>
<path d="M10.8966 8.31156C10.7541 8.31156 10.6116 8.25906 10.4991 8.14656C10.2816 7.92906 10.2816 7.56906 10.4991 7.35156L16.1016 1.74906C16.3191 1.53156 16.6791 1.53156 16.8966 1.74906C17.1141 1.96656 17.1141 2.32656 16.8966 2.54406L11.2941 8.14656C11.1816 8.25906 11.0391 8.31156 10.8966 8.31156Z" fill="white"/>
</svg>
