<svg width="22" height="21" viewBox="0 0 22 21" fill="none" xmlns="http://www.w3.org/2000/svg">
<path d="M8.3925 2.48539L3.67625 6.16039C2.88875 6.77289 2.25 8.07664 2.25 9.06539V15.5491C2.25 17.5791 3.90375 19.2416 5.93375 19.2416H16.0663C18.0963 19.2416 19.75 17.5791 19.75 15.5579V9.18789C19.75 8.12914 19.0413 6.77289 18.175 6.16914L12.7675 2.38039C11.5425 1.52289 9.57375 1.56664 8.3925 2.48539Z" stroke="#F66329" stroke-width="1.25" stroke-linecap="round" stroke-linejoin="round"/>
<path d="M2.42402 8.39943C2.4721 7.19755 3.05513 6.07965 4.04297 5.39336C5.96094 4.06088 9.14648 1.99978 10.5 2C12.5 2.00032 18 5.5 19 6.5C19.6067 7.10675 19.8454 11.579 19.9392 15.0026C19.9997 17.2109 18.2091 19 16 19H6.1632C3.89135 19 2.07559 17.1102 2.16639 14.8401L2.42402 8.39943Z" fill="#F66329"/>
<path d="M11 15.7412V13.1162" stroke="white" stroke-width="1.3125" stroke-linecap="round" stroke-linejoin="round"/>
</svg>
