<svg width="18" height="18" viewBox="0 0 18 18" fill="none" xmlns="http://www.w3.org/2000/svg">
<mask id="mask0_5330_15331" style="mask-type:alpha" maskUnits="userSpaceOnUse" x="0" y="0" width="18" height="18">
<circle cx="9" cy="9" r="9" fill="#C4C4C4"/>
</mask>
<g mask="url(#mask0_5330_15331)">
<rect x="-3.70703" y="-0.529297" width="25.4118" height="18.5294" fill="#F66329"/>
</g>
<path d="M5.9948 5.46433C6.14125 5.61078 6.14125 5.84821 5.9948 5.99466C4.33507 7.65439 4.33507 10.3454 5.9948 12.0051C6.14125 12.1515 6.14125 12.389 5.9948 12.5354C5.84835 12.6819 5.61092 12.6819 5.46447 12.5354C3.51184 10.5828 3.51184 7.41695 5.46447 5.46433C5.61092 5.31788 5.84835 5.31788 5.9948 5.46433ZM12.5356 5.46433C14.4881 7.41695 14.4881 10.5828 12.5356 12.5354C12.3891 12.6819 12.1517 12.6819 12.0052 12.5354C11.8588 12.389 11.8588 12.1515 12.0052 12.0051C13.665 10.3454 13.665 7.65439 12.0052 5.99466C11.8588 5.84821 11.8588 5.61078 12.0052 5.46433C12.1517 5.31788 12.3891 5.31788 12.5356 5.46433ZM7.40901 6.87854C7.55545 7.02499 7.55545 7.26243 7.40901 7.40887C6.53033 8.28755 6.53033 9.71215 7.40901 10.5909C7.55545 10.7373 7.55545 10.9748 7.40901 11.1212C7.26256 11.2677 7.02513 11.2677 6.87868 11.1212C5.70711 9.9496 5.70711 8.0501 6.87868 6.87854C7.02513 6.7321 7.26256 6.7321 7.40901 6.87854ZM11.1213 6.87854C12.2929 8.0501 12.2929 9.9496 11.1213 11.1212C10.9748 11.2677 10.7375 11.2677 10.591 11.1212C10.4446 10.9748 10.4446 10.7373 10.591 10.5909C11.4697 9.71215 11.4697 8.28755 10.591 7.40887C10.4446 7.26243 10.4446 7.02499 10.591 6.87854C10.7375 6.7321 10.9748 6.7321 11.1213 6.87854ZM9 8.24985C9.4142 8.24985 9.75 8.58565 9.75 8.99985C9.75 9.41405 9.4142 9.74985 9 9.74985C8.5858 9.74985 8.25 9.41405 8.25 8.99985C8.25 8.58565 8.5858 8.24985 9 8.24985Z" fill="white"/>
</svg>
