<svg width="17" height="12" viewBox="0 0 17 12" fill="none" xmlns="http://www.w3.org/2000/svg">
<path d="M8.54981 3.4269C8.0499 3.4269 7.56121 3.57514 7.14555 3.85288C6.72989 4.13061 6.40592 4.52537 6.21461 4.98723C6.0233 5.44909 5.97325 5.95731 6.07077 6.44762C6.1683 6.93792 6.40903 7.3883 6.76253 7.74179C7.11602 8.09528 7.56639 8.33602 8.0567 8.43354C8.54701 8.53107 9.05523 8.48102 9.51709 8.28971C9.97895 8.0984 10.3737 7.77443 10.6514 7.35877C10.9292 6.9431 11.0774 6.45442 11.0774 5.9545C11.0774 5.28414 10.8111 4.64124 10.3371 4.16722C9.86308 3.6932 9.22018 3.4269 8.54981 3.4269ZM8.54981 7.47107C8.24987 7.47107 7.95665 7.38212 7.70726 7.21548C7.45786 7.04884 7.26348 6.81198 7.14869 6.53487C7.03391 6.25775 7.00387 5.95282 7.06239 5.65864C7.12091 5.36445 7.26535 5.09423 7.47744 4.88213C7.68954 4.67004 7.95976 4.5256 8.25395 4.46708C8.54813 4.40856 8.85306 4.4386 9.13018 4.55338C9.40729 4.66817 9.64415 4.86255 9.81079 5.11195C9.97743 5.36134 10.0664 5.65456 10.0664 5.9545C10.0664 6.35672 9.9066 6.74247 9.62219 7.02688C9.33777 7.31129 8.95203 7.47107 8.54981 7.47107ZM13.2076 7.92225C12.9904 8.43571 12.6897 8.90972 12.3178 9.32507C12.2278 9.42251 12.103 9.48064 11.9705 9.48691C11.838 9.49319 11.7083 9.44711 11.6094 9.35862C11.5106 9.27013 11.4505 9.14632 11.4421 9.0139C11.4337 8.88149 11.4777 8.75108 11.5646 8.65083C12.2284 7.9097 12.5954 6.94974 12.5954 5.95482C12.5954 4.9599 12.2284 3.99994 11.5646 3.25881C11.5191 3.20956 11.4838 3.15175 11.4609 3.08874C11.4379 3.02573 11.4277 2.95878 11.4309 2.89179C11.4341 2.8248 11.4506 2.75912 11.4794 2.69856C11.5082 2.638 11.5487 2.58377 11.5987 2.53904C11.6487 2.49432 11.707 2.45998 11.7704 2.43803C11.8338 2.41608 11.9009 2.40696 11.9678 2.41119C12.0347 2.41543 12.1002 2.43294 12.1602 2.46271C12.2203 2.49248 12.2739 2.5339 12.3178 2.58457C12.9562 3.29884 13.3786 4.17961 13.5361 5.12449C13.6936 6.06938 13.5797 7.03956 13.2076 7.92225ZM4.8216 4.38044C4.52332 5.08651 4.43185 5.8628 4.55782 6.61886C4.68379 7.37492 5.02203 8.07961 5.53312 8.65083C5.62003 8.75108 5.66404 8.88149 5.65565 9.0139C5.64727 9.14632 5.58716 9.27013 5.4883 9.35862C5.38945 9.44711 5.25976 9.49319 5.12723 9.48691C4.99469 9.48064 4.86994 9.42251 4.77989 9.32507C3.94994 8.39867 3.491 7.19861 3.491 5.95482C3.491 4.71103 3.94994 3.51097 4.77989 2.58457C4.8693 2.48444 4.99483 2.42392 5.12885 2.41634C5.26288 2.40875 5.39443 2.45472 5.49457 2.54413C5.59471 2.63354 5.65522 2.75907 5.66281 2.8931C5.67039 3.02713 5.62442 3.15868 5.53501 3.25881C5.23675 3.59062 4.99567 3.96965 4.8216 4.38044ZM16.1326 5.9545C16.1357 7.93977 15.3573 9.84649 13.9658 11.2625C13.9198 11.3117 13.8644 11.3512 13.8029 11.3787C13.7413 11.4062 13.6749 11.4211 13.6075 11.4226C13.5402 11.424 13.4732 11.412 13.4105 11.3872C13.3479 11.3624 13.2908 11.3253 13.2427 11.2781C13.1946 11.2309 13.1564 11.1746 13.1303 11.1124C13.1043 11.0502 13.091 10.9835 13.0911 10.9161C13.0913 10.8487 13.1049 10.782 13.1312 10.72C13.1575 10.6579 13.1959 10.6017 13.2442 10.5547C14.4491 9.32719 15.1241 7.67583 15.1241 5.95577C15.1241 4.23571 14.4491 2.58435 13.2442 1.35679C13.15 1.2611 13.0977 1.13191 13.0988 0.99764C13.0998 0.863374 13.1542 0.735031 13.2499 0.640845C13.3456 0.546659 13.4748 0.494345 13.609 0.495412C13.7433 0.496478 13.8717 0.550838 13.9658 0.646532C15.3573 2.06252 16.1357 3.96924 16.1326 5.9545ZM3.85542 10.5535C3.90197 10.6009 3.93874 10.657 3.96361 10.7185C3.98849 10.7801 4.00099 10.846 4.0004 10.9124C3.99982 10.9789 3.98615 11.0445 3.96019 11.1057C3.93423 11.1668 3.89648 11.2222 3.8491 11.2688C3.80172 11.3153 3.74563 11.3521 3.68404 11.377C3.62245 11.4019 3.55656 11.4144 3.49013 11.4138C3.42371 11.4132 3.35805 11.3995 3.29691 11.3736C3.23577 11.3476 3.18034 11.3099 3.13379 11.2625C1.74246 9.84605 0.962891 7.93997 0.962891 5.9545C0.962891 3.96904 1.74246 2.06296 3.13379 0.646532C3.17982 0.597313 3.23524 0.557795 3.29677 0.530303C3.3583 0.50281 3.42471 0.487899 3.49208 0.486446C3.55946 0.484992 3.62645 0.497026 3.68911 0.521839C3.75177 0.546652 3.80883 0.583744 3.85695 0.630932C3.90507 0.678121 3.94326 0.734454 3.96929 0.796619C3.99531 0.858784 4.00865 0.925526 4.00851 0.99292C4.00836 1.06031 3.99475 1.127 3.96846 1.18905C3.94217 1.25111 3.90373 1.30728 3.85542 1.35426C2.65055 2.58182 1.97554 4.23318 1.97554 5.95324C1.97554 7.6733 2.65055 9.32466 3.85542 10.5522V10.5535Z" fill="#FF3257"/>
</svg>
