<svg width="62" height="19" viewBox="0 0 62 19" fill="none" xmlns="http://www.w3.org/2000/svg">
<path d="M0.5 14.4448V0.780799H4.0136V6.26592L8.77648 0.780799H12.6024L7.5272 6.40256L12.9928 14.4448H8.8936L5.14576 8.6864L4.0136 9.93568V14.4448H0.5Z" fill="#F66329"/>
<path d="M18.0627 14.5619C17.2298 14.5619 16.5466 14.4643 16.0131 14.2691C15.4795 14.0609 15.0826 13.69 14.8223 13.1565C14.5751 12.6099 14.4515 11.8226 14.4515 10.7946V0.780799H17.4575V10.3456C17.4575 10.9833 17.5421 11.4322 17.7113 11.6925C17.8935 11.9397 18.2644 12.0634 18.8239 12.0634C18.9801 12.0634 19.1102 12.0634 19.2143 12.0634C19.3184 12.0503 19.4226 12.0373 19.5267 12.0243V14.5034C19.3965 14.5164 19.2534 14.5229 19.0972 14.5229C18.9541 14.5359 18.7914 14.5424 18.6092 14.5424C18.4401 14.5554 18.2579 14.5619 18.0627 14.5619Z" fill="#F66329"/>
<path d="M21.2827 14.4448V4.0992H24.2888V14.4448H21.2827ZM22.7857 3.1232C22.2262 3.1232 21.7902 2.98005 21.4779 2.69376C21.1786 2.39445 21.0289 2.01707 21.0289 1.5616C21.0289 1.10613 21.1786 0.735253 21.4779 0.44896C21.7902 0.149653 22.2262 0 22.7857 0C23.3453 0 23.7748 0.149653 24.0741 0.44896C24.3864 0.735253 24.5425 1.10613 24.5425 1.5616C24.5425 2.01707 24.3864 2.39445 24.0741 2.69376C23.7748 2.98005 23.3453 3.1232 22.7857 3.1232Z" fill="#F66329"/>
<path d="M26.6393 18.3488V4.0992H29.4111V5.50464C29.6844 5.08821 30.0878 4.71083 30.6213 4.37248C31.1679 4.02112 31.8381 3.84544 32.6319 3.84544C34.0894 3.84544 35.1955 4.27488 35.9503 5.13376C36.7051 5.99264 37.0825 7.27445 37.0825 8.9792V9.3696C37.0825 10.5408 36.9003 11.5233 36.5359 12.3171C36.1715 13.0979 35.6575 13.69 34.9938 14.0934C34.3301 14.4969 33.5428 14.6986 32.6319 14.6986C32.0463 14.6986 31.4867 14.5684 30.9532 14.3082C30.4326 14.0349 29.9967 13.6445 29.6453 13.137V18.3488H26.6393ZM31.9097 12.2195C32.5083 12.2195 33.0028 11.9788 33.3932 11.4973C33.7966 11.0028 33.9983 10.2935 33.9983 9.3696V8.9792C33.9983 8.08128 33.8031 7.4176 33.4127 6.98816C33.0353 6.54571 32.5343 6.32448 31.9097 6.32448C31.4932 6.32448 31.1093 6.41557 30.758 6.59776C30.4196 6.76693 30.1464 7.0272 29.9381 7.37856C29.7429 7.72992 29.6453 8.16587 29.6453 8.6864V9.6624C29.6453 10.1959 29.7429 10.6579 29.9381 11.0483C30.1464 11.4257 30.4196 11.7185 30.758 11.9267C31.1093 12.1219 31.4932 12.2195 31.9097 12.2195Z" fill="#F66329"/>
<path d="M38.8438 18.3488V4.0992H41.6157V5.50464C41.889 5.08821 42.2924 4.71083 42.8259 4.37248C43.3725 4.02112 44.0427 3.84544 44.8365 3.84544C46.294 3.84544 47.4001 4.27488 48.1549 5.13376C48.9096 5.99264 49.287 7.27445 49.287 8.9792V9.3696C49.287 10.5408 49.1048 11.5233 48.7405 12.3171C48.3761 13.0979 47.8621 13.69 47.1984 14.0934C46.5347 14.4969 45.7474 14.6986 44.8365 14.6986C44.2509 14.6986 43.6913 14.5684 43.1578 14.3082C42.6372 14.0349 42.2013 13.6445 41.8499 13.137V18.3488H38.8438ZM44.1142 12.2195C44.7128 12.2195 45.2074 11.9788 45.5978 11.4973C46.0012 11.0028 46.2029 10.2935 46.2029 9.3696V8.9792C46.2029 8.08128 46.0077 7.4176 45.6173 6.98816C45.2399 6.54571 44.7389 6.32448 44.1142 6.32448C43.6978 6.32448 43.3139 6.41557 42.9626 6.59776C42.6242 6.76693 42.3509 7.0272 42.1427 7.37856C41.9475 7.72992 41.8499 8.16587 41.8499 8.6864V9.6624C41.8499 10.1959 41.9475 10.6579 42.1427 11.0483C42.3509 11.4257 42.6242 11.7185 42.9626 11.9267C43.3139 12.1219 43.6978 12.2195 44.1142 12.2195Z" fill="#DCDCDC"/>
<path d="M55.1086 14.6986C54.2107 14.6986 53.4233 14.4969 52.7466 14.0934C52.083 13.69 51.5689 13.0979 51.2046 12.3171C50.8402 11.5233 50.658 10.5408 50.658 9.3696V8.9792C50.658 7.86005 50.8337 6.92309 51.185 6.16832C51.5364 5.40053 52.0439 4.82144 52.7076 4.43104C53.3713 4.04064 54.1716 3.84544 55.1086 3.84544C55.6942 3.84544 56.2472 3.98208 56.7678 4.25536C57.3013 4.51563 57.7438 4.89952 58.0951 5.40704V0.780799H61.1012V14.4448H58.3294V13.0394C58.0691 13.4558 57.6592 13.8397 57.0996 14.191C56.5531 14.5294 55.8894 14.6986 55.1086 14.6986ZM55.8308 12.2195C56.2602 12.2195 56.6441 12.1219 56.9825 11.9267C57.3208 11.7185 57.5876 11.4257 57.7828 11.0483C57.991 10.6579 58.0951 10.1959 58.0951 9.6624V8.6864C58.0951 8.16587 57.991 7.72992 57.7828 7.37856C57.5876 7.0272 57.3208 6.76693 56.9825 6.59776C56.6441 6.41557 56.2602 6.32448 55.8308 6.32448C55.2192 6.32448 54.7182 6.54571 54.3278 6.98816C53.9374 7.4176 53.7422 8.08128 53.7422 8.9792V9.3696C53.7422 10.3066 53.9374 11.0158 54.3278 11.4973C54.7312 11.9788 55.2322 12.2195 55.8308 12.2195Z" fill="#DCDCDC"/>
</svg>
