<svg width="25" height="24" viewBox="0 0 25 24" fill="none" xmlns="http://www.w3.org/2000/svg">
<path d="M7.98047 18.35L11.0805 20.75C11.4805 21.15 12.3805 21.35 12.9805 21.35H16.7805C17.9805 21.35 19.2805 20.45 19.5805 19.25L21.9805 11.95C22.4805 10.55 21.5805 9.34997 20.0805 9.34997H16.0805C15.4805 9.34997 14.9805 8.84997 15.0805 8.14997L15.5805 4.94997C15.7805 4.04997 15.1805 3.04997 14.2805 2.74997C13.4805 2.44997 12.4805 2.84997 12.0805 3.44997L7.98047 9.54997" stroke="white" stroke-width="1.5" stroke-miterlimit="10"/>
<path d="M2.88086 18.3499V8.5499C2.88086 7.1499 3.48086 6.6499 4.88086 6.6499H5.88086C7.28086 6.6499 7.88086 7.1499 7.88086 8.5499V18.3499C7.88086 19.7499 7.28086 20.2499 5.88086 20.2499H4.88086C3.48086 20.2499 2.88086 19.7499 2.88086 18.3499Z" stroke="white" stroke-width="1.5" stroke-linecap="round" stroke-linejoin="round"/>
</svg>
