<svg width="12" height="12" viewBox="0 0 12 12" fill="none" xmlns="http://www.w3.org/2000/svg">
<path d="M2.9948 2.46433C3.14125 2.61078 3.14125 2.84821 2.9948 2.99466C1.33507 4.65439 1.33507 7.34535 2.9948 9.00505C3.14125 9.1515 3.14125 9.38895 2.9948 9.5354C2.84835 9.68185 2.61092 9.68185 2.46447 9.5354C0.511845 7.58275 0.511845 4.41695 2.46447 2.46433C2.61092 2.31788 2.84835 2.31788 2.9948 2.46433ZM9.53555 2.46433C11.4881 4.41695 11.4881 7.58275 9.53555 9.5354C9.3891 9.68185 9.15165 9.68185 9.0052 9.5354C8.85875 9.38895 8.85875 9.1515 9.0052 9.00505C10.665 7.34535 10.665 4.65439 9.0052 2.99466C8.85875 2.84821 8.85875 2.61078 9.0052 2.46433C9.15165 2.31788 9.3891 2.31788 9.53555 2.46433ZM4.40901 3.87854C4.55545 4.02499 4.55545 4.26243 4.40901 4.40887C3.53033 5.28755 3.53033 6.71215 4.40901 7.59085C4.55545 7.7373 4.55545 7.97475 4.40901 8.1212C4.26256 8.26765 4.02513 8.26765 3.87868 8.1212C2.70711 6.9496 2.70711 5.0501 3.87868 3.87854C4.02513 3.7321 4.26256 3.7321 4.40901 3.87854ZM8.1213 3.87854C9.2929 5.0501 9.2929 6.9496 8.1213 8.1212C7.97485 8.26765 7.73745 8.26765 7.591 8.1212C7.44455 7.97475 7.44455 7.7373 7.591 7.59085C8.46965 6.71215 8.46965 5.28755 7.591 4.40887C7.44455 4.26243 7.44455 4.02499 7.591 3.87854C7.73745 3.7321 7.97485 3.7321 8.1213 3.87854ZM6 5.24985C6.4142 5.24985 6.75 5.58565 6.75 5.99985C6.75 6.41405 6.4142 6.74985 6 6.74985C5.5858 6.74985 5.25 6.41405 5.25 5.99985C5.25 5.58565 5.5858 5.24985 6 5.24985Z" fill="white"/>
</svg>
