<svg width="20" height="21" viewBox="0 0 20 21" fill="none" xmlns="http://www.w3.org/2000/svg">
<path d="M8.32434 19.4833C7.82434 19.4833 7.34934 19.2333 7.02434 18.7917L6.02436 17.4583C6.02436 17.4667 5.98269 17.4417 5.96602 17.4417H5.65769C2.80769 17.4417 1.04102 16.6667 1.04102 12.825V9.49167C1.04102 5.98334 3.18269 5.06667 4.98269 4.90834C5.18269 4.88334 5.41602 4.875 5.65769 4.875H10.991C14.0077 4.875 15.6077 6.47501 15.6077 9.49167V12.825C15.6077 13.0667 15.5993 13.3 15.566 13.525C15.416 15.3 14.4994 17.4417 10.991 17.4417H10.6577L9.62434 18.7917C9.29934 19.2333 8.82434 19.4833 8.32434 19.4833ZM5.65769 6.125C5.46602 6.125 5.28269 6.13333 5.10769 6.15C3.17435 6.31667 2.29102 7.37501 2.29102 9.49167V12.825C2.29102 15.6833 3.17436 16.1917 5.65769 16.1917H5.99102C6.36602 16.1917 6.79101 16.4 7.02434 16.7L8.02435 18.0417C8.20769 18.2917 8.44102 18.2917 8.62435 18.0417L9.62434 16.7083C9.866 16.3833 10.2494 16.1917 10.6577 16.1917H10.991C13.1077 16.1917 14.166 15.3 14.3244 13.4C14.3494 13.2 14.3577 13.0167 14.3577 12.825V9.49167C14.3577 7.16667 13.316 6.125 10.991 6.125H5.65769Z" fill="white"/>
<path d="M8.32552 12.3249C7.85885 12.3249 7.49219 11.9499 7.49219 11.4915C7.49219 11.0332 7.86719 10.6582 8.32552 10.6582C8.78385 10.6582 9.15885 11.0332 9.15885 11.4915C9.15885 11.9499 8.79219 12.3249 8.32552 12.3249Z" fill="white"/>
<path d="M10.9915 12.3249C10.5249 12.3249 10.1582 11.9499 10.1582 11.4915C10.1582 11.0332 10.5332 10.6582 10.9915 10.6582C11.4499 10.6582 11.8249 11.0332 11.8249 11.4915C11.8249 11.9499 11.4499 12.3249 10.9915 12.3249Z" fill="white"/>
<path d="M5.66732 12.3249C5.20065 12.3249 4.83398 11.9499 4.83398 11.4915C4.83398 11.0332 5.20898 10.6582 5.66732 10.6582C6.12565 10.6582 6.50065 11.0332 6.50065 11.4915C6.50065 11.9499 6.12565 12.3249 5.66732 12.3249Z" fill="white"/>
<path d="M14.9497 14.0748C14.783 14.0748 14.6164 14.0082 14.4997 13.8832C14.3664 13.7498 14.308 13.5582 14.333 13.3748C14.358 13.1998 14.3664 13.0165 14.3664 12.8248V9.49151C14.3664 7.16651 13.3247 6.12484 10.9997 6.12484H5.66636C5.47469 6.12484 5.29138 6.13317 5.11638 6.14984C4.93305 6.17484 4.74137 6.10816 4.60804 5.98316C4.4747 5.84983 4.39969 5.66651 4.41636 5.48318C4.56636 3.68318 5.49136 1.5415 8.99969 1.5415H14.333C17.3497 1.5415 18.9497 3.14151 18.9497 6.15818V9.49151C18.9497 12.9998 16.808 13.9165 15.008 14.0748C14.983 14.0748 14.9664 14.0748 14.9497 14.0748ZM5.76638 4.87484H10.9914C14.008 4.87484 15.608 6.47484 15.608 9.49151V12.7165C17.0247 12.3665 17.6914 11.3248 17.6914 9.49151V6.15818C17.6914 3.83318 16.6497 2.7915 14.3247 2.7915H8.99138C7.15805 2.7915 6.12472 3.45817 5.76638 4.87484Z" fill="white"/>
</svg>
