<svg width="25" height="24" viewBox="0 0 25 24" fill="none" xmlns="http://www.w3.org/2000/svg">
<path d="M12.5 15.5C13.5609 15.5 14.5783 15.0786 15.3284 14.3284C16.0786 13.5783 16.5 12.5609 16.5 11.5V6C16.5 4.93913 16.0786 3.92172 15.3284 3.17157C14.5783 2.42143 13.5609 2 12.5 2C11.4391 2 10.4217 2.42143 9.67157 3.17157C8.92143 3.92172 8.5 4.93913 8.5 6V11.5C8.5 12.5609 8.92143 13.5783 9.67157 14.3284C10.4217 15.0786 11.4391 15.5 12.5 15.5Z" stroke="#5F5F5F" stroke-width="1.5" stroke-linecap="round" stroke-linejoin="round"/>
<path d="M4.84961 9.6499V11.3499C4.84961 13.3788 5.65559 15.3246 7.09024 16.7593C8.5249 18.1939 10.4707 18.9999 12.4996 18.9999C14.5285 18.9999 16.4743 18.1939 17.909 16.7593C19.3436 15.3246 20.1496 13.3788 20.1496 11.3499V9.6499" stroke="#5F5F5F" stroke-width="1.5" stroke-linecap="round" stroke-linejoin="round"/>
<path d="M11.1104 6.43012C12.0076 6.10012 12.9931 6.10012 13.8904 6.43012" stroke="#5F5F5F" stroke-width="1.5" stroke-linecap="round" stroke-linejoin="round"/>
<path d="M11.7002 8.54984C12.2277 8.40982 12.7827 8.40982 13.3102 8.54984" stroke="#5F5F5F" stroke-width="1.5" stroke-linecap="round" stroke-linejoin="round"/>
<path d="M12.5 19V22" stroke="#5F5F5F" stroke-width="1.5" stroke-linecap="round" stroke-linejoin="round"/>
</svg>
