<svg width="28" height="27" viewBox="0 0 28 27" fill="none" xmlns="http://www.w3.org/2000/svg">
<path d="M6.03159 16.7254C4.35001 16.7254 2.98926 15.3929 2.98926 13.7463C2.98926 12.0996 4.35001 10.7671 6.03159 10.7671C7.71317 10.7671 9.07392 12.0996 9.07392 13.7463C9.07392 15.3929 7.71317 16.7254 6.03159 16.7254ZM6.03159 12.3921C5.26824 12.3921 4.64871 12.9988 4.64871 13.7463C4.64871 14.4938 5.26824 15.1004 6.03159 15.1004C6.79494 15.1004 7.41446 14.4938 7.41446 13.7463C7.41446 12.9988 6.79494 12.3921 6.03159 12.3921Z" fill="white"/>
<path d="M21.5199 16.7254C19.8383 16.7254 18.4775 15.3929 18.4775 13.7463C18.4775 12.0996 19.8383 10.7671 21.5199 10.7671C23.2014 10.7671 24.5622 12.0996 24.5622 13.7463C24.5622 15.3929 23.2014 16.7254 21.5199 16.7254ZM21.5199 12.3921C20.7565 12.3921 20.137 12.9988 20.137 13.7463C20.137 14.4938 20.7565 15.1004 21.5199 15.1004C22.2832 15.1004 22.9027 14.4938 22.9027 13.7463C22.9027 12.9988 22.2832 12.3921 21.5199 12.3921Z" fill="white"/>
<path d="M13.7757 16.7254C12.0941 16.7254 10.7334 15.3929 10.7334 13.7463C10.7334 12.0996 12.0941 10.7671 13.7757 10.7671C15.4573 10.7671 16.8181 12.0996 16.8181 13.7463C16.8181 15.3929 15.4573 16.7254 13.7757 16.7254ZM13.7757 12.3921C13.0124 12.3921 12.3929 12.9988 12.3929 13.7463C12.3929 14.4938 13.0124 15.1004 13.7757 15.1004C14.5391 15.1004 15.1586 14.4938 15.1586 13.7463C15.1586 12.9988 14.5391 12.3921 13.7757 12.3921Z" fill="white"/>
</svg>
