<svg width="256" height="158" viewBox="0 0 256 158" fill="none" xmlns="http://www.w3.org/2000/svg">
<g clip-path="url(#clip0_7289_39902)">
<path d="M222.342 123.893C222.285 123.821 222.229 123.749 222.173 123.677C222.117 123.605 222.061 123.532 222.006 123.46C221.951 123.387 221.896 123.314 221.841 123.241C221.786 123.168 221.731 123.095 221.677 123.021C221.586 120.904 221.584 118.805 221.673 116.725C221.759 114.66 221.934 112.62 222.197 110.604C222.457 108.604 222.801 106.634 223.23 104.696C223.656 102.772 224.162 100.884 224.751 99.0332C224.818 98.8198 224.886 98.6073 224.956 98.3955C225.025 98.1838 225.096 97.9734 225.168 97.7645C225.24 97.5545 225.313 97.3455 225.387 97.1374C225.462 96.9293 225.537 96.722 225.613 96.5155C226.18 94.9697 226.804 93.4618 227.485 91.9918C228.162 90.532 228.892 89.1125 229.677 87.7335C230.455 86.3641 231.285 85.0369 232.167 83.7519C233.042 82.4765 233.966 81.2456 234.939 80.0594L235.092 79.8733L235.246 79.6882L235.4 79.5041L235.555 79.321L235.667 79.1896L235.779 79.0586C235.817 79.0152 235.855 78.9719 235.893 78.9287C235.931 78.8856 235.97 78.8429 236.009 78.8007L236.101 78.7501L236.193 78.7L236.285 78.65L236.376 78.6001L236.381 78.5983L236.387 78.5956L236.393 78.5928L236.399 78.5907L236.436 78.5706L236.472 78.5503L236.507 78.53L236.542 78.5096L236.701 78.4244L236.859 78.3405L237.018 78.2569L237.175 78.1724L237.055 78.1124L236.754 77.9627L236.756 77.9614C236.782 77.9725 236.807 77.9841 236.833 77.9964C236.858 78.0087 236.884 78.0205 236.909 78.0319C236.935 78.044 236.961 78.056 236.986 78.068C237.011 78.0799 237.036 78.0922 237.062 78.1048L237.091 78.1172L237.121 78.1298L237.15 78.1425C237.16 78.1464 237.17 78.1512 237.179 78.1566C237.187 78.1611 237.196 78.1648 237.205 78.1677L237.231 78.1788L237.257 78.1898L237.283 78.2009C238.379 78.7032 239.478 79.2132 240.563 79.748C241.648 80.2828 242.716 80.8402 243.756 81.4401C244.792 82.0353 245.797 82.6846 246.765 83.3853C247.731 84.0825 248.645 84.8486 249.5 85.6777C250.402 86.5591 251.209 87.5331 251.908 88.5834C252.598 89.6153 253.166 90.7243 253.6 91.8878C254.018 92.9953 254.266 94.1593 254.338 95.3406C254.407 96.477 254.247 97.6156 253.868 98.6889C253.817 98.8289 253.761 98.9669 253.702 99.1029C253.643 99.239 253.579 99.373 253.512 99.5049C253.445 99.6368 253.374 99.7664 253.299 99.8937C253.223 100.021 253.144 100.146 253.062 100.269C253.027 100.32 252.992 100.37 252.956 100.421C252.92 100.471 252.884 100.52 252.847 100.57C252.81 100.619 252.773 100.668 252.735 100.717C252.697 100.766 252.659 100.815 252.62 100.863C251.902 101.765 250.989 102.494 249.951 102.995C248.906 103.494 247.771 103.775 246.614 103.822C245.398 103.873 244.184 103.696 243.033 103.302C241.798 102.881 240.651 102.237 239.648 101.404C239.301 101.117 238.973 100.809 238.664 100.482C238.358 100.158 238.073 99.815 237.81 99.4554C237.549 99.0989 237.31 98.7263 237.096 98.3397C236.884 97.9561 236.697 97.5591 236.536 97.1513C236.46 98.4182 236.657 99.6866 237.113 100.871C237.593 102.116 238.247 103.288 239.054 104.351C239.907 105.483 240.853 106.542 241.883 107.516C242.919 108.51 244.02 109.441 245.108 110.299C246.195 111.157 247.321 112.034 248.411 112.949C249.5 113.849 250.537 114.81 251.516 115.828C252.466 116.811 253.306 117.895 254.021 119.06C254.724 120.21 255.233 121.468 255.526 122.783C255.839 124.216 255.823 125.702 255.479 127.127C255.312 127.821 255.074 128.496 254.768 129.141C254.46 129.791 254.091 130.41 253.666 130.991L253.626 131.044L253.587 131.097L253.546 131.15L253.505 131.202C252.467 132.558 251.165 133.688 249.677 134.525C248.928 134.945 248.139 135.29 247.321 135.553C246.484 135.823 245.622 136.008 244.748 136.107C243.085 136.26 241.409 136.164 239.774 135.822C238.091 135.47 236.455 134.923 234.899 134.191C233.29 133.438 231.752 132.542 230.303 131.514C228.842 130.48 227.459 129.34 226.164 128.104C225.82 127.776 225.483 127.443 225.151 127.103C224.819 126.763 224.494 126.417 224.175 126.066C223.856 125.715 223.544 125.358 223.239 124.996C222.933 124.634 222.635 124.267 222.342 123.893Z" fill="#A5A5A5"/>
<path d="M249.075 99.3619C248.048 98.8286 247.06 98.2224 246.119 97.5478C244.239 96.2008 242.56 94.5942 241.132 92.776C240.423 91.8738 239.781 90.9212 239.212 89.9256C238.736 89.0846 238.314 88.2145 237.948 87.3205C237.591 86.4483 237.29 85.5538 237.049 84.6427C236.812 83.7528 236.637 82.8481 236.522 81.9345C236.41 81.0397 236.36 80.1382 236.374 79.2364C236.376 79.1856 236.377 79.1351 236.378 79.0849C236.379 79.0347 236.38 78.9842 236.381 78.9333C236.383 78.8825 236.385 78.8323 236.387 78.7828L236.395 78.6329C236.352 78.6669 236.309 78.7013 236.266 78.736L236.137 78.8405L236.009 78.9459L235.881 79.0516L235.8 79.1194L235.717 79.1878L235.636 79.2566L235.555 79.3255L235.666 79.1944L235.781 79.059C235.818 79.0155 235.856 78.9722 235.894 78.9291C235.932 78.886 235.971 78.8433 236.01 78.8011L236.103 78.7505L236.194 78.7004L236.284 78.6505L236.375 78.6006L236.381 78.5988L236.387 78.596L236.392 78.5933L236.398 78.5912L236.435 78.5711L236.471 78.5509L236.507 78.5306L236.542 78.5102L236.701 78.425L236.859 78.3411L237.017 78.2575L237.175 78.1736L237.052 78.1122L236.751 77.9622L236.753 77.9609C236.779 77.972 236.804 77.9837 236.83 77.9959C236.855 78.0082 236.881 78.02 236.907 78.0314C236.932 78.0435 236.958 78.0555 236.983 78.0675C237.008 78.0794 237.033 78.0917 237.059 78.1043L237.088 78.1167L237.118 78.1293L237.147 78.142C237.157 78.1459 237.167 78.1506 237.176 78.156L237.173 78.2039L237.17 78.2486L237.167 78.2931L237.165 78.3383C237.054 79.8572 237.133 81.3839 237.4 82.8832C237.675 84.4264 238.127 85.933 238.746 87.3732C239.385 88.864 240.185 90.2809 241.13 91.5992C242.107 92.9628 243.227 94.2185 244.469 95.3453C245.72 96.4637 247.085 97.4482 248.54 98.2826C249.259 98.6946 250 99.0681 250.758 99.4016C251.511 99.7318 252.28 100.021 253.064 100.268C253.029 100.319 252.994 100.369 252.958 100.42C252.922 100.47 252.886 100.52 252.849 100.569C252.812 100.618 252.774 100.667 252.736 100.716C252.699 100.765 252.66 100.814 252.622 100.862C252.319 100.762 252.019 100.655 251.72 100.542C251.421 100.43 251.123 100.311 250.828 100.185C250.532 100.06 250.238 99.9289 249.946 99.7913C249.654 99.6538 249.364 99.5106 249.075 99.3619Z" fill="white"/>
<path d="M228.733 110.713C228.397 110.211 228.079 109.699 227.781 109.178C227.482 108.657 227.203 108.129 226.943 107.594C226.684 107.058 226.444 106.516 226.224 105.967C226.004 105.418 225.805 104.864 225.626 104.305C225.535 104.009 225.451 103.711 225.374 103.413C225.297 103.115 225.227 102.816 225.165 102.516C225.102 102.217 225.047 101.917 224.998 101.616C224.95 101.316 224.909 101.015 224.876 100.715C224.859 100.575 224.844 100.435 224.83 100.295C224.817 100.154 224.805 100.014 224.794 99.8736C224.784 99.7332 224.775 99.593 224.768 99.453C224.76 99.3129 224.754 99.173 224.75 99.0334C224.817 98.82 224.885 98.6075 224.955 98.3957C225.024 98.184 225.095 97.9731 225.167 97.7632C225.238 97.5532 225.311 97.3442 225.386 97.1361C225.46 96.928 225.535 96.7207 225.612 96.5142C225.595 96.6872 225.581 96.8607 225.569 97.0346C225.557 97.2085 225.548 97.3829 225.541 97.5579C225.534 97.7328 225.529 97.9082 225.527 98.0841C225.525 98.2599 225.526 98.4361 225.528 98.6126C225.528 98.7088 225.529 98.805 225.531 98.9011C225.533 98.9973 225.535 99.0935 225.539 99.1897C225.542 99.2859 225.546 99.382 225.551 99.4783C225.556 99.5745 225.562 99.6707 225.568 99.7669C225.642 100.846 225.812 101.917 226.075 102.967C226.341 104.029 226.688 105.069 227.113 106.078C227.546 107.107 228.046 108.106 228.609 109.07C229.181 110.051 229.807 110.999 230.483 111.911C231.212 112.896 231.981 113.854 232.792 114.787C233.604 115.72 234.446 116.627 235.318 117.509C236.192 118.389 237.091 119.243 238.016 120.069C238.941 120.895 239.881 121.693 240.837 122.462C241.816 123.252 242.814 124.012 243.832 124.741C244.851 125.471 245.886 126.169 246.937 126.835C247.988 127.5 249.055 128.133 250.138 128.734C251.22 129.335 252.315 129.901 253.422 130.433C253.473 130.458 253.519 130.492 253.558 130.533C253.596 130.573 253.626 130.62 253.648 130.671C253.67 130.721 253.683 130.775 253.687 130.829C253.69 130.884 253.683 130.939 253.665 130.992C253.66 131.014 253.652 131.036 253.642 131.057C253.632 131.077 253.62 131.097 253.606 131.115C253.593 131.133 253.577 131.149 253.56 131.164C253.543 131.178 253.525 131.191 253.505 131.201C253.484 131.211 253.462 131.218 253.44 131.222C253.417 131.226 253.395 131.227 253.372 131.225C253.348 131.224 253.325 131.219 253.303 131.212C253.28 131.206 253.258 131.196 253.237 131.184C253.1 131.119 252.963 131.053 252.827 130.987C252.69 130.92 252.553 130.854 252.417 130.787C252.281 130.72 252.145 130.652 252.009 130.584C251.873 130.516 251.738 130.447 251.602 130.377C250.474 129.797 249.36 129.183 248.262 128.534C247.164 127.885 246.082 127.202 245.017 126.485C243.952 125.768 242.906 125.02 241.879 124.239C240.853 123.458 239.848 122.646 238.865 121.803C237.915 120.991 236.978 120.152 236.063 119.284C235.147 118.417 234.255 117.521 233.396 116.597C232.538 115.673 231.713 114.721 230.931 113.74C230.15 112.759 229.415 111.751 228.733 110.713Z" fill="white"/>
<path d="M249.992 30.0877L249.184 30.1927L254.603 9.85467C255.003 8.49663 255.068 7.06217 254.793 5.67358C254.554 4.53897 253.965 3.50826 253.107 2.72769C252.209 1.94723 251.109 1.43656 249.933 1.25461C248.501 1.03286 247.039 1.09831 245.632 1.44716L208.798 9.83413C207.512 10.146 206.282 10.6521 205.149 11.3351C203.917 12.0677 202.771 12.9364 201.733 13.9249C200.665 14.9328 199.706 16.0507 198.873 17.2598C198.058 18.4301 197.395 19.6982 196.897 21.0341L158.358 127.018C157.717 128.761 157.301 130.578 157.119 132.426C156.951 134.066 157.03 135.723 157.355 137.339C157.627 138.744 158.194 140.075 159.019 141.244C159.775 142.307 160.841 143.111 162.071 143.546L200.989 156.941C202.717 157.53 204.573 157.64 206.36 157.261C208.269 156.845 210.065 156.018 211.623 154.838C213.372 153.524 214.876 151.912 216.066 150.077C217.385 148.06 218.37 145.845 218.983 143.515L245.075 45.6075L245.893 45.5419L249.992 30.0877Z" fill="#5C5C5C"/>
<path d="M247.177 28.9617L246.369 29.0667L251.789 8.7287C252.188 7.37065 252.253 5.93619 251.978 4.5476C251.74 3.413 251.15 2.38228 250.293 1.60171C249.395 0.821255 248.294 0.310588 247.118 0.128636C245.686 -0.0931206 244.224 -0.0276702 242.817 0.321179L205.984 8.70815C204.698 9.02002 203.467 9.52616 202.335 10.2091C201.102 10.9417 199.956 11.8104 198.918 12.7989C197.85 13.8069 196.892 14.9247 196.058 16.1338C195.244 17.3041 194.58 18.5722 194.083 19.9081L155.544 125.892C154.903 127.635 154.487 129.452 154.305 131.3C154.136 132.94 154.216 134.597 154.541 136.213C154.812 137.618 155.379 138.949 156.204 140.118C156.961 141.181 158.027 141.985 159.257 142.42L198.174 155.815C199.903 156.404 201.759 156.514 203.545 156.135C205.455 155.719 207.251 154.892 208.809 153.712C210.558 152.398 212.062 150.786 213.252 148.951C214.57 146.934 215.555 144.719 216.169 142.389L242.26 44.4815L243.079 44.416L247.177 28.9617Z" fill="#C4C4C4"/>
<path d="M242.49 2.9749L237.076 4.16086C237.135 4.62923 237.088 5.10491 236.939 5.55287C236.771 6.07684 236.526 6.57324 236.213 7.02623C235.509 8.05462 234.569 8.89996 233.473 9.49188C233.341 9.56169 233.21 9.62615 233.08 9.68527C232.949 9.74438 232.819 9.79805 232.688 9.84628C232.559 9.89451 232.43 9.93711 232.301 9.97408C232.173 10.0111 232.046 10.0422 231.921 10.0675L210.752 14.3534C210.359 14.4446 209.95 14.44 209.56 14.3398C209.245 14.2555 208.968 14.0686 208.771 13.8089C208.573 13.5301 208.461 13.1993 208.45 12.8575C208.434 12.4215 208.502 11.9865 208.653 11.5769C208.69 11.4664 208.733 11.3551 208.781 11.2431C208.829 11.131 208.882 11.019 208.938 10.907C208.995 10.7944 209.056 10.6823 209.123 10.5709C209.189 10.4594 209.26 10.348 209.334 10.2367L205.325 11.1147C204.36 11.3411 203.435 11.7152 202.584 12.2238C201.654 12.7716 200.789 13.4232 200.006 14.1662C199.199 14.9252 198.475 15.7681 197.847 16.6805C197.234 17.5622 196.736 18.5182 196.364 19.5256L157.898 126.431C157.419 127.744 157.112 129.114 156.984 130.506C156.865 131.735 156.935 132.975 157.191 134.183C157.405 135.226 157.84 136.212 158.469 137.072C159.045 137.853 159.848 138.436 160.768 138.743L199.972 151.478C201.265 151.892 202.646 151.954 203.971 151.657C205.383 151.334 206.709 150.712 207.859 149.833C209.146 148.858 210.255 147.668 211.134 146.314C212.108 144.827 212.838 143.195 213.299 141.479L249.118 9.32016C249.419 8.31133 249.475 7.24538 249.281 6.21073C249.112 5.36284 248.684 4.58864 248.054 3.99618C247.394 3.40385 246.58 3.01128 245.705 2.86427C244.637 2.68493 243.543 2.72255 242.49 2.9749Z" fill="#1B1B1B"/>
<path d="M221.467 53.6062H143.48V27.1831H221.467V53.6062Z" fill="#828282"/>
<path d="M198.666 62.9321H122.234V99.9762H198.666V62.9321Z" fill="#828282"/>
<path d="M134.652 80.721C137.705 80.721 140.18 78.2461 140.18 75.1932C140.18 72.1404 137.705 69.6655 134.652 69.6655C131.598 69.6655 129.123 72.1404 129.123 75.1932C129.123 78.2461 131.598 80.721 134.652 80.721Z" fill="#F66329"/>
<path d="M147.419 71.5078C147.175 71.5078 146.941 71.6049 146.768 71.7777C146.595 71.9504 146.498 72.1848 146.498 72.4291C146.498 72.6734 146.595 72.9078 146.768 73.0805C146.941 73.2533 147.175 73.3504 147.419 73.3504H190.859C191.103 73.3498 191.336 73.2524 191.509 73.0797C191.681 72.907 191.778 72.673 191.778 72.4291C191.778 72.1852 191.681 71.9512 191.509 71.7785C191.336 71.6057 191.103 71.5084 190.859 71.5078H147.419Z" fill="#C4C4C4"/>
<path d="M147.421 77.0356C147.3 77.0352 147.18 77.0587 147.068 77.1047C146.955 77.1507 146.854 77.2183 146.768 77.3037C146.682 77.3891 146.614 77.4905 146.567 77.6023C146.52 77.7141 146.496 77.8339 146.496 77.955C146.496 78.0761 146.519 78.196 146.566 78.308C146.612 78.4199 146.68 78.5217 146.765 78.6074C146.851 78.6932 146.952 78.7612 147.064 78.8077C147.176 78.8542 147.296 78.8781 147.417 78.8782H166.113C166.234 78.8782 166.353 78.8544 166.465 78.8081C166.577 78.7618 166.679 78.6939 166.764 78.6084C166.85 78.5228 166.918 78.4213 166.964 78.3095C167.01 78.1977 167.034 78.0779 167.034 77.9569C167.034 77.836 167.01 77.7162 166.964 77.6044C166.918 77.4926 166.85 77.391 166.764 77.3055C166.679 77.2199 166.577 77.1521 166.465 77.1058C166.353 77.0595 166.234 77.0356 166.113 77.0356H147.421Z" fill="#C4C4C4"/>
<path d="M130.412 85.873C129.711 85.873 129.141 86.2864 129.141 86.7943C129.141 87.3023 129.711 87.7156 130.412 87.7156H190.345C191.045 87.7156 191.616 87.3023 191.616 86.7943C191.616 86.2864 191.045 85.873 190.345 85.873H130.412Z" fill="#C4C4C4"/>
<path d="M130.412 91.4004C129.711 91.4004 129.141 91.8137 129.141 92.3217C129.141 92.8296 129.711 93.2429 130.412 93.2429H176.549C177.25 93.2429 177.82 92.8296 177.82 92.3217C177.82 91.8137 177.25 91.4004 176.549 91.4004H130.412Z" fill="#C4C4C4"/>
<path d="M199.444 100.753H121.457V62.1548H199.444V100.753ZM123.012 99.1989H197.889V63.7091H123.012V99.1989Z" fill="#B4B4B4"/>
<path d="M156.675 45.7493C159.728 45.7493 162.204 43.2744 162.204 40.2216C162.204 37.1687 159.728 34.6938 156.675 34.6938C153.622 34.6938 151.146 37.1687 151.146 40.2216C151.146 43.2744 153.622 45.7493 156.675 45.7493Z" fill="#F66329"/>
<path d="M169.443 36.5361C169.199 36.5361 168.964 36.6332 168.791 36.806C168.619 36.9787 168.521 37.2131 168.521 37.4574C168.521 37.7018 168.619 37.9361 168.791 38.1089C168.964 38.2816 169.199 38.3787 169.443 38.3787H212.882C213.126 38.3781 213.36 38.2808 213.532 38.1081C213.704 37.9354 213.801 37.7014 213.801 37.4574C213.801 37.2135 213.704 36.9795 213.532 36.8068C213.36 36.6341 213.126 36.5367 212.882 36.5361H169.443Z" fill="white"/>
<path d="M169.442 42.064C169.321 42.0636 169.201 42.087 169.089 42.133C168.977 42.179 168.875 42.2466 168.789 42.332C168.703 42.4174 168.635 42.5189 168.589 42.6306C168.542 42.7424 168.518 42.8622 168.518 42.9833C168.517 43.1044 168.541 43.2243 168.587 43.3363C168.633 43.4482 168.701 43.55 168.787 43.6358C168.872 43.7215 168.974 43.7895 169.085 43.836C169.197 43.8825 169.317 43.9064 169.438 43.9065H203.619C203.863 43.9065 204.098 43.8095 204.271 43.6367C204.443 43.4639 204.54 43.2296 204.54 42.9853C204.54 42.7409 204.443 42.5066 204.271 42.3338C204.098 42.161 203.863 42.064 203.619 42.064H169.442Z" fill="white"/>
<path d="M221.467 53.6062H143.48V27.1831H221.467V53.6062ZM145.035 52.0519H219.912V28.7374H145.035V52.0519Z" fill="#7A7A7A"/>
<path d="M68.2313 154.258H72.1625L74.0328 139.097L68.2305 139.097L68.2313 154.258Z" fill="#FFB6B6"/>
<path d="M79.7441 157.907L67.3887 157.908L67.3885 153.135L75.5526 153.135C76.6642 153.134 77.7303 153.576 78.5164 154.362C79.3024 155.148 79.7441 156.214 79.7441 157.325L79.7441 157.907Z" fill="#5C5C5C"/>
<path d="M28.9219 149.164L32.3668 151.058L41.3115 138.673L36.2271 135.878L28.9219 149.164Z" fill="#FFB6B6"/>
<path d="M37.252 157.908L26.4249 151.956L28.7247 147.774L35.8789 151.706C36.853 152.242 37.5745 153.142 37.8846 154.209C38.1947 155.277 38.0681 156.424 37.5325 157.397L37.252 157.908Z" fill="#5C5C5C"/>
<path d="M68.0489 145.843C67.6986 145.842 67.3603 145.715 67.0973 145.483C66.8342 145.252 66.6643 144.933 66.6193 144.586L61.7028 106.706C61.681 106.538 61.6069 106.382 61.491 106.259C61.375 106.136 61.2232 106.053 61.0572 106.021C60.8912 105.99 60.7195 106.012 60.5666 106.084C60.4137 106.155 60.2874 106.274 60.2058 106.422L39.7158 143.591C39.5467 143.894 39.2743 144.127 38.9482 144.246C38.622 144.366 38.2637 144.365 37.9384 144.243L33.4722 142.541C33.2926 142.473 33.1284 142.369 32.9894 142.237C32.8504 142.104 32.7393 141.945 32.6626 141.768C32.586 141.592 32.5453 141.402 32.5431 141.21C32.5408 141.018 32.577 140.827 32.6494 140.649L46.8434 105.787C46.8793 105.698 46.9037 105.605 46.9159 105.511C48.8383 90.6332 53.7298 83.0675 55.1831 81.1031C55.2893 80.9588 55.3591 80.791 55.3868 80.6139C55.4145 80.4369 55.3991 80.2558 55.3421 80.0859L55.1423 79.4866C55.0625 79.2488 55.0462 78.9942 55.0949 78.7481C55.1436 78.502 55.2556 78.2729 55.42 78.0833C60.6569 72.1194 69.7845 75.3738 69.8761 75.4073L69.9218 75.4242L69.9505 75.4633C80.1852 89.4973 76.4011 135.079 75.5386 144.074C75.5064 144.412 75.3557 144.728 75.1131 144.966C74.8705 145.203 74.5516 145.347 74.213 145.373L68.1609 145.839C68.1233 145.841 68.086 145.843 68.0489 145.843Z" fill="#5C5C5C"/>
<path d="M65.2724 40.5888C70.1043 40.5888 74.0214 36.6724 74.0214 31.8413C74.0214 27.0102 70.1043 23.0938 65.2724 23.0938C60.4405 23.0938 56.5234 27.0102 56.5234 31.8413C56.5234 36.6724 60.4405 40.5888 65.2724 40.5888Z" fill="#FFB8B8"/>
<path d="M51.748 87.5036L77.4924 89.8463C75.2479 82.0431 73.1915 74.2673 74.8677 66.5196C76.9962 59.6027 77.1941 55.771 71.579 52.5134L67.7878 44.0574L60.9264 43.808L57.5807 42.8911C54.8777 47.2364 53.772 52.3871 54.4534 57.4587C55.9078 68.4873 55.5151 78.7212 51.748 87.5036Z" fill="#F66329"/>
<path d="M55.6544 48.469L53.0649 36.5856C52.5246 33.7726 52.6602 30.8716 53.4604 28.1212C53.5476 27.8394 53.6526 27.5634 53.7749 27.2949C54.4917 25.733 55.6187 24.3946 57.036 23.4224C58.4532 22.4501 60.1076 21.8802 61.823 21.7735C67.7081 21.367 68.5721 21.9874 68.7849 22.2933C72.1104 22.1591 74.6891 23.4437 75.8657 25.8209C75.9809 26.0568 76.043 26.3152 76.0476 26.5777C76.0522 26.8402 75.9991 27.1006 75.8921 27.3404C75.7852 27.5802 75.627 27.7937 75.4286 27.9658C75.2302 28.1378 74.9965 28.2643 74.7439 28.3363C73.1004 28.8101 70.7903 29.3364 69.0578 29.1817C65.585 33.3464 67.0047 40.977 70.528 45.5234L70.6664 45.7021L67.1756 46.4174L63.1191 40.7691C63.0388 40.6574 62.9226 40.5765 62.7899 40.5402C62.6571 40.5038 62.5159 40.5141 62.3899 40.5693C62.2638 40.6245 62.1606 40.7213 62.0973 40.8435C62.0341 40.9657 62.0147 41.106 62.0425 41.2407L63.2741 47.2229L55.6544 48.469Z" fill="#5C5C5C"/>
<path d="M244.872 158H0.75V157.386H244.983L244.872 158Z" fill="#CACACA"/>
<path d="M105.661 80.4674L41.9871 125.488L26.7285 103.914L90.4027 58.8936L105.661 80.4674Z" fill="#828282"/>
<path d="M48.2224 111.456C50.7154 109.693 51.3072 106.243 49.5443 103.751C47.7813 101.258 44.3312 100.666 41.8382 102.429C39.3452 104.192 38.7534 107.641 40.5163 110.134C42.2793 112.626 45.7294 113.218 48.2224 111.456Z" fill="#F66329"/>
<path d="M53.3289 96.5624C53.1294 96.7034 52.994 96.918 52.9527 97.1588C52.9114 97.3996 52.9675 97.647 53.1086 97.8465C53.2497 98.046 53.4642 98.1813 53.7051 98.2226C53.946 98.2639 54.1934 98.2078 54.3929 98.0668L89.8599 72.99C90.0588 72.8487 90.1935 72.6343 90.2344 72.3938C90.2753 72.1533 90.2192 71.9064 90.0784 71.7072C89.9375 71.5081 89.7234 71.3729 89.483 71.3313C89.2425 71.2898 88.9955 71.3453 88.7959 71.4856L53.3289 96.5624Z" fill="#E6E6E6"/>
<path d="M56.5211 101.076C56.3215 101.216 56.186 101.431 56.1444 101.671C56.1027 101.912 56.1583 102.159 56.2988 102.359C56.4394 102.558 56.6535 102.694 56.8941 102.736C57.1347 102.778 57.3821 102.723 57.5819 102.582L57.5851 102.58L85.4898 82.8503C85.6893 82.7092 85.8246 82.4946 85.8659 82.2538C85.9072 82.013 85.8512 81.7656 85.7101 81.5661C85.6402 81.4673 85.5516 81.3833 85.4492 81.3188C85.3469 81.2542 85.2328 81.2105 85.1135 81.19C84.8727 81.1487 84.6253 81.2048 84.4257 81.3458L56.5211 101.076Z" fill="#E6E6E6"/>
<path d="M105.661 80.4674L41.9871 125.488L26.7285 103.914L90.4027 58.8936L105.661 80.4674ZM42.3588 123.321L103.494 80.0957L90.031 61.06L28.8953 104.286L42.3588 123.321Z" fill="#A5A5A5"/>
<path d="M251.055 72.4744C251.281 72.4656 251.506 72.504 251.717 72.587C251.916 72.6669 252.097 72.7871 252.248 72.9402C252.399 73.0943 252.518 73.2777 252.595 73.4793C252.677 73.693 252.715 73.9212 252.705 74.1498C252.696 74.3844 252.641 74.615 252.544 74.8288C252.45 75.0385 252.318 75.2293 252.155 75.3918C251.993 75.5536 251.803 75.6844 251.594 75.778C251.382 75.8731 251.154 75.9253 250.922 75.9317C250.696 75.9385 250.471 75.8982 250.261 75.8132C250.063 75.7321 249.883 75.6109 249.733 75.4571C249.583 75.3026 249.466 75.1191 249.39 74.9178C249.309 74.7048 249.273 74.4778 249.283 74.2503C249.292 74.0169 249.347 73.7875 249.443 73.5747C249.537 73.3671 249.668 73.1781 249.829 73.0168C249.99 72.8554 250.178 72.7244 250.386 72.6303C250.597 72.5349 250.824 72.4819 251.055 72.4744Z" fill="#F2F2F2"/>
<path d="M72.0387 94.42L67.898 71.7881L68.1896 57.7921L58.8574 57.5005L60.6072 73.2461L66.6413 95.0801C66.1404 95.6887 65.8335 96.4335 65.7602 97.2182C65.6868 98.003 65.8504 98.7917 66.2297 99.4826C66.609 100.174 67.1868 100.735 67.8883 101.094C68.5899 101.454 69.3831 101.595 70.1656 101.499C70.948 101.403 71.6839 101.075 72.2781 100.558C72.8723 100.04 73.2977 99.3556 73.4993 98.5937C73.7009 97.8317 73.6695 97.0268 73.4092 96.2829C73.1488 95.5389 72.6714 94.8901 72.0387 94.42Z" fill="#FFB8B8"/>
<path d="M58.2734 58.9586C61.6545 57.671 65.3911 57.671 68.7722 58.9586L68.1889 47.2952C68.1889 46.6826 68.0682 46.0759 67.8337 45.5099C67.5992 44.9438 67.2555 44.4295 66.8222 43.9963C66.389 43.5631 65.8746 43.2195 65.3085 42.985C64.7423 42.7505 64.1356 42.6299 63.5228 42.6299C62.9101 42.6299 62.3033 42.7505 61.7372 42.985C61.1711 43.2195 60.6567 43.5631 60.2234 43.9963C59.7901 44.4295 59.4464 44.9438 59.2119 45.5099C58.9774 46.0759 58.8567 46.6826 58.8567 47.2952L58.2734 58.9586Z" fill="#F66329"/>
</g>
<defs>
<clipPath id="clip0_7289_39902">
<rect width="255" height="158" fill="white" transform="translate(0.75)"/>
</clipPath>
</defs>
</svg>
