<svg width="20" height="21" viewBox="0 0 20 21" fill="none" xmlns="http://www.w3.org/2000/svg">
<path d="M10 9.2667C9.65833 9.2667 9.375 8.98337 9.375 8.6417V5.8667C9.375 5.52503 9.65833 5.2417 10 5.2417C10.3417 5.2417 10.625 5.52503 10.625 5.8667V8.6417C10.625 8.9917 10.3417 9.2667 10 9.2667Z" fill="white"/>
<path d="M10.0167 17.4582C7.86672 17.4582 5.72505 17.1165 3.68339 16.4332C2.92505 16.1832 2.35005 15.6415 2.10005 14.9582C1.85005 14.2749 1.93339 13.4915 2.34172 12.8082L3.40005 11.0415C3.63339 10.6499 3.84172 9.91654 3.84172 9.4582V7.7082C3.84172 4.29987 6.60839 1.5332 10.0167 1.5332C13.4251 1.5332 16.1917 4.29987 16.1917 7.7082V9.4582C16.1917 9.9082 16.4001 10.6499 16.6334 11.0415L17.6917 12.8082C18.0834 13.4582 18.1501 14.2332 17.8917 14.9415C17.6334 15.6499 17.0667 16.1915 16.3501 16.4332C14.3084 17.1249 12.1667 17.4582 10.0167 17.4582ZM10.0167 2.79154C7.30005 2.79154 5.09172 4.99987 5.09172 7.71654V9.46654C5.09172 10.1415 4.82505 11.1165 4.47505 11.6915L3.41672 13.4665C3.20005 13.8249 3.15005 14.2082 3.27505 14.5415C3.40005 14.8749 3.68339 15.1249 4.08339 15.2582C7.91672 16.5332 12.1334 16.5332 15.9667 15.2582C16.3251 15.1415 16.6001 14.8749 16.7251 14.5249C16.8584 14.1749 16.8167 13.7915 16.6251 13.4665L15.5667 11.6999C15.2167 11.1249 14.9501 10.1499 14.9501 9.47487V7.72487C14.9417 4.99987 12.7334 2.79154 10.0167 2.79154Z" fill="white"/>
<path d="M9.99961 19.5831C9.10794 19.5831 8.23294 19.2164 7.59961 18.5831C6.96628 17.9498 6.59961 17.0748 6.59961 16.1831H7.84961C7.84961 16.7498 8.08294 17.2998 8.48294 17.6998C8.88294 18.0998 9.43294 18.3331 9.99961 18.3331C11.1829 18.3331 12.1496 17.3664 12.1496 16.1831H13.3996C13.3996 18.0581 11.8746 19.5831 9.99961 19.5831Z" fill="white"/>
</svg>
