<svg width="22" height="22" viewBox="0 0 22 22" fill="none" xmlns="http://www.w3.org/2000/svg">
<path d="M18.4875 3.51349L18.4896 3.51563C19.1177 4.13648 19.3633 5.02153 19.1459 5.88392L19.1456 5.88505L17.0019 14.4688L17.0017 14.4694C16.6901 15.7233 15.7182 16.6884 14.4701 17.0004L5.88651 19.1441L5.87796 19.1463L5.86949 19.1487C5.68222 19.2022 5.4789 19.2248 5.26997 19.2248C4.62445 19.2248 3.99517 18.967 3.51357 18.4934C2.88367 17.8626 2.63949 16.9766 2.85654 16.1156L2.85682 16.1145L5.00054 7.53084C5.00055 7.5308 5.00056 7.53075 5.00057 7.53071C5.31262 6.28271 6.27772 5.31083 7.53157 4.99926L7.5323 4.99908L16.1073 2.85533L16.1083 2.85508C16.9699 2.63786 17.8566 2.88256 18.4875 3.51349ZM7.08122 10.9998C7.08122 13.1622 8.83877 14.9198 11.0012 14.9198C13.1637 14.9198 14.9212 13.1622 14.9212 10.9998C14.9212 8.83731 13.1637 7.07975 11.0012 7.07975C8.83877 7.07975 7.08122 8.83731 7.08122 10.9998Z" stroke="#D0D0D0" stroke-width="1.05"/>
</svg>
