<svg width="24" height="24" viewBox="0 0 24 24" fill="none" xmlns="http://www.w3.org/2000/svg">
<path d="M9.5 1.79688H11.5C11.608 1.79688 11.7031 1.89203 11.7031 2C11.7031 2.10797 11.608 2.20312 11.5 2.20312H9.5C7.15642 2.20312 5.40502 2.61451 4.25977 3.75977C3.11451 4.90502 2.70312 6.65642 2.70312 9V15C2.70312 17.3436 3.11451 19.095 4.25977 20.2402C5.40502 21.3855 7.15642 21.7969 9.5 21.7969H15.5C17.8436 21.7969 19.595 21.3855 20.7402 20.2402C21.8855 19.095 22.2969 17.3436 22.2969 15V13C22.2969 12.892 22.392 12.7969 22.5 12.7969C22.608 12.7969 22.7031 12.892 22.7031 13V15C22.7031 17.6522 22.1343 19.4146 21.0244 20.5244C19.9146 21.6343 18.1522 22.2031 15.5 22.2031H9.5C6.84778 22.2031 5.08544 21.6343 3.97559 20.5244C2.86573 19.4146 2.29688 17.6522 2.29688 15V9C2.29688 6.34778 2.86573 4.58544 3.97559 3.47559C5.08544 2.36573 6.84778 1.79688 9.5 1.79688Z" fill="white" stroke="white" stroke-width="1.09375"/>
<path d="M19.0103 1.54443C19.7674 1.54456 20.5807 1.8945 21.4487 2.70752L21.6235 2.87646C22.6426 3.89556 23.0245 4.85587 22.9438 5.75146C22.8785 6.39035 22.5706 7.05715 21.9243 7.77783L21.6255 8.09131L21.6235 8.09326L13.7427 15.9731C13.4557 16.26 12.9292 16.544 12.4946 16.6528L12.3149 16.688L12.312 16.689L9.30225 17.1187L9.27979 17.1216L9.25732 17.1274C9.19734 17.1413 9.12782 17.1431 8.99951 17.1431C8.52319 17.143 8.10398 16.9728 7.80322 16.6802C7.49705 16.3721 7.32865 15.9292 7.3501 15.4214L7.37061 15.1997L7.37158 15.1978L7.80127 12.187V12.1851C7.85665 11.7835 8.11151 11.2417 8.39404 10.8931L8.51611 10.7563L16.397 2.87646C17.3308 1.9428 18.2026 1.54443 19.0103 1.54443ZM18.7935 1.96533C18.0742 2.0319 17.4597 2.44123 16.9146 2.94189L16.6851 3.16162L8.80322 11.0435C8.64935 11.1973 8.51603 11.4132 8.42041 11.603C8.34867 11.7455 8.27813 11.9122 8.23389 12.0757L8.19971 12.2368L8.19873 12.2427L7.76807 15.2524V15.2554C7.71419 15.6461 7.7803 16.084 8.09326 16.397C8.36717 16.6708 8.73661 16.7551 9.08643 16.7358L9.23486 16.7222L9.23682 16.7212L12.2476 16.2915L12.2534 16.2905C12.4625 16.2583 12.6974 16.1666 12.8892 16.0708C13.0739 15.9785 13.2915 15.8447 13.4458 15.686L13.4468 15.687L21.3267 7.80713C21.9674 7.16636 22.4002 6.51598 22.5073 5.83643L22.5239 5.70068C22.5959 4.92115 22.2404 4.17838 21.6138 3.46143L21.3286 3.15576L21.3267 3.15381L21.0073 2.854C20.2655 2.20409 19.5397 1.89636 18.7935 1.96533Z" fill="white" stroke="white" stroke-width="1.09375"/>
<path d="M20.3501 9.82978C20.2801 9.82978 20.2101 9.81978 20.1501 9.79978C17.5201 9.05978 15.4301 6.96978 14.6901 4.33978C14.5801 3.93978 14.8101 3.52978 15.2101 3.40978C15.6101 3.29978 16.0201 3.52978 16.1301 3.92978C16.7301 6.05978 18.4201 7.74978 20.5501 8.34978C20.9501 8.45978 21.1801 8.87978 21.0701 9.27978C20.9801 9.61978 20.6801 9.82978 20.3501 9.82978Z" fill="white"/>
</svg>
