<svg width="22" height="22" viewBox="0 0 22 22" fill="none" xmlns="http://www.w3.org/2000/svg">
<path fill-rule="evenodd" clip-rule="evenodd" d="M11.0038 2.25C8.43649 2.25 6.3553 4.34006 6.3553 6.91828C6.3553 9.49649 8.43649 11.5866 11.0038 11.5866C13.571 11.5866 15.6522 9.49649 15.6522 6.91828C15.6522 4.34006 13.571 2.25 11.0038 2.25ZM11.0038 3.51671C12.8744 3.51671 14.3909 5.03964 14.3909 6.91828C14.3909 8.79691 12.8744 10.3198 11.0038 10.3198C9.1331 10.3198 7.61663 8.79691 7.61663 6.91828C7.61663 5.03964 9.1331 3.51671 11.0038 3.51671ZM9.10129 13.4683C8.42079 13.5155 7.73293 13.6127 7.05445 13.7581C5.7449 14.0278 4.69725 14.5668 4.25133 15.4624C4.08315 15.8127 3.99859 16.1877 4.00002 16.5674C3.99951 16.9443 4.08339 17.3198 4.24554 17.6634C4.6737 18.5487 5.59933 19.0497 6.84921 19.3274L7.07311 19.3742C7.73317 19.5231 8.42124 19.6233 9.11391 19.6704C9.1729 19.6877 9.3135 19.7038 9.46697 19.7116L9.59319 19.7164C9.65809 19.7179 9.73176 19.7182 9.84151 19.7182C10.8371 19.773 11.8692 19.7571 12.8966 19.6696C13.444 19.6321 13.9952 19.5605 14.5418 19.4556L14.9507 19.3707C16.3004 19.1045 17.311 18.5981 17.7538 17.6644C18.082 16.9711 18.082 16.1666 17.7539 15.4736C17.3123 14.5422 16.3145 14.0401 14.9404 13.757C14.4014 13.6419 13.8536 13.5568 13.3018 13.5024L12.8985 13.4683C11.6352 13.3568 10.3646 13.3568 9.10129 13.4683ZM12.7881 14.7301L12.7992 14.731C13.4324 14.7756 14.0617 14.8644 14.6826 14.997C15.7032 15.2073 16.3958 15.5558 16.615 16.0179C16.78 16.3664 16.78 16.7713 16.6148 17.1201C16.4101 17.5519 15.788 17.8855 14.8889 18.0894L14.6921 18.131C14.059 18.2723 13.4317 18.3633 12.8004 18.4066C11.8207 18.4899 10.8468 18.505 9.87542 18.4524L9.53102 18.4465C9.43541 18.4417 9.35483 18.4324 9.28016 18.4174C8.68888 18.3728 8.15683 18.3022 7.64023 18.1998L7.33178 18.1345C6.30799 17.9338 5.60925 17.5838 5.38271 17.1154C5.30343 16.9473 5.26109 16.7578 5.26134 16.5658C5.26063 16.375 5.30242 16.1896 5.38353 16.0206C5.60381 15.5784 6.34429 15.1974 7.3128 14.9979C7.93814 14.8639 8.56716 14.7751 9.20007 14.731C10.4015 14.6252 11.5983 14.6252 12.7881 14.7301Z" fill="#D0D0D0"/>
</svg>
