<svg width="22" height="21" viewBox="0 0 22 21" fill="none" xmlns="http://www.w3.org/2000/svg">
<path d="M9.10158 12.9688C10.3648 12.8573 11.6352 12.8573 12.8985 12.9688L13.3018 13.0029C13.8535 13.0573 14.4014 13.1418 14.9404 13.2568C16.3144 13.5399 17.3123 14.0423 17.7539 14.9736C18.082 15.6665 18.082 16.4709 17.7539 17.1641C17.3112 18.0977 16.3006 18.6048 14.9512 18.8711L14.542 18.9561C13.9955 19.061 13.444 19.1325 12.8965 19.1699C11.8693 19.2574 10.8373 19.2735 9.84181 19.2188C9.73207 19.2188 9.65769 19.2183 9.59279 19.2168L9.46681 19.2119C9.3138 19.2041 9.1735 19.1881 9.11428 19.1709C8.42163 19.1238 7.7333 19.0229 7.07326 18.874L6.84963 18.8271C5.59977 18.5494 4.67331 18.0484 4.24513 17.1631C4.08313 16.8197 3.99952 16.4441 4.00002 16.0674C3.9986 15.6879 4.083 15.313 4.25099 14.9629C4.6969 14.0673 5.74517 13.5276 7.0547 13.2578C7.7331 13.1124 8.42117 13.016 9.10158 12.9688ZM12.7881 14.2305C11.5983 14.1255 10.4016 14.1256 9.20021 14.2314C8.56731 14.2755 7.93786 14.364 7.31252 14.498C6.34436 14.6975 5.60421 15.0784 5.38381 15.5205C5.30278 15.6894 5.2611 15.8748 5.26174 16.0654C5.26149 16.2573 5.30361 16.4473 5.38283 16.6152C5.60941 17.0836 6.3083 17.4341 7.33205 17.6348L7.64064 17.7002C8.1571 17.8026 8.68918 17.8734 9.28029 17.918C9.35491 17.9329 9.43574 17.9414 9.53127 17.9463L9.87502 17.9521C10.8464 18.0047 11.8211 17.9896 12.8008 17.9062C13.432 17.863 14.0595 17.7721 14.6924 17.6309L14.8887 17.5898C15.7877 17.386 16.4105 17.0519 16.6153 16.6201C16.7803 16.2714 16.7802 15.866 16.6153 15.5176C16.396 15.0556 15.7031 14.7073 14.6826 14.4971C14.0618 14.3645 13.432 14.276 12.7988 14.2314L12.7881 14.2305ZM11.0039 1.75C13.571 1.75009 15.6522 3.83995 15.6524 6.41797C15.6524 8.99613 13.5711 11.0868 11.0039 11.0869C8.43666 11.0869 6.35549 8.99618 6.35549 6.41797C6.35565 3.8399 8.43676 1.75001 11.0039 1.75ZM11.0039 3.0166C9.13338 3.01661 7.61737 4.53948 7.6172 6.41797C7.6172 8.2966 9.13328 9.8203 11.0039 9.82031C12.8745 9.82022 14.3906 8.29655 14.3906 6.41797C14.3905 4.53953 12.8744 3.01669 11.0039 3.0166Z" fill="#F66329"/>
<circle cx="11" cy="6.5" r="3.5" fill="#F66329"/>
<ellipse cx="11" cy="16" rx="6.5" ry="3" fill="#F66329"/>
</svg>
