<svg width="13" height="14" viewBox="0 0 13 14" fill="none" xmlns="http://www.w3.org/2000/svg">
<path d="M9.59753 13.0483H2.56628C2.1751 13.0483 1.78911 12.9588 1.43774 12.7869C1.08638 12.615 0.778925 12.3651 0.538829 12.0562C0.298733 11.7474 0.132339 11.3878 0.0523392 11.0049C-0.0276605 10.622 -0.0191527 10.2259 0.0772136 9.84678L1.50221 4.02959C1.52788 3.92559 1.58839 3.83351 1.67368 3.76869C1.75897 3.70387 1.86388 3.67022 1.97096 3.67334H9.82253C9.92592 3.66861 10.028 3.69823 10.1128 3.75759C10.1976 3.81694 10.2603 3.9027 10.2913 4.00147L12.0632 9.70147C12.1843 10.0886 12.2122 10.4989 12.1446 10.8989C12.077 11.2989 11.9158 11.6772 11.6741 12.003C11.4364 12.3302 11.1239 12.5958 10.7626 12.7777C10.4014 12.9595 10.0019 13.0523 9.59753 13.0483ZM2.32253 4.61084L0.967839 10.0718C0.907513 10.3127 0.902678 10.5642 0.953701 10.8073C1.00472 11.0504 1.11027 11.2787 1.26238 11.475C1.41449 11.6714 1.6092 11.8306 1.83182 11.9408C2.05444 12.0509 2.29916 12.1091 2.54753 12.1108H9.57878C9.83388 12.1113 10.0854 12.0511 10.3128 11.9354C10.5401 11.8197 10.7368 11.6517 10.8866 11.4452C11.0407 11.2375 11.1435 10.9964 11.1867 10.7414C11.2299 10.4864 11.2122 10.2249 11.135 9.97803L9.48503 4.61084H2.32253Z" fill="#DCDCDC"/>
<path d="M7.94727 7.42334C7.82295 7.42334 7.70372 7.37395 7.61581 7.28605C7.5279 7.19814 7.47852 7.07891 7.47852 6.95459V3.20459C7.47852 2.83163 7.33036 2.47394 7.06663 2.21022C6.80291 1.9465 6.44523 1.79834 6.07227 1.79834C5.6993 1.79834 5.34162 1.9465 5.0779 2.21022C4.81417 2.47394 4.66602 2.83163 4.66602 3.20459V6.95459C4.66602 7.07891 4.61663 7.19814 4.52872 7.28605C4.44081 7.37395 4.32159 7.42334 4.19727 7.42334C4.07295 7.42334 3.95372 7.37395 3.86581 7.28605C3.7779 7.19814 3.72852 7.07891 3.72852 6.95459V3.20459C3.72852 2.58299 3.97545 1.98685 4.41498 1.54731C4.85452 1.10777 5.45066 0.86084 6.07227 0.86084C6.69387 0.86084 7.29001 1.10777 7.72955 1.54731C8.16909 1.98685 8.41602 2.58299 8.41602 3.20459V6.95459C8.41602 7.07891 8.36663 7.19814 8.27872 7.28605C8.19081 7.37395 8.07159 7.42334 7.94727 7.42334Z" fill="#DCDCDC"/>
</svg>
