<svg width="21" height="21" viewBox="0 0 21 21" fill="none" xmlns="http://www.w3.org/2000/svg">
<path d="M10.2432 0.0825195C4.72916 0.0825195 0.243164 4.56852 0.243164 10.0825C0.243164 15.5965 4.72916 20.0825 10.2432 20.0825C15.7572 20.0825 20.2432 15.5965 20.2432 10.0825C20.2432 4.56852 15.7572 0.0825195 10.2432 0.0825195ZM2.24316 10.0825C2.24316 8.23652 2.87716 6.54052 3.93116 5.18552L15.1402 16.3945C13.7422 17.4884 12.0182 18.0826 10.2432 18.0825C5.83216 18.0825 2.24316 14.4935 2.24316 10.0825ZM16.5552 14.9795L5.34616 3.77052C6.74421 2.67682 8.46814 2.08258 10.2432 2.08252C14.6542 2.08252 18.2432 5.67152 18.2432 10.0825C18.2426 11.8575 17.6485 13.5812 16.5552 14.9795Z" fill="white"/>
</svg>
