<svg width="26" height="27" viewBox="0 0 26 27" fill="none" xmlns="http://www.w3.org/2000/svg">
<path d="M13.9635 7.29932H5.53517C3.68267 7.29932 2.16602 8.81597 2.16602 10.6685V22.9752C2.16602 24.546 3.29268 25.2176 4.66851 24.4485L8.92601 22.076C9.38101 21.8268 10.1177 21.8268 10.5618 22.076L14.8193 24.4485C16.1952 25.2176 17.3218 24.546 17.3218 22.9752V10.6685C17.3327 8.81597 15.816 7.29932 13.9635 7.29932Z" fill="white" stroke="#828282" stroke-width="1.5" stroke-linecap="round" stroke-linejoin="round"/>
<path d="M17.3327 10.6685V22.9752C17.3327 24.546 16.206 25.2068 14.8302 24.4485L10.5727 22.076C10.1177 21.8268 9.38101 21.8268 8.92601 22.076L4.66851 24.4485C3.29268 25.2068 2.16602 24.546 2.16602 22.9752V10.6685C2.16602 8.81597 3.68267 7.29932 5.53517 7.29932H13.9635C15.816 7.29932 17.3327 8.81597 17.3327 10.6685Z" fill="white" stroke="#828282" stroke-width="1.5" stroke-linecap="round" stroke-linejoin="round"/>
<path d="M23.8327 6.46485V18.7715C23.8327 20.3424 22.706 21.0032 21.3302 20.2449L17.3327 18.0132V10.6682C17.3327 8.81569 15.816 7.29904 13.9635 7.29904H8.66602V6.46485C8.66602 4.61235 10.1827 3.0957 12.0352 3.0957H20.4635C22.316 3.0957 23.8327 4.61235 23.8327 6.46485Z" fill="white" stroke="#828282" stroke-width="1.5" stroke-linecap="round" stroke-linejoin="round"/>
</svg>
