<svg width="20" height="21" viewBox="0 0 20 21" fill="none" xmlns="http://www.w3.org/2000/svg">
<path d="M9.16602 17.7915C4.68268 17.7915 1.04102 14.1498 1.04102 9.6665C1.04102 5.18317 4.68268 1.5415 9.16602 1.5415C13.6493 1.5415 17.291 5.18317 17.291 9.6665C17.291 14.1498 13.6493 17.7915 9.16602 17.7915ZM9.16602 2.7915C5.37435 2.7915 2.29102 5.87484 2.29102 9.6665C2.29102 13.4582 5.37435 16.5415 9.16602 16.5415C12.9577 16.5415 16.041 13.4582 16.041 9.6665C16.041 5.87484 12.9577 2.7915 9.16602 2.7915Z" fill="white"/>
<path d="M16.7996 19.4917C16.7329 19.4917 16.6663 19.4833 16.6079 19.475C16.2163 19.425 15.5079 19.1583 15.1079 17.9667C14.8996 17.3417 14.9746 16.7167 15.3163 16.2417C15.6579 15.7667 16.2329 15.5 16.8913 15.5C17.7413 15.5 18.4079 15.825 18.7079 16.4C19.0079 16.975 18.9246 17.7083 18.4496 18.4167C17.8579 19.3083 17.2163 19.4917 16.7996 19.4917ZM16.2996 17.575C16.4413 18.0083 16.6413 18.225 16.7746 18.2417C16.9079 18.2583 17.1579 18.1 17.4163 17.725C17.6579 17.3667 17.6746 17.1083 17.6163 16.9917C17.5579 16.875 17.3246 16.75 16.8913 16.75C16.6329 16.75 16.4413 16.8333 16.3329 16.975C16.2329 17.1167 16.2163 17.3333 16.2996 17.575Z" fill="white"/>
</svg>
