<svg width="22" height="22" viewBox="0 0 22 22" fill="none" xmlns="http://www.w3.org/2000/svg">
<path d="M13.0369 19.8284C11.9553 19.8284 10.4244 19.0675 9.21443 15.4284L8.55443 13.4484L6.57443 12.7884C2.94443 11.5784 2.18359 10.0475 2.18359 8.96586C2.18359 7.89336 2.94443 6.35336 6.57443 5.13419L14.3569 2.54003C16.3003 1.88919 17.9228 2.08169 18.9219 3.07169C19.9211 4.06169 20.1136 5.69336 19.4628 7.63669L16.8686 15.4192C15.6494 19.0675 14.1186 19.8284 13.0369 19.8284ZM7.00526 6.44503C4.45693 7.29753 3.54943 8.30586 3.54943 8.96586C3.54943 9.62586 4.45693 10.6342 7.00526 11.4775L9.31526 12.2475C9.51693 12.3117 9.68193 12.4767 9.74609 12.6784L10.5161 14.9884C11.3594 17.5367 12.3769 18.4442 13.0369 18.4442C13.6969 18.4442 14.7053 17.5367 15.5578 14.9884L18.1519 7.20586C18.6194 5.79419 18.5369 4.63919 17.9411 4.04336C17.3453 3.44753 16.1903 3.37419 14.7878 3.84169L7.00526 6.44503Z" fill="white"/>
<path d="M9.26919 13.1997C9.09503 13.1997 8.92086 13.1355 8.78336 12.998C8.51753 12.7322 8.51753 12.2922 8.78336 12.0263L12.065 8.73551C12.3309 8.46967 12.7709 8.46967 13.0367 8.73551C13.3025 9.00134 13.3025 9.44134 13.0367 9.70717L9.75503 12.998C9.62669 13.1355 9.44336 13.1997 9.26919 13.1997Z" fill="white"/>
</svg>
