<svg width="15" height="15" viewBox="0 0 15 15" fill="none" xmlns="http://www.w3.org/2000/svg">
<path d="M7.49916 5.77097C7.06651 5.77097 6.64358 5.89927 6.28385 6.13963C5.92412 6.38 5.64374 6.72164 5.47817 7.12135C5.31261 7.52107 5.26929 7.9609 5.35369 8.38523C5.4381 8.80957 5.64644 9.19934 5.95236 9.50527C6.25829 9.8112 6.64806 10.0195 7.0724 10.1039C7.49673 10.1883 7.93656 10.145 8.33628 9.97946C8.73599 9.81389 9.07763 9.53351 9.318 9.17378C9.55836 8.81405 9.68666 8.39112 9.68666 7.95847C9.68666 7.37831 9.45619 6.82191 9.04595 6.41168C8.63572 6.00144 8.07932 5.77097 7.49916 5.77097ZM7.49916 9.27097C7.23957 9.27097 6.98581 9.194 6.76997 9.04978C6.55413 8.90556 6.38591 8.70057 6.28657 8.46074C6.18723 8.22092 6.16123 7.95702 6.21188 7.70242C6.26252 7.44782 6.38752 7.21395 6.57108 7.03039C6.75464 6.84684 6.9885 6.72183 7.2431 6.67119C7.4977 6.62055 7.7616 6.64654 8.00143 6.74588C8.24126 6.84522 8.44624 7.01345 8.59046 7.22929C8.73468 7.44513 8.81166 7.69888 8.81166 7.95847C8.81166 8.30657 8.67338 8.64041 8.42724 8.88655C8.18109 9.13269 7.84725 9.27097 7.49916 9.27097ZM11.5302 9.66144C11.3422 10.1058 11.082 10.516 10.7602 10.8755C10.6822 10.9598 10.5743 11.0101 10.4596 11.0156C10.3449 11.021 10.2326 10.9811 10.1471 10.9045C10.0615 10.828 10.0095 10.7208 10.0022 10.6062C9.99499 10.4916 10.0331 10.3788 10.1083 10.292C10.6828 9.65058 11.0004 8.8198 11.0004 7.95875C11.0004 7.0977 10.6828 6.26691 10.1083 5.6255C10.0689 5.58288 10.0384 5.53284 10.0185 5.47831C9.99866 5.42378 9.98984 5.36584 9.99259 5.30786C9.99533 5.24989 10.0096 5.19304 10.0345 5.14063C10.0594 5.08822 10.0946 5.04129 10.1378 5.00258C10.181 4.96388 10.2316 4.93416 10.2864 4.91516C10.3412 4.89616 10.3993 4.88827 10.4572 4.89194C10.5152 4.8956 10.5718 4.91076 10.6238 4.93652C10.6758 4.96228 10.7222 4.99813 10.7602 5.04199C11.3126 5.66014 11.6782 6.4224 11.8145 7.24014C11.9508 8.05789 11.8522 8.89752 11.5302 9.66144ZM4.2726 6.59621C4.01446 7.20727 3.93529 7.8791 4.04431 8.53343C4.15334 9.18776 4.44606 9.79763 4.88838 10.292C4.96359 10.3788 5.00168 10.4916 4.99443 10.6062C4.98717 10.7208 4.93515 10.828 4.8496 10.9045C4.76404 10.9811 4.6518 11.021 4.5371 11.0156C4.4224 11.0101 4.31444 10.9598 4.2365 10.8755C3.51823 10.0738 3.12104 9.03518 3.12104 7.95875C3.12104 6.88231 3.51823 5.84373 4.2365 5.04199C4.31388 4.95533 4.42252 4.90295 4.53851 4.89639C4.65451 4.88983 4.76836 4.92961 4.85502 5.00699C4.94168 5.08437 4.99405 5.193 5.00062 5.309C5.00718 5.42499 4.9674 5.53884 4.89002 5.6255C4.63189 5.91266 4.42325 6.24069 4.2726 6.59621ZM14.0617 7.95847C14.0643 9.67661 13.3907 11.3268 12.1864 12.5522C12.1466 12.5948 12.0986 12.629 12.0454 12.6528C11.9921 12.6766 11.9346 12.6895 11.8763 12.6908C11.818 12.692 11.7601 12.6816 11.7058 12.6601C11.6516 12.6387 11.6022 12.6066 11.5606 12.5657C11.5189 12.5249 11.4859 12.4761 11.4633 12.4223C11.4408 12.3685 11.4293 12.3108 11.4294 12.2524C11.4295 12.1941 11.4413 12.1364 11.4641 12.0827C11.4868 12.029 11.5201 11.9804 11.5619 11.9397C12.6046 10.8773 13.1888 9.44818 13.1888 7.95957C13.1888 6.47095 12.6046 5.04179 11.5619 3.97941C11.4804 3.89659 11.4351 3.78478 11.436 3.66859C11.437 3.55239 11.484 3.44131 11.5668 3.3598C11.6496 3.27829 11.7614 3.23301 11.8776 3.23394C11.9938 3.23486 12.1049 3.2819 12.1864 3.36472C13.3907 4.59018 14.0643 6.24034 14.0617 7.95847ZM3.43642 11.9386C3.47671 11.9796 3.50853 12.0282 3.53006 12.0815C3.55159 12.1348 3.56241 12.1918 3.5619 12.2493C3.56139 12.3068 3.54957 12.3636 3.5271 12.4165C3.50463 12.4694 3.47196 12.5174 3.43096 12.5577C3.38995 12.598 3.34141 12.6298 3.2881 12.6513C3.2348 12.6729 3.17778 12.6837 3.12029 12.6832C3.06281 12.6827 3.00598 12.6708 2.95307 12.6484C2.90015 12.6259 2.85218 12.5932 2.81189 12.5522C1.60778 11.3264 0.933105 9.67678 0.933105 7.95847C0.933105 6.24017 1.60778 4.59056 2.81189 3.36472C2.85174 3.32213 2.89969 3.28792 2.95294 3.26413C3.0062 3.24034 3.06367 3.22743 3.12198 3.22618C3.18029 3.22492 3.23827 3.23533 3.29249 3.25681C3.34672 3.27828 3.39611 3.31038 3.43775 3.35122C3.47939 3.39206 3.51245 3.44081 3.53497 3.49461C3.5575 3.54841 3.56904 3.60618 3.56891 3.6645C3.56879 3.72283 3.55701 3.78054 3.53425 3.83424C3.5115 3.88795 3.47824 3.93656 3.43642 3.97722C2.39368 5.0396 1.80949 6.46877 1.80949 7.95738C1.80949 9.44599 2.39368 10.8752 3.43642 11.9375V11.9386Z" fill="#FF4646"/>
</svg>
