<svg width="25" height="24" viewBox="0 0 25 24" fill="none" xmlns="http://www.w3.org/2000/svg">
<path d="M12.5 2C10.5222 2 8.58879 2.58649 6.9443 3.6853C5.29981 4.78412 4.01809 6.3459 3.26121 8.17317C2.50433 10.0004 2.3063 12.0111 2.69215 13.9509C3.078 15.8907 4.03041 17.6725 5.42894 19.0711C6.82746 20.4696 8.60929 21.422 10.5491 21.8079C12.4889 22.1937 14.4996 21.9957 16.3268 21.2388C18.1541 20.4819 19.7159 19.2002 20.8147 17.5557C21.9135 15.9112 22.5 13.9778 22.5 12C22.4958 9.34913 21.4408 6.80805 19.5664 4.93361C17.692 3.05916 15.1509 2.00423 12.5 2ZM17.28 9.7L11.61 15.37C11.5405 15.4398 11.4579 15.4952 11.367 15.5329C11.276 15.5707 11.1785 15.5902 11.08 15.5902C10.9815 15.5902 10.884 15.5707 10.793 15.5329C10.7021 15.4952 10.6195 15.4398 10.55 15.37L7.72 12.54C7.64632 12.4713 7.58721 12.3885 7.54622 12.2965C7.50523 12.2045 7.48319 12.1052 7.48141 12.0045C7.47964 11.9038 7.49816 11.8038 7.53588 11.7104C7.5736 11.617 7.62975 11.5322 7.70097 11.461C7.77218 11.3897 7.85702 11.3336 7.95041 11.2959C8.04379 11.2582 8.14382 11.2396 8.24453 11.2414C8.34523 11.2432 8.44454 11.2652 8.53654 11.3062C8.62854 11.3472 8.71134 11.4063 8.78 11.48L11.08 13.78L16.22 8.64C16.3622 8.50752 16.5502 8.4354 16.7445 8.43883C16.9388 8.44225 17.1242 8.52097 17.2616 8.65838C17.399 8.79579 17.4778 8.98118 17.4812 9.17548C17.4846 9.36978 17.4125 9.55783 17.28 9.7Z" fill="#39DA2C"/>
</svg>
