<svg width="20" height="20" viewBox="0 0 20 20" fill="none" xmlns="http://www.w3.org/2000/svg">
<path d="M17.9658 8.94997L16.8324 7.6333C16.6158 7.3833 16.4408 6.91663 16.4408 6.5833V5.16663C16.4408 4.2833 15.7158 3.5583 14.8324 3.5583H13.4158C13.0908 3.5583 12.6158 3.3833 12.3658 3.16663L11.0491 2.0333C10.4741 1.54163 9.53242 1.54163 8.94909 2.0333L7.64076 3.17497C7.39076 3.3833 6.91576 3.5583 6.59075 3.5583H5.14909C4.26576 3.5583 3.54076 4.2833 3.54076 5.16663V6.59163C3.54076 6.91663 3.36576 7.3833 3.15742 7.6333L2.03242 8.9583C1.54909 9.5333 1.54909 10.4666 2.03242 11.0416L3.15742 12.3666C3.36576 12.6166 3.54076 13.0833 3.54076 13.4083V14.8333C3.54076 15.7166 4.26576 16.4416 5.14909 16.4416H6.59075C6.91576 16.4416 7.39076 16.6166 7.64076 16.8333L8.95742 17.9666C9.53242 18.4583 10.4741 18.4583 11.0574 17.9666L12.3741 16.8333C12.6241 16.6166 13.0908 16.4416 13.4241 16.4416H14.8408C15.7241 16.4416 16.4491 15.7166 16.4491 14.8333V13.4166C16.4491 13.0916 16.6241 12.6166 16.8408 12.3666L17.9741 11.05C18.4574 10.475 18.4574 9.52497 17.9658 8.94997ZM13.4658 8.42497L9.44076 12.45C9.32409 12.5666 9.16576 12.6333 8.99909 12.6333C8.83242 12.6333 8.67409 12.5666 8.55742 12.45L6.54076 10.4333C6.29909 10.1916 6.29909 9.79163 6.54076 9.54997C6.78242 9.3083 7.18242 9.3083 7.42409 9.54997L8.99909 11.125L12.5824 7.54163C12.8241 7.29997 13.2241 7.29997 13.4658 7.54163C13.7074 7.7833 13.7074 8.1833 13.4658 8.42497Z" fill="white"/>
</svg>
