<svg width="22" height="21" viewBox="0 0 22 21" fill="none" xmlns="http://www.w3.org/2000/svg">
<path d="M20.1672 7.33339V14.6667C20.1667 14.8395 20.1174 15.0086 20.025 15.1546C19.9325 15.3006 19.8007 15.4174 19.6447 15.4917C19.5229 15.5542 19.3875 15.5856 19.2506 15.5834C19.0438 15.5822 18.8435 15.5111 18.6822 15.3817L14.0989 11.7151C13.9918 11.6292 13.9054 11.5203 13.8461 11.3966C13.7867 11.2728 13.7559 11.1373 13.7559 11.0001C13.7559 10.8628 13.7867 10.7273 13.8461 10.6035C13.9054 10.4798 13.9918 10.3709 14.0989 10.2851L18.6822 6.61839C18.8164 6.51199 18.9776 6.44529 19.1478 6.42585C19.3179 6.40641 19.49 6.435 19.6447 6.50839C19.8007 6.58268 19.9325 6.69955 20.025 6.84552C20.1174 6.99148 20.1667 7.16061 20.1672 7.33339Z" fill="white"/>
<path d="M10.5423 5.5H4.12565C3.51786 5.5 2.93497 5.74144 2.5052 6.17121C2.07543 6.60098 1.83398 7.18388 1.83398 7.79167V14.2083C1.83398 14.8161 2.07543 15.399 2.5052 15.8288C2.93497 16.2586 3.51786 16.5 4.12565 16.5H10.5423C11.1501 16.5 11.733 16.2586 12.1628 15.8288C12.5925 15.399 12.834 14.8161 12.834 14.2083V7.79167C12.834 7.18388 12.5925 6.60098 12.1628 6.17121C11.733 5.74144 11.1501 5.5 10.5423 5.5ZM9.16732 10.0833C8.98602 10.0833 8.80879 10.0296 8.65804 9.92885C8.5073 9.82812 8.38981 9.68496 8.32043 9.51746C8.25105 9.34996 8.23289 9.16565 8.26826 8.98783C8.30363 8.81002 8.39094 8.64668 8.51914 8.51849C8.64734 8.39029 8.81067 8.30298 8.98848 8.26761C9.1663 8.23224 9.35061 8.2504 9.51811 8.31978C9.68561 8.38916 9.82877 8.50665 9.9295 8.65739C10.0302 8.80814 10.084 8.98537 10.084 9.16667C10.084 9.40978 9.98741 9.64294 9.8155 9.81485C9.64359 9.98676 9.41043 10.0833 9.16732 10.0833Z" fill="white"/>
</svg>
