<svg width="24" height="23" viewBox="0 0 24 23" fill="none" xmlns="http://www.w3.org/2000/svg">
<path d="M19.1875 6.46875H4.8125C3.62164 6.46875 2.65625 7.43414 2.65625 8.625V17.25C2.65625 18.4409 3.62164 19.4062 4.8125 19.4062H19.1875C20.3784 19.4062 21.3438 18.4409 21.3438 17.25V8.625C21.3438 7.43414 20.3784 6.46875 19.1875 6.46875Z" stroke="white" stroke-linejoin="round"/>
<path d="M18.9791 6.46852V5.12086C18.979 4.79033 18.9059 4.46389 18.7651 4.16485C18.6243 3.8658 18.4193 3.60151 18.1646 3.39084C17.9099 3.18017 17.6118 3.0283 17.2917 2.94609C16.9715 2.86387 16.6372 2.85332 16.3125 2.9152L4.48188 4.93443C3.96811 5.03234 3.50462 5.30647 3.17135 5.70953C2.83807 6.1126 2.6559 6.61934 2.65625 7.14234V9.34352" stroke="white" stroke-linejoin="round"/>
<path d="M17.0313 14.375C16.7469 14.375 16.469 14.2907 16.2326 14.1327C15.9962 13.9748 15.812 13.7503 15.7032 13.4876C15.5944 13.2249 15.5659 12.9359 15.6214 12.6571C15.6768 12.3782 15.8137 12.1221 16.0148 11.921C16.2158 11.72 16.472 11.5831 16.7508 11.5276C17.0297 11.4722 17.3187 11.5006 17.5814 11.6094C17.844 11.7182 18.0685 11.9025 18.2265 12.1389C18.3844 12.3753 18.4688 12.6532 18.4688 12.9375C18.4688 13.3187 18.3173 13.6844 18.0477 13.954C17.7781 14.2236 17.4125 14.375 17.0313 14.375Z" fill="white"/>
</svg>
